<svg xmlns="http://www.w3.org/2000/svg" width="900" height="290" style="font-family: -apple-system, BlinkMacSystemFont, 'Segoe UI', Helvetica, Arial, sans-serif;">
  <rect width="100%" height="100%" fill="white"/>
  <g>
    <line x1="40" y1="220.00" x2="860" y2="220.00" stroke="#e5e7eb"/><text x="32" y="224.00" font-size="10" fill="#111827" text-anchor="end">0</text><line x1="40" y1="175.00" x2="860" y2="175.00" stroke="#e5e7eb"/><text x="32" y="179.00" font-size="10" fill="#111827" text-anchor="end">1.2k</text><line x1="40" y1="130.00" x2="860" y2="130.00" stroke="#e5e7eb"/><text x="32" y="134.00" font-size="10" fill="#111827" text-anchor="end">2.5k</text><line x1="40" y1="85.00" x2="860" y2="85.00" stroke="#e5e7eb"/><text x="32" y="89.00" font-size="10" fill="#111827" text-anchor="end">3.8k</text><line x1="40" y1="40.00" x2="860" y2="40.00" stroke="#e5e7eb"/><text x="32" y="44.00" font-size="10" fill="#111827" text-anchor="end">5k</text>
    <line x1="40.00" y1="40" x2="40.00" y2="220" stroke="#e5e7eb" opacity="0.5"/><line x1="118.10" y1="40" x2="118.10" y2="220" stroke="#e5e7eb" opacity="0.5"/><line x1="196.19" y1="40" x2="196.19" y2="220" stroke="#e5e7eb" opacity="0.5"/><line x1="274.29" y1="40" x2="274.29" y2="220" stroke="#e5e7eb" opacity="0.5"/><line x1="352.38" y1="40" x2="352.38" y2="220" stroke="#e5e7eb" opacity="0.5"/><line x1="430.48" y1="40" x2="430.48" y2="220" stroke="#e5e7eb" opacity="0.5"/><line x1="508.57" y1="40" x2="508.57" y2="220" stroke="#e5e7eb" opacity="0.5"/><line x1="586.67" y1="40" x2="586.67" y2="220" stroke="#e5e7eb" opacity="0.5"/><line x1="664.76" y1="40" x2="664.76" y2="220" stroke="#e5e7eb" opacity="0.5"/><line x1="742.86" y1="40" x2="742.86" y2="220" stroke="#e5e7eb" opacity="0.5"/><line x1="820.95" y1="40" x2="820.95" y2="220" stroke="#e5e7eb" opacity="0.5"/>
    <line x1="40" y1="220" x2="860" y2="220" stroke="#9ca3af"/>
    <line x1="40" y1="40"   x2="40"   y2="220" stroke="#9ca3af"/>
    <path d="M 40.00 203.22 L 45.58 202.72 L 51.16 202.72 L 56.73 202.61 L 62.31 201.39 L 67.89 200.78 L 73.47 200.78 L 79.05 200.78 L 84.63 200.56 L 90.20 195.74 L 95.78 195.74 L 101.36 195.74 L 106.94 194.44 L 112.52 194.08 L 118.10 191.99 L 123.67 191.99 L 129.25 191.92 L 134.83 189.72 L 140.41 189.69 L 145.99 189.65 L 151.56 189.65 L 157.14 189.65 L 162.72 189.65 L 168.30 189.65 L 173.88 189.47 L 179.46 189.47 L 185.03 189.47 L 190.61 189.47 L 196.19 189.00 L 201.77 189.00 L 207.35 189.08 L 212.93 189.08 L 218.50 187.28 L 224.08 179.86 L 229.66 179.75 L 235.24 179.72 L 240.82 179.72 L 246.39 179.72 L 251.97 179.72 L 257.55 179.72 L 263.13 179.72 L 268.71 179.72 L 274.29 178.35 L 279.86 175.76 L 285.44 168.12 L 291.02 166.07 L 296.60 165.50 L 302.18 165.46 L 307.76 164.88 L 313.33 164.88 L 318.91 164.88 L 324.49 164.88 L 330.07 164.78 L 335.65 164.78 L 341.22 163.84 L 346.80 163.55 L 352.38 161.86 L 357.96 161.86 L 363.54 161.61 L 369.12 161.18 L 374.69 158.37 L 380.27 158.40 L 385.85 158.40 L 391.43 158.40 L 397.01 158.40 L 402.59 158.40 L 408.16 158.26 L 413.74 157.54 L 419.32 157.54 L 424.90 157.54 L 430.48 151.42 L 436.05 151.10 L 441.63 151.06 L 447.21 151.06 L 452.79 150.74 L 458.37 150.74 L 463.95 150.74 L 469.52 150.70 L 475.10 150.66 L 480.68 150.66 L 486.26 153.04 L 491.84 153.18 L 497.41 153.18 L 502.99 153.08 L 508.57 153.11 L 514.15 155.06 L 519.73 155.06 L 525.31 155.88 L 530.88 155.88 L 536.46 155.88 L 542.04 155.88 L 547.62 155.67 L 553.20 155.42 L 558.78 155.42 L 564.35 155.27 L 569.93 155.24 L 575.51 153.44 L 581.09 149.98 L 586.67 147.42 L 592.24 147.42 L 597.82 147.42 L 603.40 147.57 L 608.98 146.85 L 614.56 143.90 L 620.14 137.02 L 625.71 134.61 L 631.29 134.61 L 636.87 134.61 L 642.45 118.62 L 648.03 118.62 L 653.61 118.62 L 659.18 112.65 L 664.76 117.58 L 670.34 117.58 L 675.92 117.58 L 681.50 117.58 L 687.07 117.58 L 692.65 117.58 L 698.23 117.58 L 703.81 117.58 L 709.39 117.58 L 714.97 117.58 L 720.54 117.58 L 726.12 117.58 L 731.70 117.58 L 737.28 117.58 L 742.86 117.58 L 748.44 117.58 L 754.01 117.58 L 759.59 117.58 L 765.17 117.58 L 770.75 117.58 L 776.33 117.58 L 781.90 117.58 L 787.48 117.58 L 793.06 117.58 L 798.64 117.58 L 804.22 117.58 L 809.80 117.58 L 815.37 117.58 L 820.95 117.58 L 826.53 117.58 L 832.11 117.58 L 837.69 117.58 L 843.27 117.58 L 848.84 117.58 L 854.42 117.58 L 860.00 117.58" fill="none" stroke="#111827" stroke-width="2"/>
    <circle cx="860.00" cy="117.58" r="3" fill="#111827"/>
    <text x="40.00" y="235.00" font-size="9" fill="#111827" text-anchor="middle" transform="rotate(-45 40.00 235.00)">02.08.25</text><text x="118.10" y="235.00" font-size="9" fill="#111827" text-anchor="middle" transform="rotate(-45 118.10 235.00)">09.08.25</text><text x="196.19" y="235.00" font-size="9" fill="#111827" text-anchor="middle" transform="rotate(-45 196.19 235.00)">11.08.25</text><text x="274.29" y="235.00" font-size="9" fill="#111827" text-anchor="middle" transform="rotate(-45 274.29 235.00)">13.08.25</text><text x="352.38" y="235.00" font-size="9" fill="#111827" text-anchor="middle" transform="rotate(-45 352.38 235.00)">15.08.25</text><text x="430.48" y="235.00" font-size="9" fill="#111827" text-anchor="middle" transform="rotate(-45 430.48 235.00)">18.08.25</text><text x="508.57" y="235.00" font-size="9" fill="#111827" text-anchor="middle" transform="rotate(-45 508.57 235.00)">19.08.25</text><text x="586.67" y="235.00" font-size="9" fill="#111827" text-anchor="middle" transform="rotate(-45 586.67 235.00)">22.08.25</text><text x="664.76" y="235.00" font-size="9" fill="#111827" text-anchor="middle" transform="rotate(-45 664.76 235.00)">24.08.25</text><text x="742.86" y="235.00" font-size="9" fill="#111827" text-anchor="middle" transform="rotate(-45 742.86 235.00)">14.09.25</text><text x="820.95" y="235.00" font-size="9" fill="#111827" text-anchor="middle" transform="rotate(-45 820.95 235.00)">10.11.25</text>
  </g>
</svg>