<svg xmlns="http://www.w3.org/2000/svg" width="900" height="290" style="font-family: -apple-system, BlinkMacSystemFont, 'Segoe UI', Helvetica, Arial, sans-serif;">
  <rect width="100%" height="100%" fill="white"/>
  <g>
    <line x1="40" y1="220.00" x2="860" y2="220.00" stroke="#e5e7eb"/><text x="32" y="224.00" font-size="10" fill="#111827" text-anchor="end">0</text><line x1="40" y1="175.00" x2="860" y2="175.00" stroke="#e5e7eb"/><text x="32" y="179.00" font-size="10" fill="#111827" text-anchor="end">1.2k</text><line x1="40" y1="130.00" x2="860" y2="130.00" stroke="#e5e7eb"/><text x="32" y="134.00" font-size="10" fill="#111827" text-anchor="end">2.5k</text><line x1="40" y1="85.00" x2="860" y2="85.00" stroke="#e5e7eb"/><text x="32" y="89.00" font-size="10" fill="#111827" text-anchor="end">3.8k</text><line x1="40" y1="40.00" x2="860" y2="40.00" stroke="#e5e7eb"/><text x="32" y="44.00" font-size="10" fill="#111827" text-anchor="end">5k</text>
    <line x1="40.00" y1="40" x2="40.00" y2="220" stroke="#e5e7eb" opacity="0.5"/><line x1="117.48" y1="40" x2="117.48" y2="220" stroke="#e5e7eb" opacity="0.5"/><line x1="194.96" y1="40" x2="194.96" y2="220" stroke="#e5e7eb" opacity="0.5"/><line x1="272.44" y1="40" x2="272.44" y2="220" stroke="#e5e7eb" opacity="0.5"/><line x1="349.92" y1="40" x2="349.92" y2="220" stroke="#e5e7eb" opacity="0.5"/><line x1="427.40" y1="40" x2="427.40" y2="220" stroke="#e5e7eb" opacity="0.5"/><line x1="504.88" y1="40" x2="504.88" y2="220" stroke="#e5e7eb" opacity="0.5"/><line x1="582.36" y1="40" x2="582.36" y2="220" stroke="#e5e7eb" opacity="0.5"/><line x1="659.84" y1="40" x2="659.84" y2="220" stroke="#e5e7eb" opacity="0.5"/><line x1="737.32" y1="40" x2="737.32" y2="220" stroke="#e5e7eb" opacity="0.5"/><line x1="814.80" y1="40" x2="814.80" y2="220" stroke="#e5e7eb" opacity="0.5"/>
    <line x1="40" y1="220" x2="860" y2="220" stroke="#9ca3af"/>
    <line x1="40" y1="40"   x2="40"   y2="220" stroke="#9ca3af"/>
    <path d="M 40.00 203.22 L 46.46 202.72 L 52.91 202.72 L 59.37 202.61 L 65.83 201.39 L 72.28 200.78 L 78.74 200.78 L 85.20 200.78 L 91.65 200.56 L 98.11 195.74 L 104.57 195.74 L 111.02 195.74 L 117.48 194.44 L 123.94 194.08 L 130.39 191.99 L 136.85 191.99 L 143.31 191.92 L 149.76 189.72 L 156.22 189.69 L 162.68 189.65 L 169.13 189.65 L 175.59 189.65 L 182.05 189.65 L 188.50 189.65 L 194.96 189.47 L 201.42 189.47 L 207.87 189.47 L 214.33 189.47 L 220.79 189.00 L 227.24 189.00 L 233.70 189.08 L 240.16 189.08 L 246.61 187.28 L 253.07 179.86 L 259.53 179.75 L 265.98 179.72 L 272.44 179.72 L 278.90 179.72 L 285.35 179.72 L 291.81 179.72 L 298.27 179.72 L 304.72 179.72 L 311.18 178.35 L 317.64 175.76 L 324.09 168.12 L 330.55 166.07 L 337.01 165.50 L 343.46 165.46 L 349.92 164.88 L 356.38 164.88 L 362.83 164.88 L 369.29 164.88 L 375.75 164.78 L 382.20 164.78 L 388.66 163.84 L 395.12 163.55 L 401.57 161.86 L 408.03 161.86 L 414.49 161.61 L 420.94 161.18 L 427.40 158.37 L 433.86 158.40 L 440.31 158.40 L 446.77 158.40 L 453.23 158.40 L 459.69 158.40 L 466.14 158.26 L 472.60 157.54 L 479.06 157.54 L 485.51 157.54 L 491.97 151.42 L 498.43 151.10 L 504.88 151.06 L 511.34 151.06 L 517.80 150.74 L 524.25 150.74 L 530.71 150.74 L 537.17 150.70 L 543.62 150.66 L 550.08 150.66 L 556.54 153.04 L 562.99 153.18 L 569.45 153.18 L 575.91 153.08 L 582.36 153.11 L 588.82 155.06 L 595.28 155.06 L 601.73 155.88 L 608.19 155.88 L 614.65 155.88 L 621.10 155.88 L 627.56 155.67 L 634.02 155.42 L 640.47 155.42 L 646.93 155.27 L 653.39 155.24 L 659.84 153.44 L 666.30 149.98 L 672.76 147.42 L 679.21 147.42 L 685.67 147.42 L 692.13 147.57 L 698.58 146.85 L 705.04 143.90 L 711.50 137.02 L 717.95 134.61 L 724.41 134.61 L 730.87 134.61 L 737.32 118.62 L 743.78 118.62 L 750.24 118.62 L 756.69 112.65 L 763.15 117.58 L 769.61 117.58 L 776.06 117.58 L 782.52 117.58 L 788.98 117.58 L 795.43 117.58 L 801.89 117.58 L 808.35 117.58 L 814.80 117.58 L 821.26 117.58 L 827.72 117.58 L 834.17 117.58 L 840.63 117.58 L 847.09 117.58 L 853.54 117.58 L 860.00 117.58" fill="none" stroke="#111827" stroke-width="2"/>
    <circle cx="860.00" cy="117.58" r="3" fill="#111827"/>
    <text x="40.00" y="235.00" font-size="9" fill="#111827" text-anchor="middle" transform="rotate(-45 40.00 235.00)">02.08.25</text><text x="117.48" y="235.00" font-size="9" fill="#111827" text-anchor="middle" transform="rotate(-45 117.48 235.00)">09.08.25</text><text x="194.96" y="235.00" font-size="9" fill="#111827" text-anchor="middle" transform="rotate(-45 194.96 235.00)">10.08.25</text><text x="272.44" y="235.00" font-size="9" fill="#111827" text-anchor="middle" transform="rotate(-45 272.44 235.00)">11.08.25</text><text x="349.92" y="235.00" font-size="9" fill="#111827" text-anchor="middle" transform="rotate(-45 349.92 235.00)">13.08.25</text><text x="427.40" y="235.00" font-size="9" fill="#111827" text-anchor="middle" transform="rotate(-45 427.40 235.00)">15.08.25</text><text x="504.88" y="235.00" font-size="9" fill="#111827" text-anchor="middle" transform="rotate(-45 504.88 235.00)">18.08.25</text><text x="582.36" y="235.00" font-size="9" fill="#111827" text-anchor="middle" transform="rotate(-45 582.36 235.00)">19.08.25</text><text x="659.84" y="235.00" font-size="9" fill="#111827" text-anchor="middle" transform="rotate(-45 659.84 235.00)">22.08.25</text><text x="737.32" y="235.00" font-size="9" fill="#111827" text-anchor="middle" transform="rotate(-45 737.32 235.00)">23.08.25</text><text x="814.80" y="235.00" font-size="9" fill="#111827" text-anchor="middle" transform="rotate(-45 814.80 235.00)">05.09.25</text>
  </g>
</svg>