<svg xmlns="http://www.w3.org/2000/svg" width="900" height="290" style="font-family: -apple-system, BlinkMacSystemFont, 'Segoe UI', Helvetica, Arial, sans-serif;">
  <rect width="100%" height="100%" fill="#0d1117"/>
  <g>
    <line x1="40" y1="220.00" x2="860" y2="220.00" stroke="#30363d"/><text x="32" y="224.00" font-size="10" fill="#c9d1d9" text-anchor="end">0</text><line x1="40" y1="175.00" x2="860" y2="175.00" stroke="#30363d"/><text x="32" y="179.00" font-size="10" fill="#c9d1d9" text-anchor="end">1.2k</text><line x1="40" y1="130.00" x2="860" y2="130.00" stroke="#30363d"/><text x="32" y="134.00" font-size="10" fill="#c9d1d9" text-anchor="end">2.5k</text><line x1="40" y1="85.00" x2="860" y2="85.00" stroke="#30363d"/><text x="32" y="89.00" font-size="10" fill="#c9d1d9" text-anchor="end">3.8k</text><line x1="40" y1="40.00" x2="860" y2="40.00" stroke="#30363d"/><text x="32" y="44.00" font-size="10" fill="#c9d1d9" text-anchor="end">5k</text>
    <line x1="40.00" y1="40" x2="40.00" y2="220" stroke="#30363d" opacity="0.5"/><line x1="118.38" y1="40" x2="118.38" y2="220" stroke="#30363d" opacity="0.5"/><line x1="196.76" y1="40" x2="196.76" y2="220" stroke="#30363d" opacity="0.5"/><line x1="275.15" y1="40" x2="275.15" y2="220" stroke="#30363d" opacity="0.5"/><line x1="353.53" y1="40" x2="353.53" y2="220" stroke="#30363d" opacity="0.5"/><line x1="431.91" y1="40" x2="431.91" y2="220" stroke="#30363d" opacity="0.5"/><line x1="510.29" y1="40" x2="510.29" y2="220" stroke="#30363d" opacity="0.5"/><line x1="588.68" y1="40" x2="588.68" y2="220" stroke="#30363d" opacity="0.5"/><line x1="667.06" y1="40" x2="667.06" y2="220" stroke="#30363d" opacity="0.5"/><line x1="745.44" y1="40" x2="745.44" y2="220" stroke="#30363d" opacity="0.5"/><line x1="823.82" y1="40" x2="823.82" y2="220" stroke="#30363d" opacity="0.5"/>
    <line x1="40" y1="220" x2="860" y2="220" stroke="#30363d"/>
    <line x1="40" y1="40"   x2="40"   y2="220" stroke="#30363d"/>
    <path d="M 40.00 203.22 L 46.03 202.72 L 52.06 202.72 L 58.09 202.61 L 64.12 201.39 L 70.15 200.78 L 76.18 200.78 L 82.21 200.78 L 88.24 200.56 L 94.26 195.74 L 100.29 195.74 L 106.32 195.74 L 112.35 194.44 L 118.38 194.08 L 124.41 191.99 L 130.44 191.99 L 136.47 191.92 L 142.50 189.72 L 148.53 189.69 L 154.56 189.65 L 160.59 189.65 L 166.62 189.65 L 172.65 189.65 L 178.68 189.65 L 184.71 189.47 L 190.74 189.47 L 196.76 189.47 L 202.79 189.47 L 208.82 189.00 L 214.85 189.00 L 220.88 189.08 L 226.91 189.08 L 232.94 187.28 L 238.97 179.86 L 245.00 179.75 L 251.03 179.72 L 257.06 179.72 L 263.09 179.72 L 269.12 179.72 L 275.15 179.72 L 281.18 179.72 L 287.21 179.72 L 293.24 178.35 L 299.26 175.76 L 305.29 168.12 L 311.32 166.07 L 317.35 165.50 L 323.38 165.46 L 329.41 164.88 L 335.44 164.88 L 341.47 164.88 L 347.50 164.88 L 353.53 164.78 L 359.56 164.78 L 365.59 163.84 L 371.62 163.55 L 377.65 161.86 L 383.68 161.86 L 389.71 161.61 L 395.74 161.18 L 401.76 158.37 L 407.79 158.40 L 413.82 158.40 L 419.85 158.40 L 425.88 158.40 L 431.91 158.40 L 437.94 158.26 L 443.97 157.54 L 450.00 157.54 L 456.03 157.54 L 462.06 151.42 L 468.09 151.10 L 474.12 151.06 L 480.15 151.06 L 486.18 150.74 L 492.21 150.74 L 498.24 150.74 L 504.26 150.70 L 510.29 150.66 L 516.32 150.66 L 522.35 153.04 L 528.38 153.18 L 534.41 153.18 L 540.44 153.08 L 546.47 153.11 L 552.50 155.06 L 558.53 155.06 L 564.56 155.88 L 570.59 155.88 L 576.62 155.88 L 582.65 155.88 L 588.68 155.67 L 594.71 155.42 L 600.74 155.42 L 606.76 155.27 L 612.79 155.24 L 618.82 153.44 L 624.85 149.98 L 630.88 147.42 L 636.91 147.42 L 642.94 147.42 L 648.97 147.57 L 655.00 146.85 L 661.03 143.90 L 667.06 137.02 L 673.09 134.61 L 679.12 134.61 L 685.15 134.61 L 691.18 118.62 L 697.21 118.62 L 703.24 118.62 L 709.26 112.65 L 715.29 117.58 L 721.32 117.58 L 727.35 117.58 L 733.38 117.58 L 739.41 117.58 L 745.44 117.58 L 751.47 117.58 L 757.50 117.58 L 763.53 117.58 L 769.56 117.58 L 775.59 117.58 L 781.62 117.58 L 787.65 117.58 L 793.68 117.58 L 799.71 117.58 L 805.74 117.58 L 811.76 117.58 L 817.79 117.58 L 823.82 117.58 L 829.85 117.58 L 835.88 117.58 L 841.91 117.58 L 847.94 117.58 L 853.97 117.58 L 860.00 117.58" fill="none" stroke="#3fb950" stroke-width="2"/>
    <circle cx="860.00" cy="117.58" r="3" fill="#3fb950"/>
    <text x="40.00" y="235.00" font-size="9" fill="#c9d1d9" text-anchor="middle" transform="rotate(-45 40.00 235.00)">02.08.25</text><text x="118.38" y="235.00" font-size="9" fill="#c9d1d9" text-anchor="middle" transform="rotate(-45 118.38 235.00)">09.08.25</text><text x="196.76" y="235.00" font-size="9" fill="#c9d1d9" text-anchor="middle" transform="rotate(-45 196.76 235.00)">10.08.25</text><text x="275.15" y="235.00" font-size="9" fill="#c9d1d9" text-anchor="middle" transform="rotate(-45 275.15 235.00)">11.08.25</text><text x="353.53" y="235.00" font-size="9" fill="#c9d1d9" text-anchor="middle" transform="rotate(-45 353.53 235.00)">14.08.25</text><text x="431.91" y="235.00" font-size="9" fill="#c9d1d9" text-anchor="middle" transform="rotate(-45 431.91 235.00)">16.08.25</text><text x="510.29" y="235.00" font-size="9" fill="#c9d1d9" text-anchor="middle" transform="rotate(-45 510.29 235.00)">18.08.25</text><text x="588.68" y="235.00" font-size="9" fill="#c9d1d9" text-anchor="middle" transform="rotate(-45 588.68 235.00)">21.08.25</text><text x="667.06" y="235.00" font-size="9" fill="#c9d1d9" text-anchor="middle" transform="rotate(-45 667.06 235.00)">22.08.25</text><text x="745.44" y="235.00" font-size="9" fill="#c9d1d9" text-anchor="middle" transform="rotate(-45 745.44 235.00)">05.09.25</text><text x="823.82" y="235.00" font-size="9" fill="#c9d1d9" text-anchor="middle" transform="rotate(-45 823.82 235.00)">06.10.25</text>
  </g>
</svg>