<svg xmlns="http://www.w3.org/2000/svg" width="900" height="290" style="font-family: -apple-system, BlinkMacSystemFont, 'Segoe UI', Helvetica, Arial, sans-serif;">
  <rect width="100%" height="100%" fill="#0d1117"/>
  <g>
    <line x1="40" y1="220.00" x2="860" y2="220.00" stroke="#30363d"/><text x="32" y="224.00" font-size="10" fill="#c9d1d9" text-anchor="end">0</text><line x1="40" y1="175.00" x2="860" y2="175.00" stroke="#30363d"/><text x="32" y="179.00" font-size="10" fill="#c9d1d9" text-anchor="end">1.2k</text><line x1="40" y1="130.00" x2="860" y2="130.00" stroke="#30363d"/><text x="32" y="134.00" font-size="10" fill="#c9d1d9" text-anchor="end">2.5k</text><line x1="40" y1="85.00" x2="860" y2="85.00" stroke="#30363d"/><text x="32" y="89.00" font-size="10" fill="#c9d1d9" text-anchor="end">3.8k</text><line x1="40" y1="40.00" x2="860" y2="40.00" stroke="#30363d"/><text x="32" y="44.00" font-size="10" fill="#c9d1d9" text-anchor="end">5k</text>
    <line x1="40.00" y1="40" x2="40.00" y2="220" stroke="#30363d" opacity="0.5"/><line x1="122.52" y1="40" x2="122.52" y2="220" stroke="#30363d" opacity="0.5"/><line x1="205.03" y1="40" x2="205.03" y2="220" stroke="#30363d" opacity="0.5"/><line x1="287.55" y1="40" x2="287.55" y2="220" stroke="#30363d" opacity="0.5"/><line x1="370.06" y1="40" x2="370.06" y2="220" stroke="#30363d" opacity="0.5"/><line x1="452.58" y1="40" x2="452.58" y2="220" stroke="#30363d" opacity="0.5"/><line x1="535.09" y1="40" x2="535.09" y2="220" stroke="#30363d" opacity="0.5"/><line x1="617.61" y1="40" x2="617.61" y2="220" stroke="#30363d" opacity="0.5"/><line x1="700.13" y1="40" x2="700.13" y2="220" stroke="#30363d" opacity="0.5"/><line x1="782.64" y1="40" x2="782.64" y2="220" stroke="#30363d" opacity="0.5"/>
    <line x1="40" y1="220" x2="860" y2="220" stroke="#30363d"/>
    <line x1="40" y1="40"   x2="40"   y2="220" stroke="#30363d"/>
    <path d="M 40.00 203.22 L 45.16 202.72 L 50.31 202.72 L 55.47 202.61 L 60.63 201.39 L 65.79 200.78 L 70.94 200.78 L 76.10 200.78 L 81.26 200.56 L 86.42 195.74 L 91.57 195.74 L 96.73 195.74 L 101.89 194.44 L 107.04 194.08 L 112.20 191.99 L 117.36 191.99 L 122.52 191.92 L 127.67 189.72 L 132.83 189.69 L 137.99 189.65 L 143.14 189.65 L 148.30 189.65 L 153.46 189.65 L 158.62 189.65 L 163.77 189.47 L 168.93 189.47 L 174.09 189.47 L 179.25 189.47 L 184.40 189.00 L 189.56 189.00 L 194.72 189.08 L 199.87 189.08 L 205.03 187.28 L 210.19 179.86 L 215.35 179.75 L 220.50 179.72 L 225.66 179.72 L 230.82 179.72 L 235.97 179.72 L 241.13 179.72 L 246.29 179.72 L 251.45 179.72 L 256.60 178.35 L 261.76 175.76 L 266.92 168.12 L 272.08 166.07 L 277.23 165.50 L 282.39 165.46 L 287.55 164.88 L 292.70 164.88 L 297.86 164.88 L 303.02 164.88 L 308.18 164.78 L 313.33 164.78 L 318.49 163.84 L 323.65 163.55 L 328.81 161.86 L 333.96 161.86 L 339.12 161.61 L 344.28 161.18 L 349.43 158.37 L 354.59 158.40 L 359.75 158.40 L 364.91 158.40 L 370.06 158.40 L 375.22 158.40 L 380.38 158.26 L 385.53 157.54 L 390.69 157.54 L 395.85 157.54 L 401.01 151.42 L 406.16 151.10 L 411.32 151.06 L 416.48 151.06 L 421.64 150.74 L 426.79 150.74 L 431.95 150.74 L 437.11 150.70 L 442.26 150.66 L 447.42 150.66 L 452.58 153.04 L 457.74 153.18 L 462.89 153.18 L 468.05 153.08 L 473.21 153.11 L 478.36 155.06 L 483.52 155.06 L 488.68 155.88 L 493.84 155.88 L 498.99 155.88 L 504.15 155.88 L 509.31 155.67 L 514.47 155.42 L 519.62 155.42 L 524.78 155.27 L 529.94 155.24 L 535.09 153.44 L 540.25 149.98 L 545.41 147.42 L 550.57 147.42 L 555.72 147.42 L 560.88 147.57 L 566.04 146.85 L 571.19 143.90 L 576.35 137.02 L 581.51 134.61 L 586.67 134.61 L 591.82 134.61 L 596.98 118.62 L 602.14 118.62 L 607.30 118.62 L 612.45 112.65 L 617.61 117.58 L 622.77 117.58 L 627.92 117.58 L 633.08 117.58 L 638.24 117.58 L 643.40 117.58 L 648.55 117.58 L 653.71 117.58 L 658.87 117.58 L 664.03 117.58 L 669.18 117.58 L 674.34 117.58 L 679.50 117.58 L 684.65 117.58 L 689.81 117.58 L 694.97 117.58 L 700.13 117.58 L 705.28 117.58 L 710.44 117.58 L 715.60 117.58 L 720.75 117.58 L 725.91 117.58 L 731.07 117.58 L 736.23 117.58 L 741.38 117.58 L 746.54 117.58 L 751.70 117.58 L 756.86 117.58 L 762.01 117.58 L 767.17 117.58 L 772.33 117.58 L 777.48 117.58 L 782.64 117.58 L 787.80 117.58 L 792.96 117.58 L 798.11 117.58 L 803.27 117.58 L 808.43 117.58 L 813.58 117.58 L 818.74 117.58 L 823.90 117.58 L 829.06 117.58 L 834.21 117.58 L 839.37 117.58 L 844.53 117.58 L 849.69 117.58 L 854.84 117.58 L 860.00 117.58" fill="none" stroke="#3fb950" stroke-width="2"/>
    <circle cx="860.00" cy="117.58" r="3" fill="#3fb950"/>
    <text x="40.00" y="235.00" font-size="9" fill="#c9d1d9" text-anchor="middle" transform="rotate(-45 40.00 235.00)">02.08.25</text><text x="122.52" y="235.00" font-size="9" fill="#c9d1d9" text-anchor="middle" transform="rotate(-45 122.52 235.00)">10.08.25</text><text x="205.03" y="235.00" font-size="9" fill="#c9d1d9" text-anchor="middle" transform="rotate(-45 205.03 235.00)">11.08.25</text><text x="287.55" y="235.00" font-size="9" fill="#c9d1d9" text-anchor="middle" transform="rotate(-45 287.55 235.00)">13.08.25</text><text x="370.06" y="235.00" font-size="9" fill="#c9d1d9" text-anchor="middle" transform="rotate(-45 370.06 235.00)">15.08.25</text><text x="452.58" y="235.00" font-size="9" fill="#c9d1d9" text-anchor="middle" transform="rotate(-45 452.58 235.00)">19.08.25</text><text x="535.09" y="235.00" font-size="9" fill="#c9d1d9" text-anchor="middle" transform="rotate(-45 535.09 235.00)">22.08.25</text><text x="617.61" y="235.00" font-size="9" fill="#c9d1d9" text-anchor="middle" transform="rotate(-45 617.61 235.00)">24.08.25</text><text x="700.13" y="235.00" font-size="9" fill="#c9d1d9" text-anchor="middle" transform="rotate(-45 700.13 235.00)">22.09.25</text><text x="782.64" y="235.00" font-size="9" fill="#c9d1d9" text-anchor="middle" transform="rotate(-45 782.64 235.00)">08.12.25</text>
  </g>
</svg>