<svg xmlns="http://www.w3.org/2000/svg" width="900" height="290" style="font-family: -apple-system, BlinkMacSystemFont, 'Segoe UI', Helvetica, Arial, sans-serif;">
  <rect width="100%" height="100%" fill="white"/>
  <g>
    <line x1="40" y1="220.00" x2="860" y2="220.00" stroke="#e5e7eb"/><text x="32" y="224.00" font-size="10" fill="#111827" text-anchor="end">0</text><line x1="40" y1="175.00" x2="860" y2="175.00" stroke="#e5e7eb"/><text x="32" y="179.00" font-size="10" fill="#111827" text-anchor="end">1.2k</text><line x1="40" y1="130.00" x2="860" y2="130.00" stroke="#e5e7eb"/><text x="32" y="134.00" font-size="10" fill="#111827" text-anchor="end">2.5k</text><line x1="40" y1="85.00" x2="860" y2="85.00" stroke="#e5e7eb"/><text x="32" y="89.00" font-size="10" fill="#111827" text-anchor="end">3.8k</text><line x1="40" y1="40.00" x2="860" y2="40.00" stroke="#e5e7eb"/><text x="32" y="44.00" font-size="10" fill="#111827" text-anchor="end">5k</text>
    <line x1="40.00" y1="40" x2="40.00" y2="220" stroke="#e5e7eb" opacity="0.5"/><line x1="120.28" y1="40" x2="120.28" y2="220" stroke="#e5e7eb" opacity="0.5"/><line x1="200.56" y1="40" x2="200.56" y2="220" stroke="#e5e7eb" opacity="0.5"/><line x1="280.84" y1="40" x2="280.84" y2="220" stroke="#e5e7eb" opacity="0.5"/><line x1="361.12" y1="40" x2="361.12" y2="220" stroke="#e5e7eb" opacity="0.5"/><line x1="441.40" y1="40" x2="441.40" y2="220" stroke="#e5e7eb" opacity="0.5"/><line x1="521.68" y1="40" x2="521.68" y2="220" stroke="#e5e7eb" opacity="0.5"/><line x1="601.96" y1="40" x2="601.96" y2="220" stroke="#e5e7eb" opacity="0.5"/><line x1="682.24" y1="40" x2="682.24" y2="220" stroke="#e5e7eb" opacity="0.5"/><line x1="762.52" y1="40" x2="762.52" y2="220" stroke="#e5e7eb" opacity="0.5"/><line x1="842.80" y1="40" x2="842.80" y2="220" stroke="#e5e7eb" opacity="0.5"/>
    <line x1="40" y1="220" x2="860" y2="220" stroke="#9ca3af"/>
    <line x1="40" y1="40"   x2="40"   y2="220" stroke="#9ca3af"/>
    <path d="M 40.00 203.22 L 45.73 202.72 L 51.47 202.72 L 57.20 202.61 L 62.94 201.39 L 68.67 200.78 L 74.41 200.78 L 80.14 200.78 L 85.87 200.56 L 91.61 195.74 L 97.34 195.74 L 103.08 195.74 L 108.81 194.44 L 114.55 194.08 L 120.28 191.99 L 126.01 191.99 L 131.75 191.92 L 137.48 189.72 L 143.22 189.69 L 148.95 189.65 L 154.69 189.65 L 160.42 189.65 L 166.15 189.65 L 171.89 189.65 L 177.62 189.47 L 183.36 189.47 L 189.09 189.47 L 194.83 189.47 L 200.56 189.00 L 206.29 189.00 L 212.03 189.08 L 217.76 189.08 L 223.50 187.28 L 229.23 179.86 L 234.97 179.75 L 240.70 179.72 L 246.43 179.72 L 252.17 179.72 L 257.90 179.72 L 263.64 179.72 L 269.37 179.72 L 275.10 179.72 L 280.84 178.35 L 286.57 175.76 L 292.31 168.12 L 298.04 166.07 L 303.78 165.50 L 309.51 165.46 L 315.24 164.88 L 320.98 164.88 L 326.71 164.88 L 332.45 164.88 L 338.18 164.78 L 343.92 164.78 L 349.65 163.84 L 355.38 163.55 L 361.12 161.86 L 366.85 161.86 L 372.59 161.61 L 378.32 161.18 L 384.06 158.37 L 389.79 158.40 L 395.52 158.40 L 401.26 158.40 L 406.99 158.40 L 412.73 158.40 L 418.46 158.26 L 424.20 157.54 L 429.93 157.54 L 435.66 157.54 L 441.40 151.42 L 447.13 151.10 L 452.87 151.06 L 458.60 151.06 L 464.34 150.74 L 470.07 150.74 L 475.80 150.74 L 481.54 150.70 L 487.27 150.66 L 493.01 150.66 L 498.74 153.04 L 504.48 153.18 L 510.21 153.18 L 515.94 153.08 L 521.68 153.11 L 527.41 155.06 L 533.15 155.06 L 538.88 155.88 L 544.62 155.88 L 550.35 155.88 L 556.08 155.88 L 561.82 155.67 L 567.55 155.42 L 573.29 155.42 L 579.02 155.27 L 584.76 155.24 L 590.49 153.44 L 596.22 149.98 L 601.96 147.42 L 607.69 147.42 L 613.43 147.42 L 619.16 147.57 L 624.90 146.85 L 630.63 143.90 L 636.36 137.02 L 642.10 134.61 L 647.83 134.61 L 653.57 134.61 L 659.30 118.62 L 665.03 118.62 L 670.77 118.62 L 676.50 112.65 L 682.24 117.58 L 687.97 117.58 L 693.71 117.58 L 699.44 117.58 L 705.17 117.58 L 710.91 117.58 L 716.64 117.58 L 722.38 117.58 L 728.11 117.58 L 733.85 117.58 L 739.58 117.58 L 745.31 117.58 L 751.05 117.58 L 756.78 117.58 L 762.52 117.58 L 768.25 117.58 L 773.99 117.58 L 779.72 117.58 L 785.45 117.58 L 791.19 117.58 L 796.92 117.58 L 802.66 117.58 L 808.39 117.58 L 814.13 117.58 L 819.86 117.58 L 825.59 117.58 L 831.33 117.58 L 837.06 117.58 L 842.80 117.58 L 848.53 117.58 L 854.27 117.58 L 860.00 117.58" fill="none" stroke="#111827" stroke-width="2"/>
    <circle cx="860.00" cy="117.58" r="3" fill="#111827"/>
    <text x="40.00" y="235.00" font-size="9" fill="#111827" text-anchor="middle" transform="rotate(-45 40.00 235.00)">02.08.25</text><text x="120.28" y="235.00" font-size="9" fill="#111827" text-anchor="middle" transform="rotate(-45 120.28 235.00)">09.08.25</text><text x="200.56" y="235.00" font-size="9" fill="#111827" text-anchor="middle" transform="rotate(-45 200.56 235.00)">11.08.25</text><text x="280.84" y="235.00" font-size="9" fill="#111827" text-anchor="middle" transform="rotate(-45 280.84 235.00)">13.08.25</text><text x="361.12" y="235.00" font-size="9" fill="#111827" text-anchor="middle" transform="rotate(-45 361.12 235.00)">15.08.25</text><text x="441.40" y="235.00" font-size="9" fill="#111827" text-anchor="middle" transform="rotate(-45 441.40 235.00)">18.08.25</text><text x="521.68" y="235.00" font-size="9" fill="#111827" text-anchor="middle" transform="rotate(-45 521.68 235.00)">19.08.25</text><text x="601.96" y="235.00" font-size="9" fill="#111827" text-anchor="middle" transform="rotate(-45 601.96 235.00)">22.08.25</text><text x="682.24" y="235.00" font-size="9" fill="#111827" text-anchor="middle" transform="rotate(-45 682.24 235.00)">24.08.25</text><text x="762.52" y="235.00" font-size="9" fill="#111827" text-anchor="middle" transform="rotate(-45 762.52 235.00)">14.09.25</text><text x="842.80" y="235.00" font-size="9" fill="#111827" text-anchor="middle" transform="rotate(-45 842.80 235.00)">10.11.25</text>
  </g>
</svg>