<svg xmlns="http://www.w3.org/2000/svg" width="900" height="290" style="font-family: -apple-system, BlinkMacSystemFont, 'Segoe UI', Helvetica, Arial, sans-serif;">
  <rect width="100%" height="100%" fill="#0d1117"/>
  <g>
    <line x1="40" y1="220.00" x2="860" y2="220.00" stroke="#30363d"/><text x="32" y="224.00" font-size="10" fill="#c9d1d9" text-anchor="end">0</text><line x1="40" y1="175.00" x2="860" y2="175.00" stroke="#30363d"/><text x="32" y="179.00" font-size="10" fill="#c9d1d9" text-anchor="end">1.2k</text><line x1="40" y1="130.00" x2="860" y2="130.00" stroke="#30363d"/><text x="32" y="134.00" font-size="10" fill="#c9d1d9" text-anchor="end">2.5k</text><line x1="40" y1="85.00" x2="860" y2="85.00" stroke="#30363d"/><text x="32" y="89.00" font-size="10" fill="#c9d1d9" text-anchor="end">3.8k</text><line x1="40" y1="40.00" x2="860" y2="40.00" stroke="#30363d"/><text x="32" y="44.00" font-size="10" fill="#c9d1d9" text-anchor="end">5k</text>
    <line x1="40.00" y1="40" x2="40.00" y2="220" stroke="#30363d" opacity="0.5"/><line x1="119.72" y1="40" x2="119.72" y2="220" stroke="#30363d" opacity="0.5"/><line x1="199.44" y1="40" x2="199.44" y2="220" stroke="#30363d" opacity="0.5"/><line x1="279.17" y1="40" x2="279.17" y2="220" stroke="#30363d" opacity="0.5"/><line x1="358.89" y1="40" x2="358.89" y2="220" stroke="#30363d" opacity="0.5"/><line x1="438.61" y1="40" x2="438.61" y2="220" stroke="#30363d" opacity="0.5"/><line x1="518.33" y1="40" x2="518.33" y2="220" stroke="#30363d" opacity="0.5"/><line x1="598.06" y1="40" x2="598.06" y2="220" stroke="#30363d" opacity="0.5"/><line x1="677.78" y1="40" x2="677.78" y2="220" stroke="#30363d" opacity="0.5"/><line x1="757.50" y1="40" x2="757.50" y2="220" stroke="#30363d" opacity="0.5"/><line x1="837.22" y1="40" x2="837.22" y2="220" stroke="#30363d" opacity="0.5"/>
    <line x1="40" y1="220" x2="860" y2="220" stroke="#30363d"/>
    <line x1="40" y1="40"   x2="40"   y2="220" stroke="#30363d"/>
    <path d="M 40.00 203.22 L 45.69 202.72 L 51.39 202.72 L 57.08 202.61 L 62.78 201.39 L 68.47 200.78 L 74.17 200.78 L 79.86 200.78 L 85.56 200.56 L 91.25 195.74 L 96.94 195.74 L 102.64 195.74 L 108.33 194.44 L 114.03 194.08 L 119.72 191.99 L 125.42 191.99 L 131.11 191.92 L 136.81 189.72 L 142.50 189.69 L 148.19 189.65 L 153.89 189.65 L 159.58 189.65 L 165.28 189.65 L 170.97 189.65 L 176.67 189.47 L 182.36 189.47 L 188.06 189.47 L 193.75 189.47 L 199.44 189.00 L 205.14 189.00 L 210.83 189.08 L 216.53 189.08 L 222.22 187.28 L 227.92 179.86 L 233.61 179.75 L 239.31 179.72 L 245.00 179.72 L 250.69 179.72 L 256.39 179.72 L 262.08 179.72 L 267.78 179.72 L 273.47 179.72 L 279.17 178.35 L 284.86 175.76 L 290.56 168.12 L 296.25 166.07 L 301.94 165.50 L 307.64 165.46 L 313.33 164.88 L 319.03 164.88 L 324.72 164.88 L 330.42 164.88 L 336.11 164.78 L 341.81 164.78 L 347.50 163.84 L 353.19 163.55 L 358.89 161.86 L 364.58 161.86 L 370.28 161.61 L 375.97 161.18 L 381.67 158.37 L 387.36 158.40 L 393.06 158.40 L 398.75 158.40 L 404.44 158.40 L 410.14 158.40 L 415.83 158.26 L 421.53 157.54 L 427.22 157.54 L 432.92 157.54 L 438.61 151.42 L 444.31 151.10 L 450.00 151.06 L 455.69 151.06 L 461.39 150.74 L 467.08 150.74 L 472.78 150.74 L 478.47 150.70 L 484.17 150.66 L 489.86 150.66 L 495.56 153.04 L 501.25 153.18 L 506.94 153.18 L 512.64 153.08 L 518.33 153.11 L 524.03 155.06 L 529.72 155.06 L 535.42 155.88 L 541.11 155.88 L 546.81 155.88 L 552.50 155.88 L 558.19 155.67 L 563.89 155.42 L 569.58 155.42 L 575.28 155.27 L 580.97 155.24 L 586.67 153.44 L 592.36 149.98 L 598.06 147.42 L 603.75 147.42 L 609.44 147.42 L 615.14 147.57 L 620.83 146.85 L 626.53 143.90 L 632.22 137.02 L 637.92 134.61 L 643.61 134.61 L 649.31 134.61 L 655.00 118.62 L 660.69 118.62 L 666.39 118.62 L 672.08 112.65 L 677.78 117.58 L 683.47 117.58 L 689.17 117.58 L 694.86 117.58 L 700.56 117.58 L 706.25 117.58 L 711.94 117.58 L 717.64 117.58 L 723.33 117.58 L 729.03 117.58 L 734.72 117.58 L 740.42 117.58 L 746.11 117.58 L 751.81 117.58 L 757.50 117.58 L 763.19 117.58 L 768.89 117.58 L 774.58 117.58 L 780.28 117.58 L 785.97 117.58 L 791.67 117.58 L 797.36 117.58 L 803.06 117.58 L 808.75 117.58 L 814.44 117.58 L 820.14 117.58 L 825.83 117.58 L 831.53 117.58 L 837.22 117.58 L 842.92 117.58 L 848.61 117.58 L 854.31 117.58 L 860.00 117.58" fill="none" stroke="#3fb950" stroke-width="2"/>
    <circle cx="860.00" cy="117.58" r="3" fill="#3fb950"/>
    <text x="40.00" y="235.00" font-size="9" fill="#c9d1d9" text-anchor="middle" transform="rotate(-45 40.00 235.00)">02.08.25</text><text x="119.72" y="235.00" font-size="9" fill="#c9d1d9" text-anchor="middle" transform="rotate(-45 119.72 235.00)">09.08.25</text><text x="199.44" y="235.00" font-size="9" fill="#c9d1d9" text-anchor="middle" transform="rotate(-45 199.44 235.00)">11.08.25</text><text x="279.17" y="235.00" font-size="9" fill="#c9d1d9" text-anchor="middle" transform="rotate(-45 279.17 235.00)">13.08.25</text><text x="358.89" y="235.00" font-size="9" fill="#c9d1d9" text-anchor="middle" transform="rotate(-45 358.89 235.00)">15.08.25</text><text x="438.61" y="235.00" font-size="9" fill="#c9d1d9" text-anchor="middle" transform="rotate(-45 438.61 235.00)">18.08.25</text><text x="518.33" y="235.00" font-size="9" fill="#c9d1d9" text-anchor="middle" transform="rotate(-45 518.33 235.00)">19.08.25</text><text x="598.06" y="235.00" font-size="9" fill="#c9d1d9" text-anchor="middle" transform="rotate(-45 598.06 235.00)">22.08.25</text><text x="677.78" y="235.00" font-size="9" fill="#c9d1d9" text-anchor="middle" transform="rotate(-45 677.78 235.00)">24.08.25</text><text x="757.50" y="235.00" font-size="9" fill="#c9d1d9" text-anchor="middle" transform="rotate(-45 757.50 235.00)">14.09.25</text><text x="837.22" y="235.00" font-size="9" fill="#c9d1d9" text-anchor="middle" transform="rotate(-45 837.22 235.00)">10.11.25</text>
  </g>
</svg>