<svg xmlns="http://www.w3.org/2000/svg" width="900" height="290" style="font-family: -apple-system, BlinkMacSystemFont, 'Segoe UI', Helvetica, Arial, sans-serif;">
  <rect width="100%" height="100%" fill="#0d1117"/>
  <g>
    <line x1="40" y1="220.00" x2="860" y2="220.00" stroke="#30363d"/><text x="32" y="224.00" font-size="10" fill="#c9d1d9" text-anchor="end">0</text><line x1="40" y1="175.00" x2="860" y2="175.00" stroke="#30363d"/><text x="32" y="179.00" font-size="10" fill="#c9d1d9" text-anchor="end">1.2k</text><line x1="40" y1="130.00" x2="860" y2="130.00" stroke="#30363d"/><text x="32" y="134.00" font-size="10" fill="#c9d1d9" text-anchor="end">2.5k</text><line x1="40" y1="85.00" x2="860" y2="85.00" stroke="#30363d"/><text x="32" y="89.00" font-size="10" fill="#c9d1d9" text-anchor="end">3.8k</text><line x1="40" y1="40.00" x2="860" y2="40.00" stroke="#30363d"/><text x="32" y="44.00" font-size="10" fill="#c9d1d9" text-anchor="end">5k</text>
    <line x1="40.00" y1="40" x2="40.00" y2="220" stroke="#30363d" opacity="0.5"/><line x1="119.12" y1="40" x2="119.12" y2="220" stroke="#30363d" opacity="0.5"/><line x1="198.25" y1="40" x2="198.25" y2="220" stroke="#30363d" opacity="0.5"/><line x1="277.37" y1="40" x2="277.37" y2="220" stroke="#30363d" opacity="0.5"/><line x1="356.49" y1="40" x2="356.49" y2="220" stroke="#30363d" opacity="0.5"/><line x1="435.61" y1="40" x2="435.61" y2="220" stroke="#30363d" opacity="0.5"/><line x1="514.74" y1="40" x2="514.74" y2="220" stroke="#30363d" opacity="0.5"/><line x1="593.86" y1="40" x2="593.86" y2="220" stroke="#30363d" opacity="0.5"/><line x1="672.98" y1="40" x2="672.98" y2="220" stroke="#30363d" opacity="0.5"/><line x1="752.11" y1="40" x2="752.11" y2="220" stroke="#30363d" opacity="0.5"/><line x1="831.23" y1="40" x2="831.23" y2="220" stroke="#30363d" opacity="0.5"/>
    <line x1="40" y1="220" x2="860" y2="220" stroke="#30363d"/>
    <line x1="40" y1="40"   x2="40"   y2="220" stroke="#30363d"/>
    <path d="M 40.00 203.22 L 47.19 202.72 L 54.39 202.72 L 61.58 202.61 L 68.77 201.39 L 75.96 200.78 L 83.16 200.78 L 90.35 200.78 L 97.54 200.56 L 104.74 195.74 L 111.93 195.74 L 119.12 195.74 L 126.32 194.44 L 133.51 194.08 L 140.70 191.99 L 147.89 191.99 L 155.09 191.92 L 162.28 189.72 L 169.47 189.69 L 176.67 189.65 L 183.86 189.65 L 191.05 189.65 L 198.25 189.65 L 205.44 189.65 L 212.63 189.47 L 219.82 189.47 L 227.02 189.47 L 234.21 189.47 L 241.40 189.00 L 248.60 189.00 L 255.79 189.08 L 262.98 189.08 L 270.18 187.28 L 277.37 179.86 L 284.56 179.75 L 291.75 179.72 L 298.95 179.72 L 306.14 179.72 L 313.33 179.72 L 320.53 179.72 L 327.72 179.72 L 334.91 179.72 L 342.11 178.35 L 349.30 175.76 L 356.49 168.12 L 363.68 166.07 L 370.88 165.50 L 378.07 165.46 L 385.26 164.88 L 392.46 164.88 L 399.65 164.88 L 406.84 164.88 L 414.04 164.78 L 421.23 164.78 L 428.42 163.84 L 435.61 163.55 L 442.81 161.86 L 450.00 161.86 L 457.19 161.61 L 464.39 161.18 L 471.58 158.37 L 478.77 158.40 L 485.96 158.40 L 493.16 158.40 L 500.35 158.40 L 507.54 158.40 L 514.74 158.26 L 521.93 157.54 L 529.12 157.54 L 536.32 157.54 L 543.51 151.42 L 550.70 151.10 L 557.89 151.06 L 565.09 151.06 L 572.28 150.74 L 579.47 150.74 L 586.67 150.74 L 593.86 150.70 L 601.05 150.66 L 608.25 150.66 L 615.44 153.04 L 622.63 153.18 L 629.82 153.18 L 637.02 153.08 L 644.21 153.11 L 651.40 155.06 L 658.60 155.06 L 665.79 155.88 L 672.98 155.88 L 680.18 155.88 L 687.37 155.88 L 694.56 155.67 L 701.75 155.42 L 708.95 155.42 L 716.14 155.27 L 723.33 155.24 L 730.53 153.44 L 737.72 149.98 L 744.91 147.42 L 752.11 147.42 L 759.30 147.42 L 766.49 147.57 L 773.68 146.85 L 780.88 143.90 L 788.07 137.02 L 795.26 134.61 L 802.46 134.61 L 809.65 134.61 L 816.84 118.62 L 824.04 118.62 L 831.23 118.62 L 838.42 112.65 L 845.61 117.58 L 852.81 117.58 L 860.00 117.58" fill="none" stroke="#3fb950" stroke-width="2"/>
    <circle cx="860.00" cy="117.58" r="3" fill="#3fb950"/>
    <text x="40.00" y="235.00" font-size="9" fill="#c9d1d9" text-anchor="middle" transform="rotate(-45 40.00 235.00)">02.08.25</text><text x="119.12" y="235.00" font-size="9" fill="#c9d1d9" text-anchor="middle" transform="rotate(-45 119.12 235.00)">03.08.25</text><text x="198.25" y="235.00" font-size="9" fill="#c9d1d9" text-anchor="middle" transform="rotate(-45 198.25 235.00)">10.08.25</text><text x="277.37" y="235.00" font-size="9" fill="#c9d1d9" text-anchor="middle" transform="rotate(-45 277.37 235.00)">11.08.25</text><text x="356.49" y="235.00" font-size="9" fill="#c9d1d9" text-anchor="middle" transform="rotate(-45 356.49 235.00)">13.08.25</text><text x="435.61" y="235.00" font-size="9" fill="#c9d1d9" text-anchor="middle" transform="rotate(-45 435.61 235.00)">15.08.25</text><text x="514.74" y="235.00" font-size="9" fill="#c9d1d9" text-anchor="middle" transform="rotate(-45 514.74 235.00)">16.08.25</text><text x="593.86" y="235.00" font-size="9" fill="#c9d1d9" text-anchor="middle" transform="rotate(-45 593.86 235.00)">18.08.25</text><text x="672.98" y="235.00" font-size="9" fill="#c9d1d9" text-anchor="middle" transform="rotate(-45 672.98 235.00)">20.08.25</text><text x="752.11" y="235.00" font-size="9" fill="#c9d1d9" text-anchor="middle" transform="rotate(-45 752.11 235.00)">22.08.25</text><text x="831.23" y="235.00" font-size="9" fill="#c9d1d9" text-anchor="middle" transform="rotate(-45 831.23 235.00)">23.08.25</text>
  </g>
</svg>