<svg xmlns="http://www.w3.org/2000/svg" width="900" height="290" style="font-family: -apple-system, BlinkMacSystemFont, 'Segoe UI', Helvetica, Arial, sans-serif;">
  <rect width="100%" height="100%" fill="white"/>
  <g>
    <line x1="40" y1="220.00" x2="860" y2="220.00" stroke="#e5e7eb"/><text x="32" y="224.00" font-size="10" fill="#111827" text-anchor="end">0</text><line x1="40" y1="175.00" x2="860" y2="175.00" stroke="#e5e7eb"/><text x="32" y="179.00" font-size="10" fill="#111827" text-anchor="end">1.2k</text><line x1="40" y1="130.00" x2="860" y2="130.00" stroke="#e5e7eb"/><text x="32" y="134.00" font-size="10" fill="#111827" text-anchor="end">2.5k</text><line x1="40" y1="85.00" x2="860" y2="85.00" stroke="#e5e7eb"/><text x="32" y="89.00" font-size="10" fill="#111827" text-anchor="end">3.8k</text><line x1="40" y1="40.00" x2="860" y2="40.00" stroke="#e5e7eb"/><text x="32" y="44.00" font-size="10" fill="#111827" text-anchor="end">5k</text>
    <line x1="40.00" y1="40" x2="40.00" y2="220" stroke="#e5e7eb" opacity="0.5"/><line x1="122.00" y1="40" x2="122.00" y2="220" stroke="#e5e7eb" opacity="0.5"/><line x1="204.00" y1="40" x2="204.00" y2="220" stroke="#e5e7eb" opacity="0.5"/><line x1="286.00" y1="40" x2="286.00" y2="220" stroke="#e5e7eb" opacity="0.5"/><line x1="368.00" y1="40" x2="368.00" y2="220" stroke="#e5e7eb" opacity="0.5"/><line x1="450.00" y1="40" x2="450.00" y2="220" stroke="#e5e7eb" opacity="0.5"/><line x1="532.00" y1="40" x2="532.00" y2="220" stroke="#e5e7eb" opacity="0.5"/><line x1="614.00" y1="40" x2="614.00" y2="220" stroke="#e5e7eb" opacity="0.5"/><line x1="696.00" y1="40" x2="696.00" y2="220" stroke="#e5e7eb" opacity="0.5"/><line x1="778.00" y1="40" x2="778.00" y2="220" stroke="#e5e7eb" opacity="0.5"/><line x1="860.00" y1="40" x2="860.00" y2="220" stroke="#e5e7eb" opacity="0.5"/>
    <line x1="40" y1="220" x2="860" y2="220" stroke="#9ca3af"/>
    <line x1="40" y1="40"   x2="40"   y2="220" stroke="#9ca3af"/>
    <path d="M 40.00 203.22 L 45.47 202.72 L 50.93 202.72 L 56.40 202.61 L 61.87 201.39 L 67.33 200.78 L 72.80 200.78 L 78.27 200.78 L 83.73 200.56 L 89.20 195.74 L 94.67 195.74 L 100.13 195.74 L 105.60 194.44 L 111.07 194.08 L 116.53 191.99 L 122.00 191.99 L 127.47 191.92 L 132.93 189.72 L 138.40 189.69 L 143.87 189.65 L 149.33 189.65 L 154.80 189.65 L 160.27 189.65 L 165.73 189.65 L 171.20 189.47 L 176.67 189.47 L 182.13 189.47 L 187.60 189.47 L 193.07 189.00 L 198.53 189.00 L 204.00 189.08 L 209.47 189.08 L 214.93 187.28 L 220.40 179.86 L 225.87 179.75 L 231.33 179.72 L 236.80 179.72 L 242.27 179.72 L 247.73 179.72 L 253.20 179.72 L 258.67 179.72 L 264.13 179.72 L 269.60 178.35 L 275.07 175.76 L 280.53 168.12 L 286.00 166.07 L 291.47 165.50 L 296.93 165.46 L 302.40 164.88 L 307.87 164.88 L 313.33 164.88 L 318.80 164.88 L 324.27 164.78 L 329.73 164.78 L 335.20 163.84 L 340.67 163.55 L 346.13 161.86 L 351.60 161.86 L 357.07 161.61 L 362.53 161.18 L 368.00 158.37 L 373.47 158.40 L 378.93 158.40 L 384.40 158.40 L 389.87 158.40 L 395.33 158.40 L 400.80 158.26 L 406.27 157.54 L 411.73 157.54 L 417.20 157.54 L 422.67 151.42 L 428.13 151.10 L 433.60 151.06 L 439.07 151.06 L 444.53 150.74 L 450.00 150.74 L 455.47 150.74 L 460.93 150.70 L 466.40 150.66 L 471.87 150.66 L 477.33 153.04 L 482.80 153.18 L 488.27 153.18 L 493.73 153.08 L 499.20 153.11 L 504.67 155.06 L 510.13 155.06 L 515.60 155.88 L 521.07 155.88 L 526.53 155.88 L 532.00 155.88 L 537.47 155.67 L 542.93 155.42 L 548.40 155.42 L 553.87 155.27 L 559.33 155.24 L 564.80 153.44 L 570.27 149.98 L 575.73 147.42 L 581.20 147.42 L 586.67 147.42 L 592.13 147.57 L 597.60 146.85 L 603.07 143.90 L 608.53 137.02 L 614.00 134.61 L 619.47 134.61 L 624.93 134.61 L 630.40 118.62 L 635.87 118.62 L 641.33 118.62 L 646.80 112.65 L 652.27 117.58 L 657.73 117.58 L 663.20 117.58 L 668.67 117.58 L 674.13 117.58 L 679.60 117.58 L 685.07 117.58 L 690.53 117.58 L 696.00 117.58 L 701.47 117.58 L 706.93 117.58 L 712.40 117.58 L 717.87 117.58 L 723.33 117.58 L 728.80 117.58 L 734.27 117.58 L 739.73 117.58 L 745.20 117.58 L 750.67 117.58 L 756.13 117.58 L 761.60 117.58 L 767.07 117.58 L 772.53 117.58 L 778.00 117.58 L 783.47 117.58 L 788.93 117.58 L 794.40 117.58 L 799.87 117.58 L 805.33 117.58 L 810.80 117.58 L 816.27 117.58 L 821.73 117.58 L 827.20 117.58 L 832.67 117.58 L 838.13 117.58 L 843.60 117.58 L 849.07 117.58 L 854.53 117.58 L 860.00 117.58" fill="none" stroke="#111827" stroke-width="2"/>
    <circle cx="860.00" cy="117.58" r="3" fill="#111827"/>
    <text x="40.00" y="235.00" font-size="9" fill="#111827" text-anchor="middle" transform="rotate(-45 40.00 235.00)">02.08.25</text><text x="122.00" y="235.00" font-size="9" fill="#111827" text-anchor="middle" transform="rotate(-45 122.00 235.00)">09.08.25</text><text x="204.00" y="235.00" font-size="9" fill="#111827" text-anchor="middle" transform="rotate(-45 204.00 235.00)">11.08.25</text><text x="286.00" y="235.00" font-size="9" fill="#111827" text-anchor="middle" transform="rotate(-45 286.00 235.00)">13.08.25</text><text x="368.00" y="235.00" font-size="9" fill="#111827" text-anchor="middle" transform="rotate(-45 368.00 235.00)">15.08.25</text><text x="450.00" y="235.00" font-size="9" fill="#111827" text-anchor="middle" transform="rotate(-45 450.00 235.00)">18.08.25</text><text x="532.00" y="235.00" font-size="9" fill="#111827" text-anchor="middle" transform="rotate(-45 532.00 235.00)">20.08.25</text><text x="614.00" y="235.00" font-size="9" fill="#111827" text-anchor="middle" transform="rotate(-45 614.00 235.00)">23.08.25</text><text x="696.00" y="235.00" font-size="9" fill="#111827" text-anchor="middle" transform="rotate(-45 696.00 235.00)">05.09.25</text><text x="778.00" y="235.00" font-size="9" fill="#111827" text-anchor="middle" transform="rotate(-45 778.00 235.00)">20.10.25</text><text x="860.00" y="235.00" font-size="9" fill="#111827" text-anchor="middle" transform="rotate(-45 860.00 235.00)">19.01.26</text>
  </g>
</svg>