<svg xmlns="http://www.w3.org/2000/svg" width="900" height="290" style="font-family: -apple-system, BlinkMacSystemFont, 'Segoe UI', Helvetica, Arial, sans-serif;">
  <rect width="100%" height="100%" fill="#0d1117"/>
  <g>
    <line x1="40" y1="220.00" x2="860" y2="220.00" stroke="#30363d"/><text x="32" y="224.00" font-size="10" fill="#c9d1d9" text-anchor="end">0</text><line x1="40" y1="175.00" x2="860" y2="175.00" stroke="#30363d"/><text x="32" y="179.00" font-size="10" fill="#c9d1d9" text-anchor="end">1.2k</text><line x1="40" y1="130.00" x2="860" y2="130.00" stroke="#30363d"/><text x="32" y="134.00" font-size="10" fill="#c9d1d9" text-anchor="end">2.5k</text><line x1="40" y1="85.00" x2="860" y2="85.00" stroke="#30363d"/><text x="32" y="89.00" font-size="10" fill="#c9d1d9" text-anchor="end">3.8k</text><line x1="40" y1="40.00" x2="860" y2="40.00" stroke="#30363d"/><text x="32" y="44.00" font-size="10" fill="#c9d1d9" text-anchor="end">5k</text>
    <line x1="40.00" y1="40" x2="40.00" y2="220" stroke="#30363d" opacity="0.5"/><line x1="122.55" y1="40" x2="122.55" y2="220" stroke="#30363d" opacity="0.5"/><line x1="205.10" y1="40" x2="205.10" y2="220" stroke="#30363d" opacity="0.5"/><line x1="287.65" y1="40" x2="287.65" y2="220" stroke="#30363d" opacity="0.5"/><line x1="370.20" y1="40" x2="370.20" y2="220" stroke="#30363d" opacity="0.5"/><line x1="452.75" y1="40" x2="452.75" y2="220" stroke="#30363d" opacity="0.5"/><line x1="535.30" y1="40" x2="535.30" y2="220" stroke="#30363d" opacity="0.5"/><line x1="617.85" y1="40" x2="617.85" y2="220" stroke="#30363d" opacity="0.5"/><line x1="700.40" y1="40" x2="700.40" y2="220" stroke="#30363d" opacity="0.5"/><line x1="782.95" y1="40" x2="782.95" y2="220" stroke="#30363d" opacity="0.5"/>
    <line x1="40" y1="220" x2="860" y2="220" stroke="#30363d"/>
    <line x1="40" y1="40"   x2="40"   y2="220" stroke="#30363d"/>
    <path d="M 40.00 203.22 L 45.50 202.72 L 51.01 202.72 L 56.51 202.61 L 62.01 201.39 L 67.52 200.78 L 73.02 200.78 L 78.52 200.78 L 84.03 200.56 L 89.53 195.74 L 95.03 195.74 L 100.54 195.74 L 106.04 194.44 L 111.54 194.08 L 117.05 191.99 L 122.55 191.99 L 128.05 191.92 L 133.56 189.72 L 139.06 189.69 L 144.56 189.65 L 150.07 189.65 L 155.57 189.65 L 161.07 189.65 L 166.58 189.65 L 172.08 189.47 L 177.58 189.47 L 183.09 189.47 L 188.59 189.47 L 194.09 189.00 L 199.60 189.00 L 205.10 189.08 L 210.60 189.08 L 216.11 187.28 L 221.61 179.86 L 227.11 179.75 L 232.62 179.72 L 238.12 179.72 L 243.62 179.72 L 249.13 179.72 L 254.63 179.72 L 260.13 179.72 L 265.64 179.72 L 271.14 178.35 L 276.64 175.76 L 282.15 168.12 L 287.65 166.07 L 293.15 165.50 L 298.66 165.46 L 304.16 164.88 L 309.66 164.88 L 315.17 164.88 L 320.67 164.88 L 326.17 164.78 L 331.68 164.78 L 337.18 163.84 L 342.68 163.55 L 348.19 161.86 L 353.69 161.86 L 359.19 161.61 L 364.70 161.18 L 370.20 158.37 L 375.70 158.40 L 381.21 158.40 L 386.71 158.40 L 392.21 158.40 L 397.72 158.40 L 403.22 158.26 L 408.72 157.54 L 414.23 157.54 L 419.73 157.54 L 425.23 151.42 L 430.74 151.10 L 436.24 151.06 L 441.74 151.06 L 447.25 150.74 L 452.75 150.74 L 458.26 150.74 L 463.76 150.70 L 469.26 150.66 L 474.77 150.66 L 480.27 153.04 L 485.77 153.18 L 491.28 153.18 L 496.78 153.08 L 502.28 153.11 L 507.79 155.06 L 513.29 155.06 L 518.79 155.88 L 524.30 155.88 L 529.80 155.88 L 535.30 155.88 L 540.81 155.67 L 546.31 155.42 L 551.81 155.42 L 557.32 155.27 L 562.82 155.24 L 568.32 153.44 L 573.83 149.98 L 579.33 147.42 L 584.83 147.42 L 590.34 147.42 L 595.84 147.57 L 601.34 146.85 L 606.85 143.90 L 612.35 137.02 L 617.85 134.61 L 623.36 134.61 L 628.86 134.61 L 634.36 118.62 L 639.87 118.62 L 645.37 118.62 L 650.87 112.65 L 656.38 117.58 L 661.88 117.58 L 667.38 117.58 L 672.89 117.58 L 678.39 117.58 L 683.89 117.58 L 689.40 117.58 L 694.90 117.58 L 700.40 117.58 L 705.91 117.58 L 711.41 117.58 L 716.91 117.58 L 722.42 117.58 L 727.92 117.58 L 733.42 117.58 L 738.93 117.58 L 744.43 117.58 L 749.93 117.58 L 755.44 117.58 L 760.94 117.58 L 766.44 117.58 L 771.95 117.58 L 777.45 117.58 L 782.95 117.58 L 788.46 117.58 L 793.96 117.58 L 799.46 117.58 L 804.97 117.58 L 810.47 117.58 L 815.97 117.58 L 821.48 117.58 L 826.98 117.58 L 832.48 117.58 L 837.99 117.58 L 843.49 117.58 L 848.99 117.58 L 854.50 117.58 L 860.00 117.58" fill="none" stroke="#3fb950" stroke-width="2"/>
    <circle cx="860.00" cy="117.58" r="3" fill="#3fb950"/>
    <text x="40.00" y="235.00" font-size="9" fill="#c9d1d9" text-anchor="middle" transform="rotate(-45 40.00 235.00)">02.08.25</text><text x="122.55" y="235.00" font-size="9" fill="#c9d1d9" text-anchor="middle" transform="rotate(-45 122.55 235.00)">09.08.25</text><text x="205.10" y="235.00" font-size="9" fill="#c9d1d9" text-anchor="middle" transform="rotate(-45 205.10 235.00)">11.08.25</text><text x="287.65" y="235.00" font-size="9" fill="#c9d1d9" text-anchor="middle" transform="rotate(-45 287.65 235.00)">13.08.25</text><text x="370.20" y="235.00" font-size="9" fill="#c9d1d9" text-anchor="middle" transform="rotate(-45 370.20 235.00)">15.08.25</text><text x="452.75" y="235.00" font-size="9" fill="#c9d1d9" text-anchor="middle" transform="rotate(-45 452.75 235.00)">18.08.25</text><text x="535.30" y="235.00" font-size="9" fill="#c9d1d9" text-anchor="middle" transform="rotate(-45 535.30 235.00)">20.08.25</text><text x="617.85" y="235.00" font-size="9" fill="#c9d1d9" text-anchor="middle" transform="rotate(-45 617.85 235.00)">23.08.25</text><text x="700.40" y="235.00" font-size="9" fill="#c9d1d9" text-anchor="middle" transform="rotate(-45 700.40 235.00)">05.09.25</text><text x="782.95" y="235.00" font-size="9" fill="#c9d1d9" text-anchor="middle" transform="rotate(-45 782.95 235.00)">20.10.25</text>
  </g>
</svg>