<svg xmlns="http://www.w3.org/2000/svg" width="900" height="290" style="font-family: -apple-system, BlinkMacSystemFont, 'Segoe UI', Helvetica, Arial, sans-serif;">
  <rect width="100%" height="100%" fill="white"/>
  <g>
    <line x1="40" y1="220.00" x2="860" y2="220.00" stroke="#e5e7eb"/><text x="32" y="224.00" font-size="10" fill="#111827" text-anchor="end">0</text><line x1="40" y1="175.00" x2="860" y2="175.00" stroke="#e5e7eb"/><text x="32" y="179.00" font-size="10" fill="#111827" text-anchor="end">1.2k</text><line x1="40" y1="130.00" x2="860" y2="130.00" stroke="#e5e7eb"/><text x="32" y="134.00" font-size="10" fill="#111827" text-anchor="end">2.5k</text><line x1="40" y1="85.00" x2="860" y2="85.00" stroke="#e5e7eb"/><text x="32" y="89.00" font-size="10" fill="#111827" text-anchor="end">3.8k</text><line x1="40" y1="40.00" x2="860" y2="40.00" stroke="#e5e7eb"/><text x="32" y="44.00" font-size="10" fill="#111827" text-anchor="end">5k</text>
    <line x1="40.00" y1="40" x2="40.00" y2="220" stroke="#e5e7eb" opacity="0.5"/><line x1="118.63" y1="40" x2="118.63" y2="220" stroke="#e5e7eb" opacity="0.5"/><line x1="197.26" y1="40" x2="197.26" y2="220" stroke="#e5e7eb" opacity="0.5"/><line x1="275.89" y1="40" x2="275.89" y2="220" stroke="#e5e7eb" opacity="0.5"/><line x1="354.52" y1="40" x2="354.52" y2="220" stroke="#e5e7eb" opacity="0.5"/><line x1="433.15" y1="40" x2="433.15" y2="220" stroke="#e5e7eb" opacity="0.5"/><line x1="511.78" y1="40" x2="511.78" y2="220" stroke="#e5e7eb" opacity="0.5"/><line x1="590.41" y1="40" x2="590.41" y2="220" stroke="#e5e7eb" opacity="0.5"/><line x1="669.04" y1="40" x2="669.04" y2="220" stroke="#e5e7eb" opacity="0.5"/><line x1="747.67" y1="40" x2="747.67" y2="220" stroke="#e5e7eb" opacity="0.5"/><line x1="826.30" y1="40" x2="826.30" y2="220" stroke="#e5e7eb" opacity="0.5"/>
    <line x1="40" y1="220" x2="860" y2="220" stroke="#9ca3af"/>
    <line x1="40" y1="40"   x2="40"   y2="220" stroke="#9ca3af"/>
    <path d="M 40.00 203.22 L 45.62 202.72 L 51.23 202.72 L 56.85 202.61 L 62.47 201.39 L 68.08 200.78 L 73.70 200.78 L 79.32 200.78 L 84.93 200.56 L 90.55 195.74 L 96.16 195.74 L 101.78 195.74 L 107.40 194.44 L 113.01 194.08 L 118.63 191.99 L 124.25 191.99 L 129.86 191.92 L 135.48 189.72 L 141.10 189.69 L 146.71 189.65 L 152.33 189.65 L 157.95 189.65 L 163.56 189.65 L 169.18 189.65 L 174.79 189.47 L 180.41 189.47 L 186.03 189.47 L 191.64 189.47 L 197.26 189.00 L 202.88 189.00 L 208.49 189.08 L 214.11 189.08 L 219.73 187.28 L 225.34 179.86 L 230.96 179.75 L 236.58 179.72 L 242.19 179.72 L 247.81 179.72 L 253.42 179.72 L 259.04 179.72 L 264.66 179.72 L 270.27 179.72 L 275.89 178.35 L 281.51 175.76 L 287.12 168.12 L 292.74 166.07 L 298.36 165.50 L 303.97 165.46 L 309.59 164.88 L 315.21 164.88 L 320.82 164.88 L 326.44 164.88 L 332.05 164.78 L 337.67 164.78 L 343.29 163.84 L 348.90 163.55 L 354.52 161.86 L 360.14 161.86 L 365.75 161.61 L 371.37 161.18 L 376.99 158.37 L 382.60 158.40 L 388.22 158.40 L 393.84 158.40 L 399.45 158.40 L 405.07 158.40 L 410.68 158.26 L 416.30 157.54 L 421.92 157.54 L 427.53 157.54 L 433.15 151.42 L 438.77 151.10 L 444.38 151.06 L 450.00 151.06 L 455.62 150.74 L 461.23 150.74 L 466.85 150.74 L 472.47 150.70 L 478.08 150.66 L 483.70 150.66 L 489.32 153.04 L 494.93 153.18 L 500.55 153.18 L 506.16 153.08 L 511.78 153.11 L 517.40 155.06 L 523.01 155.06 L 528.63 155.88 L 534.25 155.88 L 539.86 155.88 L 545.48 155.88 L 551.10 155.67 L 556.71 155.42 L 562.33 155.42 L 567.95 155.27 L 573.56 155.24 L 579.18 153.44 L 584.79 149.98 L 590.41 147.42 L 596.03 147.42 L 601.64 147.42 L 607.26 147.57 L 612.88 146.85 L 618.49 143.90 L 624.11 137.02 L 629.73 134.61 L 635.34 134.61 L 640.96 134.61 L 646.58 118.62 L 652.19 118.62 L 657.81 118.62 L 663.42 112.65 L 669.04 117.58 L 674.66 117.58 L 680.27 117.58 L 685.89 117.58 L 691.51 117.58 L 697.12 117.58 L 702.74 117.58 L 708.36 117.58 L 713.97 117.58 L 719.59 117.58 L 725.21 117.58 L 730.82 117.58 L 736.44 117.58 L 742.05 117.58 L 747.67 117.58 L 753.29 117.58 L 758.90 117.58 L 764.52 117.58 L 770.14 117.58 L 775.75 117.58 L 781.37 117.58 L 786.99 117.58 L 792.60 117.58 L 798.22 117.58 L 803.84 117.58 L 809.45 117.58 L 815.07 117.58 L 820.68 117.58 L 826.30 117.58 L 831.92 117.58 L 837.53 117.58 L 843.15 117.58 L 848.77 117.58 L 854.38 117.58 L 860.00 117.58" fill="none" stroke="#111827" stroke-width="2"/>
    <circle cx="860.00" cy="117.58" r="3" fill="#111827"/>
    <text x="40.00" y="235.00" font-size="9" fill="#111827" text-anchor="middle" transform="rotate(-45 40.00 235.00)">02.08.25</text><text x="118.63" y="235.00" font-size="9" fill="#111827" text-anchor="middle" transform="rotate(-45 118.63 235.00)">09.08.25</text><text x="197.26" y="235.00" font-size="9" fill="#111827" text-anchor="middle" transform="rotate(-45 197.26 235.00)">11.08.25</text><text x="275.89" y="235.00" font-size="9" fill="#111827" text-anchor="middle" transform="rotate(-45 275.89 235.00)">13.08.25</text><text x="354.52" y="235.00" font-size="9" fill="#111827" text-anchor="middle" transform="rotate(-45 354.52 235.00)">15.08.25</text><text x="433.15" y="235.00" font-size="9" fill="#111827" text-anchor="middle" transform="rotate(-45 433.15 235.00)">18.08.25</text><text x="511.78" y="235.00" font-size="9" fill="#111827" text-anchor="middle" transform="rotate(-45 511.78 235.00)">19.08.25</text><text x="590.41" y="235.00" font-size="9" fill="#111827" text-anchor="middle" transform="rotate(-45 590.41 235.00)">22.08.25</text><text x="669.04" y="235.00" font-size="9" fill="#111827" text-anchor="middle" transform="rotate(-45 669.04 235.00)">24.08.25</text><text x="747.67" y="235.00" font-size="9" fill="#111827" text-anchor="middle" transform="rotate(-45 747.67 235.00)">14.09.25</text><text x="826.30" y="235.00" font-size="9" fill="#111827" text-anchor="middle" transform="rotate(-45 826.30 235.00)">10.11.25</text>
  </g>
</svg>