<svg xmlns="http://www.w3.org/2000/svg" width="900" height="290" style="font-family: -apple-system, BlinkMacSystemFont, 'Segoe UI', Helvetica, Arial, sans-serif;">
  <rect width="100%" height="100%" fill="#0d1117"/>
  <g>
    <line x1="40" y1="220.00" x2="860" y2="220.00" stroke="#30363d"/><text x="32" y="224.00" font-size="10" fill="#c9d1d9" text-anchor="end">0</text><line x1="40" y1="175.00" x2="860" y2="175.00" stroke="#30363d"/><text x="32" y="179.00" font-size="10" fill="#c9d1d9" text-anchor="end">1.2k</text><line x1="40" y1="130.00" x2="860" y2="130.00" stroke="#30363d"/><text x="32" y="134.00" font-size="10" fill="#c9d1d9" text-anchor="end">2.5k</text><line x1="40" y1="85.00" x2="860" y2="85.00" stroke="#30363d"/><text x="32" y="89.00" font-size="10" fill="#c9d1d9" text-anchor="end">3.8k</text><line x1="40" y1="40.00" x2="860" y2="40.00" stroke="#30363d"/><text x="32" y="44.00" font-size="10" fill="#c9d1d9" text-anchor="end">5k</text>
    <line x1="40.00" y1="40" x2="40.00" y2="220" stroke="#30363d" opacity="0.5"/><line x1="119.52" y1="40" x2="119.52" y2="220" stroke="#30363d" opacity="0.5"/><line x1="199.03" y1="40" x2="199.03" y2="220" stroke="#30363d" opacity="0.5"/><line x1="278.55" y1="40" x2="278.55" y2="220" stroke="#30363d" opacity="0.5"/><line x1="358.06" y1="40" x2="358.06" y2="220" stroke="#30363d" opacity="0.5"/><line x1="437.58" y1="40" x2="437.58" y2="220" stroke="#30363d" opacity="0.5"/><line x1="517.09" y1="40" x2="517.09" y2="220" stroke="#30363d" opacity="0.5"/><line x1="596.61" y1="40" x2="596.61" y2="220" stroke="#30363d" opacity="0.5"/><line x1="676.12" y1="40" x2="676.12" y2="220" stroke="#30363d" opacity="0.5"/><line x1="755.64" y1="40" x2="755.64" y2="220" stroke="#30363d" opacity="0.5"/><line x1="835.15" y1="40" x2="835.15" y2="220" stroke="#30363d" opacity="0.5"/>
    <line x1="40" y1="220" x2="860" y2="220" stroke="#30363d"/>
    <line x1="40" y1="40"   x2="40"   y2="220" stroke="#30363d"/>
    <path d="M 40.00 203.22 L 44.97 202.72 L 49.94 202.72 L 54.91 202.61 L 59.88 201.39 L 64.85 200.78 L 69.82 200.78 L 74.79 200.78 L 79.76 200.56 L 84.73 195.74 L 89.70 195.74 L 94.67 195.74 L 99.64 194.44 L 104.61 194.08 L 109.58 191.99 L 114.55 191.99 L 119.52 191.92 L 124.48 189.72 L 129.45 189.69 L 134.42 189.65 L 139.39 189.65 L 144.36 189.65 L 149.33 189.65 L 154.30 189.65 L 159.27 189.47 L 164.24 189.47 L 169.21 189.47 L 174.18 189.47 L 179.15 189.00 L 184.12 189.00 L 189.09 189.08 L 194.06 189.08 L 199.03 187.28 L 204.00 179.86 L 208.97 179.75 L 213.94 179.72 L 218.91 179.72 L 223.88 179.72 L 228.85 179.72 L 233.82 179.72 L 238.79 179.72 L 243.76 179.72 L 248.73 178.35 L 253.70 175.76 L 258.67 168.12 L 263.64 166.07 L 268.61 165.50 L 273.58 165.46 L 278.55 164.88 L 283.52 164.88 L 288.48 164.88 L 293.45 164.88 L 298.42 164.78 L 303.39 164.78 L 308.36 163.84 L 313.33 163.55 L 318.30 161.86 L 323.27 161.86 L 328.24 161.61 L 333.21 161.18 L 338.18 158.37 L 343.15 158.40 L 348.12 158.40 L 353.09 158.40 L 358.06 158.40 L 363.03 158.40 L 368.00 158.26 L 372.97 157.54 L 377.94 157.54 L 382.91 157.54 L 387.88 151.42 L 392.85 151.10 L 397.82 151.06 L 402.79 151.06 L 407.76 150.74 L 412.73 150.74 L 417.70 150.74 L 422.67 150.70 L 427.64 150.66 L 432.61 150.66 L 437.58 153.04 L 442.55 153.18 L 447.52 153.18 L 452.48 153.08 L 457.45 153.11 L 462.42 155.06 L 467.39 155.06 L 472.36 155.88 L 477.33 155.88 L 482.30 155.88 L 487.27 155.88 L 492.24 155.67 L 497.21 155.42 L 502.18 155.42 L 507.15 155.27 L 512.12 155.24 L 517.09 153.44 L 522.06 149.98 L 527.03 147.42 L 532.00 147.42 L 536.97 147.42 L 541.94 147.57 L 546.91 146.85 L 551.88 143.90 L 556.85 137.02 L 561.82 134.61 L 566.79 134.61 L 571.76 134.61 L 576.73 118.62 L 581.70 118.62 L 586.67 118.62 L 591.64 112.65 L 596.61 117.58 L 601.58 117.58 L 606.55 117.58 L 611.52 117.58 L 616.48 117.58 L 621.45 117.58 L 626.42 117.58 L 631.39 117.58 L 636.36 117.58 L 641.33 117.58 L 646.30 117.58 L 651.27 117.58 L 656.24 117.58 L 661.21 117.58 L 666.18 117.58 L 671.15 117.58 L 676.12 117.58 L 681.09 117.58 L 686.06 117.58 L 691.03 117.58 L 696.00 117.58 L 700.97 117.58 L 705.94 117.58 L 710.91 117.58 L 715.88 117.58 L 720.85 117.58 L 725.82 117.58 L 730.79 117.58 L 735.76 117.58 L 740.73 117.58 L 745.70 117.58 L 750.67 117.58 L 755.64 117.58 L 760.61 117.58 L 765.58 117.58 L 770.55 117.58 L 775.52 117.58 L 780.48 117.58 L 785.45 117.58 L 790.42 117.58 L 795.39 117.58 L 800.36 117.58 L 805.33 117.58 L 810.30 117.58 L 815.27 117.58 L 820.24 117.58 L 825.21 117.58 L 830.18 117.58 L 835.15 117.58 L 840.12 117.58 L 845.09 117.58 L 850.06 117.58 L 855.03 117.58 L 860.00 117.58" fill="none" stroke="#3fb950" stroke-width="2"/>
    <circle cx="860.00" cy="117.58" r="3" fill="#3fb950"/>
    <text x="40.00" y="235.00" font-size="9" fill="#c9d1d9" text-anchor="middle" transform="rotate(-45 40.00 235.00)">02.08.25</text><text x="119.52" y="235.00" font-size="9" fill="#c9d1d9" text-anchor="middle" transform="rotate(-45 119.52 235.00)">10.08.25</text><text x="199.03" y="235.00" font-size="9" fill="#c9d1d9" text-anchor="middle" transform="rotate(-45 199.03 235.00)">11.08.25</text><text x="278.55" y="235.00" font-size="9" fill="#c9d1d9" text-anchor="middle" transform="rotate(-45 278.55 235.00)">13.08.25</text><text x="358.06" y="235.00" font-size="9" fill="#c9d1d9" text-anchor="middle" transform="rotate(-45 358.06 235.00)">15.08.25</text><text x="437.58" y="235.00" font-size="9" fill="#c9d1d9" text-anchor="middle" transform="rotate(-45 437.58 235.00)">19.08.25</text><text x="517.09" y="235.00" font-size="9" fill="#c9d1d9" text-anchor="middle" transform="rotate(-45 517.09 235.00)">22.08.25</text><text x="596.61" y="235.00" font-size="9" fill="#c9d1d9" text-anchor="middle" transform="rotate(-45 596.61 235.00)">24.08.25</text><text x="676.12" y="235.00" font-size="9" fill="#c9d1d9" text-anchor="middle" transform="rotate(-45 676.12 235.00)">22.09.25</text><text x="755.64" y="235.00" font-size="9" fill="#c9d1d9" text-anchor="middle" transform="rotate(-45 755.64 235.00)">08.12.25</text><text x="835.15" y="235.00" font-size="9" fill="#c9d1d9" text-anchor="middle" transform="rotate(-45 835.15 235.00)">09.02.26</text>
  </g>
</svg>