<svg xmlns="http://www.w3.org/2000/svg" width="900" height="290" style="font-family: -apple-system, BlinkMacSystemFont, 'Segoe UI', Helvetica, Arial, sans-serif;">
  <rect width="100%" height="100%" fill="#0d1117"/>
  <g>
    <line x1="40" y1="220.00" x2="860" y2="220.00" stroke="#30363d"/><text x="32" y="224.00" font-size="10" fill="#c9d1d9" text-anchor="end">0</text><line x1="40" y1="175.00" x2="860" y2="175.00" stroke="#30363d"/><text x="32" y="179.00" font-size="10" fill="#c9d1d9" text-anchor="end">1.2k</text><line x1="40" y1="130.00" x2="860" y2="130.00" stroke="#30363d"/><text x="32" y="134.00" font-size="10" fill="#c9d1d9" text-anchor="end">2.5k</text><line x1="40" y1="85.00" x2="860" y2="85.00" stroke="#30363d"/><text x="32" y="89.00" font-size="10" fill="#c9d1d9" text-anchor="end">3.8k</text><line x1="40" y1="40.00" x2="860" y2="40.00" stroke="#30363d"/><text x="32" y="44.00" font-size="10" fill="#c9d1d9" text-anchor="end">5k</text>
    <line x1="40.00" y1="40" x2="40.00" y2="220" stroke="#30363d" opacity="0.5"/><line x1="120.85" y1="40" x2="120.85" y2="220" stroke="#30363d" opacity="0.5"/><line x1="201.69" y1="40" x2="201.69" y2="220" stroke="#30363d" opacity="0.5"/><line x1="282.54" y1="40" x2="282.54" y2="220" stroke="#30363d" opacity="0.5"/><line x1="363.38" y1="40" x2="363.38" y2="220" stroke="#30363d" opacity="0.5"/><line x1="444.23" y1="40" x2="444.23" y2="220" stroke="#30363d" opacity="0.5"/><line x1="525.07" y1="40" x2="525.07" y2="220" stroke="#30363d" opacity="0.5"/><line x1="605.92" y1="40" x2="605.92" y2="220" stroke="#30363d" opacity="0.5"/><line x1="686.76" y1="40" x2="686.76" y2="220" stroke="#30363d" opacity="0.5"/><line x1="767.61" y1="40" x2="767.61" y2="220" stroke="#30363d" opacity="0.5"/><line x1="848.45" y1="40" x2="848.45" y2="220" stroke="#30363d" opacity="0.5"/>
    <line x1="40" y1="220" x2="860" y2="220" stroke="#30363d"/>
    <line x1="40" y1="40"   x2="40"   y2="220" stroke="#30363d"/>
    <path d="M 40.00 203.22 L 45.77 202.72 L 51.55 202.72 L 57.32 202.61 L 63.10 201.39 L 68.87 200.78 L 74.65 200.78 L 80.42 200.78 L 86.20 200.56 L 91.97 195.74 L 97.75 195.74 L 103.52 195.74 L 109.30 194.44 L 115.07 194.08 L 120.85 191.99 L 126.62 191.99 L 132.39 191.92 L 138.17 189.72 L 143.94 189.69 L 149.72 189.65 L 155.49 189.65 L 161.27 189.65 L 167.04 189.65 L 172.82 189.65 L 178.59 189.47 L 184.37 189.47 L 190.14 189.47 L 195.92 189.47 L 201.69 189.00 L 207.46 189.00 L 213.24 189.08 L 219.01 189.08 L 224.79 187.28 L 230.56 179.86 L 236.34 179.75 L 242.11 179.72 L 247.89 179.72 L 253.66 179.72 L 259.44 179.72 L 265.21 179.72 L 270.99 179.72 L 276.76 179.72 L 282.54 178.35 L 288.31 175.76 L 294.08 168.12 L 299.86 166.07 L 305.63 165.50 L 311.41 165.46 L 317.18 164.88 L 322.96 164.88 L 328.73 164.88 L 334.51 164.88 L 340.28 164.78 L 346.06 164.78 L 351.83 163.84 L 357.61 163.55 L 363.38 161.86 L 369.15 161.86 L 374.93 161.61 L 380.70 161.18 L 386.48 158.37 L 392.25 158.40 L 398.03 158.40 L 403.80 158.40 L 409.58 158.40 L 415.35 158.40 L 421.13 158.26 L 426.90 157.54 L 432.68 157.54 L 438.45 157.54 L 444.23 151.42 L 450.00 151.10 L 455.77 151.06 L 461.55 151.06 L 467.32 150.74 L 473.10 150.74 L 478.87 150.74 L 484.65 150.70 L 490.42 150.66 L 496.20 150.66 L 501.97 153.04 L 507.75 153.18 L 513.52 153.18 L 519.30 153.08 L 525.07 153.11 L 530.85 155.06 L 536.62 155.06 L 542.39 155.88 L 548.17 155.88 L 553.94 155.88 L 559.72 155.88 L 565.49 155.67 L 571.27 155.42 L 577.04 155.42 L 582.82 155.27 L 588.59 155.24 L 594.37 153.44 L 600.14 149.98 L 605.92 147.42 L 611.69 147.42 L 617.46 147.42 L 623.24 147.57 L 629.01 146.85 L 634.79 143.90 L 640.56 137.02 L 646.34 134.61 L 652.11 134.61 L 657.89 134.61 L 663.66 118.62 L 669.44 118.62 L 675.21 118.62 L 680.99 112.65 L 686.76 117.58 L 692.54 117.58 L 698.31 117.58 L 704.08 117.58 L 709.86 117.58 L 715.63 117.58 L 721.41 117.58 L 727.18 117.58 L 732.96 117.58 L 738.73 117.58 L 744.51 117.58 L 750.28 117.58 L 756.06 117.58 L 761.83 117.58 L 767.61 117.58 L 773.38 117.58 L 779.15 117.58 L 784.93 117.58 L 790.70 117.58 L 796.48 117.58 L 802.25 117.58 L 808.03 117.58 L 813.80 117.58 L 819.58 117.58 L 825.35 117.58 L 831.13 117.58 L 836.90 117.58 L 842.68 117.58 L 848.45 117.58 L 854.23 117.58 L 860.00 117.58" fill="none" stroke="#3fb950" stroke-width="2"/>
    <circle cx="860.00" cy="117.58" r="3" fill="#3fb950"/>
    <text x="40.00" y="235.00" font-size="9" fill="#c9d1d9" text-anchor="middle" transform="rotate(-45 40.00 235.00)">02.08.25</text><text x="120.85" y="235.00" font-size="9" fill="#c9d1d9" text-anchor="middle" transform="rotate(-45 120.85 235.00)">09.08.25</text><text x="201.69" y="235.00" font-size="9" fill="#c9d1d9" text-anchor="middle" transform="rotate(-45 201.69 235.00)">11.08.25</text><text x="282.54" y="235.00" font-size="9" fill="#c9d1d9" text-anchor="middle" transform="rotate(-45 282.54 235.00)">13.08.25</text><text x="363.38" y="235.00" font-size="9" fill="#c9d1d9" text-anchor="middle" transform="rotate(-45 363.38 235.00)">15.08.25</text><text x="444.23" y="235.00" font-size="9" fill="#c9d1d9" text-anchor="middle" transform="rotate(-45 444.23 235.00)">18.08.25</text><text x="525.07" y="235.00" font-size="9" fill="#c9d1d9" text-anchor="middle" transform="rotate(-45 525.07 235.00)">19.08.25</text><text x="605.92" y="235.00" font-size="9" fill="#c9d1d9" text-anchor="middle" transform="rotate(-45 605.92 235.00)">22.08.25</text><text x="686.76" y="235.00" font-size="9" fill="#c9d1d9" text-anchor="middle" transform="rotate(-45 686.76 235.00)">24.08.25</text><text x="767.61" y="235.00" font-size="9" fill="#c9d1d9" text-anchor="middle" transform="rotate(-45 767.61 235.00)">14.09.25</text><text x="848.45" y="235.00" font-size="9" fill="#c9d1d9" text-anchor="middle" transform="rotate(-45 848.45 235.00)">10.11.25</text>
  </g>
</svg>