<svg xmlns="http://www.w3.org/2000/svg" width="900" height="290" style="font-family: -apple-system, BlinkMacSystemFont, 'Segoe UI', Helvetica, Arial, sans-serif;">
  <rect width="100%" height="100%" fill="#0d1117"/>
  <g>
    <line x1="40" y1="220.00" x2="860" y2="220.00" stroke="#30363d"/><text x="32" y="224.00" font-size="10" fill="#c9d1d9" text-anchor="end">0</text><line x1="40" y1="175.00" x2="860" y2="175.00" stroke="#30363d"/><text x="32" y="179.00" font-size="10" fill="#c9d1d9" text-anchor="end">1.2k</text><line x1="40" y1="130.00" x2="860" y2="130.00" stroke="#30363d"/><text x="32" y="134.00" font-size="10" fill="#c9d1d9" text-anchor="end">2.5k</text><line x1="40" y1="85.00" x2="860" y2="85.00" stroke="#30363d"/><text x="32" y="89.00" font-size="10" fill="#c9d1d9" text-anchor="end">3.8k</text><line x1="40" y1="40.00" x2="860" y2="40.00" stroke="#30363d"/><text x="32" y="44.00" font-size="10" fill="#c9d1d9" text-anchor="end">5k</text>
    <line x1="40.00" y1="40" x2="40.00" y2="220" stroke="#30363d" opacity="0.5"/><line x1="121.42" y1="40" x2="121.42" y2="220" stroke="#30363d" opacity="0.5"/><line x1="202.84" y1="40" x2="202.84" y2="220" stroke="#30363d" opacity="0.5"/><line x1="284.26" y1="40" x2="284.26" y2="220" stroke="#30363d" opacity="0.5"/><line x1="365.67" y1="40" x2="365.67" y2="220" stroke="#30363d" opacity="0.5"/><line x1="447.09" y1="40" x2="447.09" y2="220" stroke="#30363d" opacity="0.5"/><line x1="528.51" y1="40" x2="528.51" y2="220" stroke="#30363d" opacity="0.5"/><line x1="609.93" y1="40" x2="609.93" y2="220" stroke="#30363d" opacity="0.5"/><line x1="691.35" y1="40" x2="691.35" y2="220" stroke="#30363d" opacity="0.5"/><line x1="772.77" y1="40" x2="772.77" y2="220" stroke="#30363d" opacity="0.5"/><line x1="854.18" y1="40" x2="854.18" y2="220" stroke="#30363d" opacity="0.5"/>
    <line x1="40" y1="220" x2="860" y2="220" stroke="#30363d"/>
    <line x1="40" y1="40"   x2="40"   y2="220" stroke="#30363d"/>
    <path d="M 40.00 203.22 L 45.82 202.72 L 51.63 202.72 L 57.45 202.61 L 63.26 201.39 L 69.08 200.78 L 74.89 200.78 L 80.71 200.78 L 86.52 200.56 L 92.34 195.74 L 98.16 195.74 L 103.97 195.74 L 109.79 194.44 L 115.60 194.08 L 121.42 191.99 L 127.23 191.99 L 133.05 191.92 L 138.87 189.72 L 144.68 189.69 L 150.50 189.65 L 156.31 189.65 L 162.13 189.65 L 167.94 189.65 L 173.76 189.65 L 179.57 189.47 L 185.39 189.47 L 191.21 189.47 L 197.02 189.47 L 202.84 189.00 L 208.65 189.00 L 214.47 189.08 L 220.28 189.08 L 226.10 187.28 L 231.91 179.86 L 237.73 179.75 L 243.55 179.72 L 249.36 179.72 L 255.18 179.72 L 260.99 179.72 L 266.81 179.72 L 272.62 179.72 L 278.44 179.72 L 284.26 178.35 L 290.07 175.76 L 295.89 168.12 L 301.70 166.07 L 307.52 165.50 L 313.33 165.46 L 319.15 164.88 L 324.96 164.88 L 330.78 164.88 L 336.60 164.88 L 342.41 164.78 L 348.23 164.78 L 354.04 163.84 L 359.86 163.55 L 365.67 161.86 L 371.49 161.86 L 377.30 161.61 L 383.12 161.18 L 388.94 158.37 L 394.75 158.40 L 400.57 158.40 L 406.38 158.40 L 412.20 158.40 L 418.01 158.40 L 423.83 158.26 L 429.65 157.54 L 435.46 157.54 L 441.28 157.54 L 447.09 151.42 L 452.91 151.10 L 458.72 151.06 L 464.54 151.06 L 470.35 150.74 L 476.17 150.74 L 481.99 150.74 L 487.80 150.70 L 493.62 150.66 L 499.43 150.66 L 505.25 153.04 L 511.06 153.18 L 516.88 153.18 L 522.70 153.08 L 528.51 153.11 L 534.33 155.06 L 540.14 155.06 L 545.96 155.88 L 551.77 155.88 L 557.59 155.88 L 563.40 155.88 L 569.22 155.67 L 575.04 155.42 L 580.85 155.42 L 586.67 155.27 L 592.48 155.24 L 598.30 153.44 L 604.11 149.98 L 609.93 147.42 L 615.74 147.42 L 621.56 147.42 L 627.38 147.57 L 633.19 146.85 L 639.01 143.90 L 644.82 137.02 L 650.64 134.61 L 656.45 134.61 L 662.27 134.61 L 668.09 118.62 L 673.90 118.62 L 679.72 118.62 L 685.53 112.65 L 691.35 117.58 L 697.16 117.58 L 702.98 117.58 L 708.79 117.58 L 714.61 117.58 L 720.43 117.58 L 726.24 117.58 L 732.06 117.58 L 737.87 117.58 L 743.69 117.58 L 749.50 117.58 L 755.32 117.58 L 761.13 117.58 L 766.95 117.58 L 772.77 117.58 L 778.58 117.58 L 784.40 117.58 L 790.21 117.58 L 796.03 117.58 L 801.84 117.58 L 807.66 117.58 L 813.48 117.58 L 819.29 117.58 L 825.11 117.58 L 830.92 117.58 L 836.74 117.58 L 842.55 117.58 L 848.37 117.58 L 854.18 117.58 L 860.00 117.58" fill="none" stroke="#3fb950" stroke-width="2"/>
    <circle cx="860.00" cy="117.58" r="3" fill="#3fb950"/>
    <text x="40.00" y="235.00" font-size="9" fill="#c9d1d9" text-anchor="middle" transform="rotate(-45 40.00 235.00)">02.08.25</text><text x="121.42" y="235.00" font-size="9" fill="#c9d1d9" text-anchor="middle" transform="rotate(-45 121.42 235.00)">09.08.25</text><text x="202.84" y="235.00" font-size="9" fill="#c9d1d9" text-anchor="middle" transform="rotate(-45 202.84 235.00)">11.08.25</text><text x="284.26" y="235.00" font-size="9" fill="#c9d1d9" text-anchor="middle" transform="rotate(-45 284.26 235.00)">13.08.25</text><text x="365.67" y="235.00" font-size="9" fill="#c9d1d9" text-anchor="middle" transform="rotate(-45 365.67 235.00)">15.08.25</text><text x="447.09" y="235.00" font-size="9" fill="#c9d1d9" text-anchor="middle" transform="rotate(-45 447.09 235.00)">18.08.25</text><text x="528.51" y="235.00" font-size="9" fill="#c9d1d9" text-anchor="middle" transform="rotate(-45 528.51 235.00)">19.08.25</text><text x="609.93" y="235.00" font-size="9" fill="#c9d1d9" text-anchor="middle" transform="rotate(-45 609.93 235.00)">22.08.25</text><text x="691.35" y="235.00" font-size="9" fill="#c9d1d9" text-anchor="middle" transform="rotate(-45 691.35 235.00)">24.08.25</text><text x="772.77" y="235.00" font-size="9" fill="#c9d1d9" text-anchor="middle" transform="rotate(-45 772.77 235.00)">14.09.25</text><text x="854.18" y="235.00" font-size="9" fill="#c9d1d9" text-anchor="middle" transform="rotate(-45 854.18 235.00)">10.11.25</text>
  </g>
</svg>