<svg xmlns="http://www.w3.org/2000/svg" width="900" height="290" style="font-family: -apple-system, BlinkMacSystemFont, 'Segoe UI', Helvetica, Arial, sans-serif;">
  <rect width="100%" height="100%" fill="white"/>
  <g>
    <line x1="40" y1="220.00" x2="860" y2="220.00" stroke="#e5e7eb"/><text x="32" y="224.00" font-size="10" fill="#111827" text-anchor="end">0</text><line x1="40" y1="175.00" x2="860" y2="175.00" stroke="#e5e7eb"/><text x="32" y="179.00" font-size="10" fill="#111827" text-anchor="end">750</text><line x1="40" y1="130.00" x2="860" y2="130.00" stroke="#e5e7eb"/><text x="32" y="134.00" font-size="10" fill="#111827" text-anchor="end">1.5k</text><line x1="40" y1="85.00" x2="860" y2="85.00" stroke="#e5e7eb"/><text x="32" y="89.00" font-size="10" fill="#111827" text-anchor="end">2.2k</text><line x1="40" y1="40.00" x2="860" y2="40.00" stroke="#e5e7eb"/><text x="32" y="44.00" font-size="10" fill="#111827" text-anchor="end">3k</text>
    <line x1="40.00" y1="40" x2="40.00" y2="220" stroke="#e5e7eb" opacity="0.5"/><line x1="122.83" y1="40" x2="122.83" y2="220" stroke="#e5e7eb" opacity="0.5"/><line x1="205.66" y1="40" x2="205.66" y2="220" stroke="#e5e7eb" opacity="0.5"/><line x1="288.48" y1="40" x2="288.48" y2="220" stroke="#e5e7eb" opacity="0.5"/><line x1="371.31" y1="40" x2="371.31" y2="220" stroke="#e5e7eb" opacity="0.5"/><line x1="454.14" y1="40" x2="454.14" y2="220" stroke="#e5e7eb" opacity="0.5"/><line x1="536.97" y1="40" x2="536.97" y2="220" stroke="#e5e7eb" opacity="0.5"/><line x1="619.80" y1="40" x2="619.80" y2="220" stroke="#e5e7eb" opacity="0.5"/><line x1="702.63" y1="40" x2="702.63" y2="220" stroke="#e5e7eb" opacity="0.5"/><line x1="785.45" y1="40" x2="785.45" y2="220" stroke="#e5e7eb" opacity="0.5"/>
    <line x1="40" y1="220" x2="860" y2="220" stroke="#9ca3af"/>
    <line x1="40" y1="40"   x2="40"   y2="220" stroke="#9ca3af"/>
    <path d="M 40.00 192.04 L 48.28 191.20 L 56.57 191.20 L 64.85 191.02 L 73.13 188.98 L 81.41 187.96 L 89.70 187.96 L 97.98 187.96 L 106.26 187.60 L 114.55 179.56 L 122.83 179.56 L 131.11 179.56 L 139.39 177.40 L 147.68 176.80 L 155.96 173.32 L 164.24 173.32 L 172.53 173.20 L 180.81 169.54 L 189.09 169.48 L 197.37 169.42 L 205.66 169.42 L 213.94 169.42 L 222.22 169.42 L 230.51 169.42 L 238.79 169.12 L 247.07 169.12 L 255.35 169.12 L 263.64 169.12 L 271.92 168.34 L 280.20 168.34 L 288.48 168.46 L 296.77 168.46 L 305.05 165.46 L 313.33 153.10 L 321.62 152.92 L 329.90 152.86 L 338.18 152.86 L 346.46 152.86 L 354.75 152.86 L 363.03 152.86 L 371.31 152.86 L 379.60 152.86 L 387.88 150.58 L 396.16 146.26 L 404.44 133.54 L 412.73 130.12 L 421.01 129.16 L 429.29 129.10 L 437.58 128.14 L 445.86 128.14 L 454.14 128.14 L 462.42 128.14 L 470.71 127.96 L 478.99 127.96 L 487.27 126.40 L 495.56 125.92 L 503.84 123.10 L 512.12 123.10 L 520.40 122.68 L 528.69 121.96 L 536.97 117.28 L 545.25 117.34 L 553.54 117.34 L 561.82 117.34 L 570.10 117.34 L 578.38 117.34 L 586.67 117.10 L 594.95 115.90 L 603.23 115.90 L 611.52 115.90 L 619.80 105.70 L 628.08 105.16 L 636.36 105.10 L 644.65 105.10 L 652.93 104.56 L 661.21 104.56 L 669.49 104.56 L 677.78 104.50 L 686.06 104.44 L 694.34 104.44 L 702.63 108.40 L 710.91 108.64 L 719.19 108.64 L 727.47 108.46 L 735.76 108.52 L 744.04 111.76 L 752.32 111.76 L 760.61 113.14 L 768.89 113.14 L 777.17 113.14 L 785.45 113.14 L 793.74 112.78 L 802.02 112.36 L 810.30 112.36 L 818.59 112.12 L 826.87 112.06 L 835.15 109.06 L 843.43 103.30 L 851.72 99.04 L 860.00 99.04" fill="none" stroke="#111827" stroke-width="2"/>
    <circle cx="860.00" cy="99.04" r="3" fill="#111827"/>
    <text x="40.00" y="235.00" font-size="9" fill="#111827" text-anchor="middle" transform="rotate(-45 40.00 235.00)">02.08.25</text><text x="122.83" y="235.00" font-size="9" fill="#111827" text-anchor="middle" transform="rotate(-45 122.83 235.00)">03.08.25</text><text x="205.66" y="235.00" font-size="9" fill="#111827" text-anchor="middle" transform="rotate(-45 205.66 235.00)">10.08.25</text><text x="288.48" y="235.00" font-size="9" fill="#111827" text-anchor="middle" transform="rotate(-45 288.48 235.00)">11.08.25</text><text x="371.31" y="235.00" font-size="9" fill="#111827" text-anchor="middle" transform="rotate(-45 371.31 235.00)">12.08.25</text><text x="454.14" y="235.00" font-size="9" fill="#111827" text-anchor="middle" transform="rotate(-45 454.14 235.00)">13.08.25</text><text x="536.97" y="235.00" font-size="9" fill="#111827" text-anchor="middle" transform="rotate(-45 536.97 235.00)">15.08.25</text><text x="619.80" y="235.00" font-size="9" fill="#111827" text-anchor="middle" transform="rotate(-45 619.80 235.00)">18.08.25</text><text x="702.63" y="235.00" font-size="9" fill="#111827" text-anchor="middle" transform="rotate(-45 702.63 235.00)">19.08.25</text><text x="785.45" y="235.00" font-size="9" fill="#111827" text-anchor="middle" transform="rotate(-45 785.45 235.00)">20.08.25</text>
  </g>
</svg>