<svg xmlns="http://www.w3.org/2000/svg" width="900" height="290" style="font-family: -apple-system, BlinkMacSystemFont, 'Segoe UI', Helvetica, Arial, sans-serif;">
  <rect width="100%" height="100%" fill="#0d1117"/>
  <g>
    <line x1="40" y1="220.00" x2="860" y2="220.00" stroke="#30363d"/><text x="32" y="224.00" font-size="10" fill="#c9d1d9" text-anchor="end">0</text><line x1="40" y1="175.00" x2="860" y2="175.00" stroke="#30363d"/><text x="32" y="179.00" font-size="10" fill="#c9d1d9" text-anchor="end">500</text><line x1="40" y1="130.00" x2="860" y2="130.00" stroke="#30363d"/><text x="32" y="134.00" font-size="10" fill="#c9d1d9" text-anchor="end">1k</text><line x1="40" y1="85.00" x2="860" y2="85.00" stroke="#30363d"/><text x="32" y="89.00" font-size="10" fill="#c9d1d9" text-anchor="end">1.5k</text><line x1="40" y1="40.00" x2="860" y2="40.00" stroke="#30363d"/><text x="32" y="44.00" font-size="10" fill="#c9d1d9" text-anchor="end">2k</text>
    <line x1="40.00" y1="40" x2="40.00" y2="220" stroke="#30363d" opacity="0.5"/><line x1="118.85" y1="40" x2="118.85" y2="220" stroke="#30363d" opacity="0.5"/><line x1="197.69" y1="40" x2="197.69" y2="220" stroke="#30363d" opacity="0.5"/><line x1="276.54" y1="40" x2="276.54" y2="220" stroke="#30363d" opacity="0.5"/><line x1="355.38" y1="40" x2="355.38" y2="220" stroke="#30363d" opacity="0.5"/><line x1="434.23" y1="40" x2="434.23" y2="220" stroke="#30363d" opacity="0.5"/><line x1="513.08" y1="40" x2="513.08" y2="220" stroke="#30363d" opacity="0.5"/><line x1="591.92" y1="40" x2="591.92" y2="220" stroke="#30363d" opacity="0.5"/><line x1="670.77" y1="40" x2="670.77" y2="220" stroke="#30363d" opacity="0.5"/><line x1="749.62" y1="40" x2="749.62" y2="220" stroke="#30363d" opacity="0.5"/><line x1="828.46" y1="40" x2="828.46" y2="220" stroke="#30363d" opacity="0.5"/>
    <line x1="40" y1="220" x2="860" y2="220" stroke="#30363d"/>
    <line x1="40" y1="40"   x2="40"   y2="220" stroke="#30363d"/>
    <path d="M 40.00 178.06 L 55.77 176.80 L 71.54 176.80 L 87.31 176.53 L 103.08 173.47 L 118.85 171.94 L 134.62 171.94 L 150.38 171.94 L 166.15 171.40 L 181.92 159.34 L 197.69 159.34 L 213.46 159.34 L 229.23 156.10 L 245.00 155.20 L 260.77 149.98 L 276.54 149.98 L 292.31 149.80 L 308.08 144.31 L 323.85 144.22 L 339.62 144.13 L 355.38 144.13 L 371.15 144.13 L 386.92 144.13 L 402.69 144.13 L 418.46 143.68 L 434.23 143.68 L 450.00 143.68 L 465.77 143.68 L 481.54 142.51 L 497.31 142.51 L 513.08 142.69 L 528.85 142.69 L 544.62 138.19 L 560.38 119.65 L 576.15 119.38 L 591.92 119.29 L 607.69 119.29 L 623.46 119.29 L 639.23 119.29 L 655.00 119.29 L 670.77 119.29 L 686.54 119.29 L 702.31 115.87 L 718.08 109.39 L 733.85 90.31 L 749.62 85.18 L 765.38 83.74 L 781.15 83.65 L 796.92 82.21 L 812.69 82.21 L 828.46 82.21 L 844.23 82.21 L 860.00 81.94" fill="none" stroke="#3fb950" stroke-width="2"/>
    <circle cx="860.00" cy="81.94" r="3" fill="#3fb950"/>
    <text x="40.00" y="235.00" font-size="9" fill="#c9d1d9" text-anchor="middle" transform="rotate(-45 40.00 235.00)">02.08.25</text><text x="118.85" y="235.00" font-size="9" fill="#c9d1d9" text-anchor="middle" transform="rotate(-45 118.85 235.00)">02.08.25</text><text x="197.69" y="235.00" font-size="9" fill="#c9d1d9" text-anchor="middle" transform="rotate(-45 197.69 235.00)">03.08.25</text><text x="276.54" y="235.00" font-size="9" fill="#c9d1d9" text-anchor="middle" transform="rotate(-45 276.54 235.00)">09.08.25</text><text x="355.38" y="235.00" font-size="9" fill="#c9d1d9" text-anchor="middle" transform="rotate(-45 355.38 235.00)">10.08.25</text><text x="434.23" y="235.00" font-size="9" fill="#c9d1d9" text-anchor="middle" transform="rotate(-45 434.23 235.00)">10.08.25</text><text x="513.08" y="235.00" font-size="9" fill="#c9d1d9" text-anchor="middle" transform="rotate(-45 513.08 235.00)">11.08.25</text><text x="591.92" y="235.00" font-size="9" fill="#c9d1d9" text-anchor="middle" transform="rotate(-45 591.92 235.00)">11.08.25</text><text x="670.77" y="235.00" font-size="9" fill="#c9d1d9" text-anchor="middle" transform="rotate(-45 670.77 235.00)">12.08.25</text><text x="749.62" y="235.00" font-size="9" fill="#c9d1d9" text-anchor="middle" transform="rotate(-45 749.62 235.00)">13.08.25</text><text x="828.46" y="235.00" font-size="9" fill="#c9d1d9" text-anchor="middle" transform="rotate(-45 828.46 235.00)">13.08.25</text>
  </g>
</svg>