<svg xmlns="http://www.w3.org/2000/svg" width="900" height="290" style="font-family: -apple-system, BlinkMacSystemFont, 'Segoe UI', Helvetica, Arial, sans-serif;">
  <rect width="100%" height="100%" fill="white"/>
  <g>
    <line x1="40" y1="220.00" x2="860" y2="220.00" stroke="#e5e7eb"/><text x="32" y="224.00" font-size="10" fill="#111827" text-anchor="end">0</text><line x1="40" y1="175.00" x2="860" y2="175.00" stroke="#e5e7eb"/><text x="32" y="179.00" font-size="10" fill="#111827" text-anchor="end">1.2k</text><line x1="40" y1="130.00" x2="860" y2="130.00" stroke="#e5e7eb"/><text x="32" y="134.00" font-size="10" fill="#111827" text-anchor="end">2.5k</text><line x1="40" y1="85.00" x2="860" y2="85.00" stroke="#e5e7eb"/><text x="32" y="89.00" font-size="10" fill="#111827" text-anchor="end">3.8k</text><line x1="40" y1="40.00" x2="860" y2="40.00" stroke="#e5e7eb"/><text x="32" y="44.00" font-size="10" fill="#111827" text-anchor="end">5k</text>
    <line x1="40.00" y1="40" x2="40.00" y2="220" stroke="#e5e7eb" opacity="0.5"/><line x1="122.00" y1="40" x2="122.00" y2="220" stroke="#e5e7eb" opacity="0.5"/><line x1="204.00" y1="40" x2="204.00" y2="220" stroke="#e5e7eb" opacity="0.5"/><line x1="286.00" y1="40" x2="286.00" y2="220" stroke="#e5e7eb" opacity="0.5"/><line x1="368.00" y1="40" x2="368.00" y2="220" stroke="#e5e7eb" opacity="0.5"/><line x1="450.00" y1="40" x2="450.00" y2="220" stroke="#e5e7eb" opacity="0.5"/><line x1="532.00" y1="40" x2="532.00" y2="220" stroke="#e5e7eb" opacity="0.5"/><line x1="614.00" y1="40" x2="614.00" y2="220" stroke="#e5e7eb" opacity="0.5"/><line x1="696.00" y1="40" x2="696.00" y2="220" stroke="#e5e7eb" opacity="0.5"/><line x1="778.00" y1="40" x2="778.00" y2="220" stroke="#e5e7eb" opacity="0.5"/><line x1="860.00" y1="40" x2="860.00" y2="220" stroke="#e5e7eb" opacity="0.5"/>
    <line x1="40" y1="220" x2="860" y2="220" stroke="#9ca3af"/>
    <line x1="40" y1="40"   x2="40"   y2="220" stroke="#9ca3af"/>
    <path d="M 40.00 203.22 L 46.31 202.72 L 52.62 202.72 L 58.92 202.61 L 65.23 201.39 L 71.54 200.78 L 77.85 200.78 L 84.15 200.78 L 90.46 200.56 L 96.77 195.74 L 103.08 195.74 L 109.38 195.74 L 115.69 194.44 L 122.00 194.08 L 128.31 191.99 L 134.62 191.99 L 140.92 191.92 L 147.23 189.72 L 153.54 189.69 L 159.85 189.65 L 166.15 189.65 L 172.46 189.65 L 178.77 189.65 L 185.08 189.65 L 191.38 189.47 L 197.69 189.47 L 204.00 189.47 L 210.31 189.47 L 216.62 189.00 L 222.92 189.00 L 229.23 189.08 L 235.54 189.08 L 241.85 187.28 L 248.15 179.86 L 254.46 179.75 L 260.77 179.72 L 267.08 179.72 L 273.38 179.72 L 279.69 179.72 L 286.00 179.72 L 292.31 179.72 L 298.62 179.72 L 304.92 178.35 L 311.23 175.76 L 317.54 168.12 L 323.85 166.07 L 330.15 165.50 L 336.46 165.46 L 342.77 164.88 L 349.08 164.88 L 355.38 164.88 L 361.69 164.88 L 368.00 164.78 L 374.31 164.78 L 380.62 163.84 L 386.92 163.55 L 393.23 161.86 L 399.54 161.86 L 405.85 161.61 L 412.15 161.18 L 418.46 158.37 L 424.77 158.40 L 431.08 158.40 L 437.38 158.40 L 443.69 158.40 L 450.00 158.40 L 456.31 158.26 L 462.62 157.54 L 468.92 157.54 L 475.23 157.54 L 481.54 151.42 L 487.85 151.10 L 494.15 151.06 L 500.46 151.06 L 506.77 150.74 L 513.08 150.74 L 519.38 150.74 L 525.69 150.70 L 532.00 150.66 L 538.31 150.66 L 544.62 153.04 L 550.92 153.18 L 557.23 153.18 L 563.54 153.08 L 569.85 153.11 L 576.15 155.06 L 582.46 155.06 L 588.77 155.88 L 595.08 155.88 L 601.38 155.88 L 607.69 155.88 L 614.00 155.67 L 620.31 155.42 L 626.62 155.42 L 632.92 155.27 L 639.23 155.24 L 645.54 153.44 L 651.85 149.98 L 658.15 147.42 L 664.46 147.42 L 670.77 147.42 L 677.08 147.57 L 683.38 146.85 L 689.69 143.90 L 696.00 137.02 L 702.31 134.61 L 708.62 134.61 L 714.92 134.61 L 721.23 118.62 L 727.54 118.62 L 733.85 118.62 L 740.15 112.65 L 746.46 117.58 L 752.77 117.58 L 759.08 117.58 L 765.38 117.58 L 771.69 117.58 L 778.00 117.58 L 784.31 117.58 L 790.62 117.58 L 796.92 117.58 L 803.23 117.58 L 809.54 117.58 L 815.85 117.58 L 822.15 117.58 L 828.46 117.58 L 834.77 117.58 L 841.08 117.58 L 847.38 117.58 L 853.69 117.58 L 860.00 117.58" fill="none" stroke="#111827" stroke-width="2"/>
    <circle cx="860.00" cy="117.58" r="3" fill="#111827"/>
    <text x="40.00" y="235.00" font-size="9" fill="#111827" text-anchor="middle" transform="rotate(-45 40.00 235.00)">02.08.25</text><text x="122.00" y="235.00" font-size="9" fill="#111827" text-anchor="middle" transform="rotate(-45 122.00 235.00)">09.08.25</text><text x="204.00" y="235.00" font-size="9" fill="#111827" text-anchor="middle" transform="rotate(-45 204.00 235.00)">10.08.25</text><text x="286.00" y="235.00" font-size="9" fill="#111827" text-anchor="middle" transform="rotate(-45 286.00 235.00)">11.08.25</text><text x="368.00" y="235.00" font-size="9" fill="#111827" text-anchor="middle" transform="rotate(-45 368.00 235.00)">14.08.25</text><text x="450.00" y="235.00" font-size="9" fill="#111827" text-anchor="middle" transform="rotate(-45 450.00 235.00)">16.08.25</text><text x="532.00" y="235.00" font-size="9" fill="#111827" text-anchor="middle" transform="rotate(-45 532.00 235.00)">18.08.25</text><text x="614.00" y="235.00" font-size="9" fill="#111827" text-anchor="middle" transform="rotate(-45 614.00 235.00)">21.08.25</text><text x="696.00" y="235.00" font-size="9" fill="#111827" text-anchor="middle" transform="rotate(-45 696.00 235.00)">22.08.25</text><text x="778.00" y="235.00" font-size="9" fill="#111827" text-anchor="middle" transform="rotate(-45 778.00 235.00)">05.09.25</text><text x="860.00" y="235.00" font-size="9" fill="#111827" text-anchor="middle" transform="rotate(-45 860.00 235.00)">06.10.25</text>
  </g>
</svg>