<svg xmlns="http://www.w3.org/2000/svg" width="900" height="290" style="font-family: -apple-system, BlinkMacSystemFont, 'Segoe UI', Helvetica, Arial, sans-serif;">
  <rect width="100%" height="100%" fill="white"/>
  <g>
    <line x1="40" y1="220.00" x2="860" y2="220.00" stroke="#e5e7eb"/><text x="32" y="224.00" font-size="10" fill="#111827" text-anchor="end">0</text><line x1="40" y1="175.00" x2="860" y2="175.00" stroke="#e5e7eb"/><text x="32" y="179.00" font-size="10" fill="#111827" text-anchor="end">1.2k</text><line x1="40" y1="130.00" x2="860" y2="130.00" stroke="#e5e7eb"/><text x="32" y="134.00" font-size="10" fill="#111827" text-anchor="end">2.5k</text><line x1="40" y1="85.00" x2="860" y2="85.00" stroke="#e5e7eb"/><text x="32" y="89.00" font-size="10" fill="#111827" text-anchor="end">3.8k</text><line x1="40" y1="40.00" x2="860" y2="40.00" stroke="#e5e7eb"/><text x="32" y="44.00" font-size="10" fill="#111827" text-anchor="end">5k</text>
    <line x1="40.00" y1="40" x2="40.00" y2="220" stroke="#e5e7eb" opacity="0.5"/><line x1="122.59" y1="40" x2="122.59" y2="220" stroke="#e5e7eb" opacity="0.5"/><line x1="205.18" y1="40" x2="205.18" y2="220" stroke="#e5e7eb" opacity="0.5"/><line x1="287.77" y1="40" x2="287.77" y2="220" stroke="#e5e7eb" opacity="0.5"/><line x1="370.36" y1="40" x2="370.36" y2="220" stroke="#e5e7eb" opacity="0.5"/><line x1="452.95" y1="40" x2="452.95" y2="220" stroke="#e5e7eb" opacity="0.5"/><line x1="535.54" y1="40" x2="535.54" y2="220" stroke="#e5e7eb" opacity="0.5"/><line x1="618.13" y1="40" x2="618.13" y2="220" stroke="#e5e7eb" opacity="0.5"/><line x1="700.72" y1="40" x2="700.72" y2="220" stroke="#e5e7eb" opacity="0.5"/><line x1="783.31" y1="40" x2="783.31" y2="220" stroke="#e5e7eb" opacity="0.5"/>
    <line x1="40" y1="220" x2="860" y2="220" stroke="#9ca3af"/>
    <line x1="40" y1="40"   x2="40"   y2="220" stroke="#9ca3af"/>
    <path d="M 40.00 203.22 L 45.90 202.72 L 51.80 202.72 L 57.70 202.61 L 63.60 201.39 L 69.50 200.78 L 75.40 200.78 L 81.29 200.78 L 87.19 200.56 L 93.09 195.74 L 98.99 195.74 L 104.89 195.74 L 110.79 194.44 L 116.69 194.08 L 122.59 191.99 L 128.49 191.99 L 134.39 191.92 L 140.29 189.72 L 146.19 189.69 L 152.09 189.65 L 157.99 189.65 L 163.88 189.65 L 169.78 189.65 L 175.68 189.65 L 181.58 189.47 L 187.48 189.47 L 193.38 189.47 L 199.28 189.47 L 205.18 189.00 L 211.08 189.00 L 216.98 189.08 L 222.88 189.08 L 228.78 187.28 L 234.68 179.86 L 240.58 179.75 L 246.47 179.72 L 252.37 179.72 L 258.27 179.72 L 264.17 179.72 L 270.07 179.72 L 275.97 179.72 L 281.87 179.72 L 287.77 178.35 L 293.67 175.76 L 299.57 168.12 L 305.47 166.07 L 311.37 165.50 L 317.27 165.46 L 323.17 164.88 L 329.06 164.88 L 334.96 164.88 L 340.86 164.88 L 346.76 164.78 L 352.66 164.78 L 358.56 163.84 L 364.46 163.55 L 370.36 161.86 L 376.26 161.86 L 382.16 161.61 L 388.06 161.18 L 393.96 158.37 L 399.86 158.40 L 405.76 158.40 L 411.65 158.40 L 417.55 158.40 L 423.45 158.40 L 429.35 158.26 L 435.25 157.54 L 441.15 157.54 L 447.05 157.54 L 452.95 151.42 L 458.85 151.10 L 464.75 151.06 L 470.65 151.06 L 476.55 150.74 L 482.45 150.74 L 488.35 150.74 L 494.24 150.70 L 500.14 150.66 L 506.04 150.66 L 511.94 153.04 L 517.84 153.18 L 523.74 153.18 L 529.64 153.08 L 535.54 153.11 L 541.44 155.06 L 547.34 155.06 L 553.24 155.88 L 559.14 155.88 L 565.04 155.88 L 570.94 155.88 L 576.83 155.67 L 582.73 155.42 L 588.63 155.42 L 594.53 155.27 L 600.43 155.24 L 606.33 153.44 L 612.23 149.98 L 618.13 147.42 L 624.03 147.42 L 629.93 147.42 L 635.83 147.57 L 641.73 146.85 L 647.63 143.90 L 653.53 137.02 L 659.42 134.61 L 665.32 134.61 L 671.22 134.61 L 677.12 118.62 L 683.02 118.62 L 688.92 118.62 L 694.82 112.65 L 700.72 117.58 L 706.62 117.58 L 712.52 117.58 L 718.42 117.58 L 724.32 117.58 L 730.22 117.58 L 736.12 117.58 L 742.01 117.58 L 747.91 117.58 L 753.81 117.58 L 759.71 117.58 L 765.61 117.58 L 771.51 117.58 L 777.41 117.58 L 783.31 117.58 L 789.21 117.58 L 795.11 117.58 L 801.01 117.58 L 806.91 117.58 L 812.81 117.58 L 818.71 117.58 L 824.60 117.58 L 830.50 117.58 L 836.40 117.58 L 842.30 117.58 L 848.20 117.58 L 854.10 117.58 L 860.00 117.58" fill="none" stroke="#111827" stroke-width="2"/>
    <circle cx="860.00" cy="117.58" r="3" fill="#111827"/>
    <text x="40.00" y="235.00" font-size="9" fill="#111827" text-anchor="middle" transform="rotate(-45 40.00 235.00)">02.08.25</text><text x="122.59" y="235.00" font-size="9" fill="#111827" text-anchor="middle" transform="rotate(-45 122.59 235.00)">09.08.25</text><text x="205.18" y="235.00" font-size="9" fill="#111827" text-anchor="middle" transform="rotate(-45 205.18 235.00)">11.08.25</text><text x="287.77" y="235.00" font-size="9" fill="#111827" text-anchor="middle" transform="rotate(-45 287.77 235.00)">13.08.25</text><text x="370.36" y="235.00" font-size="9" fill="#111827" text-anchor="middle" transform="rotate(-45 370.36 235.00)">15.08.25</text><text x="452.95" y="235.00" font-size="9" fill="#111827" text-anchor="middle" transform="rotate(-45 452.95 235.00)">18.08.25</text><text x="535.54" y="235.00" font-size="9" fill="#111827" text-anchor="middle" transform="rotate(-45 535.54 235.00)">19.08.25</text><text x="618.13" y="235.00" font-size="9" fill="#111827" text-anchor="middle" transform="rotate(-45 618.13 235.00)">22.08.25</text><text x="700.72" y="235.00" font-size="9" fill="#111827" text-anchor="middle" transform="rotate(-45 700.72 235.00)">24.08.25</text><text x="783.31" y="235.00" font-size="9" fill="#111827" text-anchor="middle" transform="rotate(-45 783.31 235.00)">14.09.25</text>
  </g>
</svg>