<svg xmlns="http://www.w3.org/2000/svg" width="900" height="290" style="font-family: -apple-system, BlinkMacSystemFont, 'Segoe UI', Helvetica, Arial, sans-serif;">
  <rect width="100%" height="100%" fill="white"/>
  <g>
    <line x1="40" y1="220.00" x2="860" y2="220.00" stroke="#e5e7eb"/><text x="32" y="224.00" font-size="10" fill="#111827" text-anchor="end">0</text><line x1="40" y1="175.00" x2="860" y2="175.00" stroke="#e5e7eb"/><text x="32" y="179.00" font-size="10" fill="#111827" text-anchor="end">1.2k</text><line x1="40" y1="130.00" x2="860" y2="130.00" stroke="#e5e7eb"/><text x="32" y="134.00" font-size="10" fill="#111827" text-anchor="end">2.5k</text><line x1="40" y1="85.00" x2="860" y2="85.00" stroke="#e5e7eb"/><text x="32" y="89.00" font-size="10" fill="#111827" text-anchor="end">3.8k</text><line x1="40" y1="40.00" x2="860" y2="40.00" stroke="#e5e7eb"/><text x="32" y="44.00" font-size="10" fill="#111827" text-anchor="end">5k</text>
    <line x1="40.00" y1="40" x2="40.00" y2="220" stroke="#e5e7eb" opacity="0.5"/><line x1="119.82" y1="40" x2="119.82" y2="220" stroke="#e5e7eb" opacity="0.5"/><line x1="199.65" y1="40" x2="199.65" y2="220" stroke="#e5e7eb" opacity="0.5"/><line x1="279.47" y1="40" x2="279.47" y2="220" stroke="#e5e7eb" opacity="0.5"/><line x1="359.29" y1="40" x2="359.29" y2="220" stroke="#e5e7eb" opacity="0.5"/><line x1="439.12" y1="40" x2="439.12" y2="220" stroke="#e5e7eb" opacity="0.5"/><line x1="518.94" y1="40" x2="518.94" y2="220" stroke="#e5e7eb" opacity="0.5"/><line x1="598.76" y1="40" x2="598.76" y2="220" stroke="#e5e7eb" opacity="0.5"/><line x1="678.58" y1="40" x2="678.58" y2="220" stroke="#e5e7eb" opacity="0.5"/><line x1="758.41" y1="40" x2="758.41" y2="220" stroke="#e5e7eb" opacity="0.5"/><line x1="838.23" y1="40" x2="838.23" y2="220" stroke="#e5e7eb" opacity="0.5"/>
    <line x1="40" y1="220" x2="860" y2="220" stroke="#9ca3af"/>
    <line x1="40" y1="40"   x2="40"   y2="220" stroke="#9ca3af"/>
    <path d="M 40.00 203.22 L 47.26 202.72 L 54.51 202.72 L 61.77 202.61 L 69.03 201.39 L 76.28 200.78 L 83.54 200.78 L 90.80 200.78 L 98.05 200.56 L 105.31 195.74 L 112.57 195.74 L 119.82 195.74 L 127.08 194.44 L 134.34 194.08 L 141.59 191.99 L 148.85 191.99 L 156.11 191.92 L 163.36 189.72 L 170.62 189.69 L 177.88 189.65 L 185.13 189.65 L 192.39 189.65 L 199.65 189.65 L 206.90 189.65 L 214.16 189.47 L 221.42 189.47 L 228.67 189.47 L 235.93 189.47 L 243.19 189.00 L 250.44 189.00 L 257.70 189.08 L 264.96 189.08 L 272.21 187.28 L 279.47 179.86 L 286.73 179.75 L 293.98 179.72 L 301.24 179.72 L 308.50 179.72 L 315.75 179.72 L 323.01 179.72 L 330.27 179.72 L 337.52 179.72 L 344.78 178.35 L 352.04 175.76 L 359.29 168.12 L 366.55 166.07 L 373.81 165.50 L 381.06 165.46 L 388.32 164.88 L 395.58 164.88 L 402.83 164.88 L 410.09 164.88 L 417.35 164.78 L 424.60 164.78 L 431.86 163.84 L 439.12 163.55 L 446.37 161.86 L 453.63 161.86 L 460.88 161.61 L 468.14 161.18 L 475.40 158.37 L 482.65 158.40 L 489.91 158.40 L 497.17 158.40 L 504.42 158.40 L 511.68 158.40 L 518.94 158.26 L 526.19 157.54 L 533.45 157.54 L 540.71 157.54 L 547.96 151.42 L 555.22 151.10 L 562.48 151.06 L 569.73 151.06 L 576.99 150.74 L 584.25 150.74 L 591.50 150.74 L 598.76 150.70 L 606.02 150.66 L 613.27 150.66 L 620.53 153.04 L 627.79 153.18 L 635.04 153.18 L 642.30 153.08 L 649.56 153.11 L 656.81 155.06 L 664.07 155.06 L 671.33 155.88 L 678.58 155.88 L 685.84 155.88 L 693.10 155.88 L 700.35 155.67 L 707.61 155.42 L 714.87 155.42 L 722.12 155.27 L 729.38 155.24 L 736.64 153.44 L 743.89 149.98 L 751.15 147.42 L 758.41 147.42 L 765.66 147.42 L 772.92 147.57 L 780.18 146.85 L 787.43 143.90 L 794.69 137.02 L 801.95 134.61 L 809.20 134.61 L 816.46 134.61 L 823.72 118.62 L 830.97 118.62 L 838.23 118.62 L 845.49 112.65 L 852.74 117.58 L 860.00 117.58" fill="none" stroke="#111827" stroke-width="2"/>
    <circle cx="860.00" cy="117.58" r="3" fill="#111827"/>
    <text x="40.00" y="235.00" font-size="9" fill="#111827" text-anchor="middle" transform="rotate(-45 40.00 235.00)">02.08.25</text><text x="119.82" y="235.00" font-size="9" fill="#111827" text-anchor="middle" transform="rotate(-45 119.82 235.00)">03.08.25</text><text x="199.65" y="235.00" font-size="9" fill="#111827" text-anchor="middle" transform="rotate(-45 199.65 235.00)">10.08.25</text><text x="279.47" y="235.00" font-size="9" fill="#111827" text-anchor="middle" transform="rotate(-45 279.47 235.00)">11.08.25</text><text x="359.29" y="235.00" font-size="9" fill="#111827" text-anchor="middle" transform="rotate(-45 359.29 235.00)">13.08.25</text><text x="439.12" y="235.00" font-size="9" fill="#111827" text-anchor="middle" transform="rotate(-45 439.12 235.00)">15.08.25</text><text x="518.94" y="235.00" font-size="9" fill="#111827" text-anchor="middle" transform="rotate(-45 518.94 235.00)">16.08.25</text><text x="598.76" y="235.00" font-size="9" fill="#111827" text-anchor="middle" transform="rotate(-45 598.76 235.00)">18.08.25</text><text x="678.58" y="235.00" font-size="9" fill="#111827" text-anchor="middle" transform="rotate(-45 678.58 235.00)">20.08.25</text><text x="758.41" y="235.00" font-size="9" fill="#111827" text-anchor="middle" transform="rotate(-45 758.41 235.00)">22.08.25</text><text x="838.23" y="235.00" font-size="9" fill="#111827" text-anchor="middle" transform="rotate(-45 838.23 235.00)">23.08.25</text>
  </g>
</svg>