<svg xmlns="http://www.w3.org/2000/svg" width="900" height="290" style="font-family: -apple-system, BlinkMacSystemFont, 'Segoe UI', Helvetica, Arial, sans-serif;">
  <rect width="100%" height="100%" fill="#0d1117"/>
  <g>
    <line x1="40" y1="220.00" x2="860" y2="220.00" stroke="#30363d"/><text x="32" y="224.00" font-size="10" fill="#c9d1d9" text-anchor="end">0</text><line x1="40" y1="175.00" x2="860" y2="175.00" stroke="#30363d"/><text x="32" y="179.00" font-size="10" fill="#c9d1d9" text-anchor="end">1.2k</text><line x1="40" y1="130.00" x2="860" y2="130.00" stroke="#30363d"/><text x="32" y="134.00" font-size="10" fill="#c9d1d9" text-anchor="end">2.5k</text><line x1="40" y1="85.00" x2="860" y2="85.00" stroke="#30363d"/><text x="32" y="89.00" font-size="10" fill="#c9d1d9" text-anchor="end">3.8k</text><line x1="40" y1="40.00" x2="860" y2="40.00" stroke="#30363d"/><text x="32" y="44.00" font-size="10" fill="#c9d1d9" text-anchor="end">5k</text>
    <line x1="40.00" y1="40" x2="40.00" y2="220" stroke="#30363d" opacity="0.5"/><line x1="118.10" y1="40" x2="118.10" y2="220" stroke="#30363d" opacity="0.5"/><line x1="196.19" y1="40" x2="196.19" y2="220" stroke="#30363d" opacity="0.5"/><line x1="274.29" y1="40" x2="274.29" y2="220" stroke="#30363d" opacity="0.5"/><line x1="352.38" y1="40" x2="352.38" y2="220" stroke="#30363d" opacity="0.5"/><line x1="430.48" y1="40" x2="430.48" y2="220" stroke="#30363d" opacity="0.5"/><line x1="508.57" y1="40" x2="508.57" y2="220" stroke="#30363d" opacity="0.5"/><line x1="586.67" y1="40" x2="586.67" y2="220" stroke="#30363d" opacity="0.5"/><line x1="664.76" y1="40" x2="664.76" y2="220" stroke="#30363d" opacity="0.5"/><line x1="742.86" y1="40" x2="742.86" y2="220" stroke="#30363d" opacity="0.5"/><line x1="820.95" y1="40" x2="820.95" y2="220" stroke="#30363d" opacity="0.5"/>
    <line x1="40" y1="220" x2="860" y2="220" stroke="#30363d"/>
    <line x1="40" y1="40"   x2="40"   y2="220" stroke="#30363d"/>
    <path d="M 40.00 203.22 L 46.51 202.72 L 53.02 202.72 L 59.52 202.61 L 66.03 201.39 L 72.54 200.78 L 79.05 200.78 L 85.56 200.78 L 92.06 200.56 L 98.57 195.74 L 105.08 195.74 L 111.59 195.74 L 118.10 194.44 L 124.60 194.08 L 131.11 191.99 L 137.62 191.99 L 144.13 191.92 L 150.63 189.72 L 157.14 189.69 L 163.65 189.65 L 170.16 189.65 L 176.67 189.65 L 183.17 189.65 L 189.68 189.65 L 196.19 189.47 L 202.70 189.47 L 209.21 189.47 L 215.71 189.47 L 222.22 189.00 L 228.73 189.00 L 235.24 189.08 L 241.75 189.08 L 248.25 187.28 L 254.76 179.86 L 261.27 179.75 L 267.78 179.72 L 274.29 179.72 L 280.79 179.72 L 287.30 179.72 L 293.81 179.72 L 300.32 179.72 L 306.83 179.72 L 313.33 178.35 L 319.84 175.76 L 326.35 168.12 L 332.86 166.07 L 339.37 165.50 L 345.87 165.46 L 352.38 164.88 L 358.89 164.88 L 365.40 164.88 L 371.90 164.88 L 378.41 164.78 L 384.92 164.78 L 391.43 163.84 L 397.94 163.55 L 404.44 161.86 L 410.95 161.86 L 417.46 161.61 L 423.97 161.18 L 430.48 158.37 L 436.98 158.40 L 443.49 158.40 L 450.00 158.40 L 456.51 158.40 L 463.02 158.40 L 469.52 158.26 L 476.03 157.54 L 482.54 157.54 L 489.05 157.54 L 495.56 151.42 L 502.06 151.10 L 508.57 151.06 L 515.08 151.06 L 521.59 150.74 L 528.10 150.74 L 534.60 150.74 L 541.11 150.70 L 547.62 150.66 L 554.13 150.66 L 560.63 153.04 L 567.14 153.18 L 573.65 153.18 L 580.16 153.08 L 586.67 153.11 L 593.17 155.06 L 599.68 155.06 L 606.19 155.88 L 612.70 155.88 L 619.21 155.88 L 625.71 155.88 L 632.22 155.67 L 638.73 155.42 L 645.24 155.42 L 651.75 155.27 L 658.25 155.24 L 664.76 153.44 L 671.27 149.98 L 677.78 147.42 L 684.29 147.42 L 690.79 147.42 L 697.30 147.57 L 703.81 146.85 L 710.32 143.90 L 716.83 137.02 L 723.33 134.61 L 729.84 134.61 L 736.35 134.61 L 742.86 118.62 L 749.37 118.62 L 755.87 118.62 L 762.38 112.65 L 768.89 117.58 L 775.40 117.58 L 781.90 117.58 L 788.41 117.58 L 794.92 117.58 L 801.43 117.58 L 807.94 117.58 L 814.44 117.58 L 820.95 117.58 L 827.46 117.58 L 833.97 117.58 L 840.48 117.58 L 846.98 117.58 L 853.49 117.58 L 860.00 117.58" fill="none" stroke="#3fb950" stroke-width="2"/>
    <circle cx="860.00" cy="117.58" r="3" fill="#3fb950"/>
    <text x="40.00" y="235.00" font-size="9" fill="#c9d1d9" text-anchor="middle" transform="rotate(-45 40.00 235.00)">02.08.25</text><text x="118.10" y="235.00" font-size="9" fill="#c9d1d9" text-anchor="middle" transform="rotate(-45 118.10 235.00)">09.08.25</text><text x="196.19" y="235.00" font-size="9" fill="#c9d1d9" text-anchor="middle" transform="rotate(-45 196.19 235.00)">10.08.25</text><text x="274.29" y="235.00" font-size="9" fill="#c9d1d9" text-anchor="middle" transform="rotate(-45 274.29 235.00)">11.08.25</text><text x="352.38" y="235.00" font-size="9" fill="#c9d1d9" text-anchor="middle" transform="rotate(-45 352.38 235.00)">13.08.25</text><text x="430.48" y="235.00" font-size="9" fill="#c9d1d9" text-anchor="middle" transform="rotate(-45 430.48 235.00)">15.08.25</text><text x="508.57" y="235.00" font-size="9" fill="#c9d1d9" text-anchor="middle" transform="rotate(-45 508.57 235.00)">18.08.25</text><text x="586.67" y="235.00" font-size="9" fill="#c9d1d9" text-anchor="middle" transform="rotate(-45 586.67 235.00)">19.08.25</text><text x="664.76" y="235.00" font-size="9" fill="#c9d1d9" text-anchor="middle" transform="rotate(-45 664.76 235.00)">22.08.25</text><text x="742.86" y="235.00" font-size="9" fill="#c9d1d9" text-anchor="middle" transform="rotate(-45 742.86 235.00)">23.08.25</text><text x="820.95" y="235.00" font-size="9" fill="#c9d1d9" text-anchor="middle" transform="rotate(-45 820.95 235.00)">05.09.25</text>
  </g>
</svg>