<svg xmlns="http://www.w3.org/2000/svg" width="900" height="290" style="font-family: -apple-system, BlinkMacSystemFont, 'Segoe UI', Helvetica, Arial, sans-serif;">
  <rect width="100%" height="100%" fill="white"/>
  <g>
    <line x1="40" y1="220.00" x2="860" y2="220.00" stroke="#e5e7eb"/><text x="32" y="224.00" font-size="10" fill="#111827" text-anchor="end">0</text><line x1="40" y1="175.00" x2="860" y2="175.00" stroke="#e5e7eb"/><text x="32" y="179.00" font-size="10" fill="#111827" text-anchor="end">1.2k</text><line x1="40" y1="130.00" x2="860" y2="130.00" stroke="#e5e7eb"/><text x="32" y="134.00" font-size="10" fill="#111827" text-anchor="end">2.5k</text><line x1="40" y1="85.00" x2="860" y2="85.00" stroke="#e5e7eb"/><text x="32" y="89.00" font-size="10" fill="#111827" text-anchor="end">3.8k</text><line x1="40" y1="40.00" x2="860" y2="40.00" stroke="#e5e7eb"/><text x="32" y="44.00" font-size="10" fill="#111827" text-anchor="end">5k</text>
    <line x1="40.00" y1="40" x2="40.00" y2="220" stroke="#e5e7eb" opacity="0.5"/><line x1="117.25" y1="40" x2="117.25" y2="220" stroke="#e5e7eb" opacity="0.5"/><line x1="194.49" y1="40" x2="194.49" y2="220" stroke="#e5e7eb" opacity="0.5"/><line x1="271.74" y1="40" x2="271.74" y2="220" stroke="#e5e7eb" opacity="0.5"/><line x1="348.99" y1="40" x2="348.99" y2="220" stroke="#e5e7eb" opacity="0.5"/><line x1="426.23" y1="40" x2="426.23" y2="220" stroke="#e5e7eb" opacity="0.5"/><line x1="503.48" y1="40" x2="503.48" y2="220" stroke="#e5e7eb" opacity="0.5"/><line x1="580.72" y1="40" x2="580.72" y2="220" stroke="#e5e7eb" opacity="0.5"/><line x1="657.97" y1="40" x2="657.97" y2="220" stroke="#e5e7eb" opacity="0.5"/><line x1="735.22" y1="40" x2="735.22" y2="220" stroke="#e5e7eb" opacity="0.5"/><line x1="812.46" y1="40" x2="812.46" y2="220" stroke="#e5e7eb" opacity="0.5"/>
    <line x1="40" y1="220" x2="860" y2="220" stroke="#9ca3af"/>
    <line x1="40" y1="40"   x2="40"   y2="220" stroke="#9ca3af"/>
    <path d="M 40.00 203.22 L 45.94 202.72 L 51.88 202.72 L 57.83 202.61 L 63.77 201.39 L 69.71 200.78 L 75.65 200.78 L 81.59 200.78 L 87.54 200.56 L 93.48 195.74 L 99.42 195.74 L 105.36 195.74 L 111.30 194.44 L 117.25 194.08 L 123.19 191.99 L 129.13 191.99 L 135.07 191.92 L 141.01 189.72 L 146.96 189.69 L 152.90 189.65 L 158.84 189.65 L 164.78 189.65 L 170.72 189.65 L 176.67 189.65 L 182.61 189.47 L 188.55 189.47 L 194.49 189.47 L 200.43 189.47 L 206.38 189.00 L 212.32 189.00 L 218.26 189.08 L 224.20 189.08 L 230.14 187.28 L 236.09 179.86 L 242.03 179.75 L 247.97 179.72 L 253.91 179.72 L 259.86 179.72 L 265.80 179.72 L 271.74 179.72 L 277.68 179.72 L 283.62 179.72 L 289.57 178.35 L 295.51 175.76 L 301.45 168.12 L 307.39 166.07 L 313.33 165.50 L 319.28 165.46 L 325.22 164.88 L 331.16 164.88 L 337.10 164.88 L 343.04 164.88 L 348.99 164.78 L 354.93 164.78 L 360.87 163.84 L 366.81 163.55 L 372.75 161.86 L 378.70 161.86 L 384.64 161.61 L 390.58 161.18 L 396.52 158.37 L 402.46 158.40 L 408.41 158.40 L 414.35 158.40 L 420.29 158.40 L 426.23 158.40 L 432.17 158.26 L 438.12 157.54 L 444.06 157.54 L 450.00 157.54 L 455.94 151.42 L 461.88 151.10 L 467.83 151.06 L 473.77 151.06 L 479.71 150.74 L 485.65 150.74 L 491.59 150.74 L 497.54 150.70 L 503.48 150.66 L 509.42 150.66 L 515.36 153.04 L 521.30 153.18 L 527.25 153.18 L 533.19 153.08 L 539.13 153.11 L 545.07 155.06 L 551.01 155.06 L 556.96 155.88 L 562.90 155.88 L 568.84 155.88 L 574.78 155.88 L 580.72 155.67 L 586.67 155.42 L 592.61 155.42 L 598.55 155.27 L 604.49 155.24 L 610.43 153.44 L 616.38 149.98 L 622.32 147.42 L 628.26 147.42 L 634.20 147.42 L 640.14 147.57 L 646.09 146.85 L 652.03 143.90 L 657.97 137.02 L 663.91 134.61 L 669.86 134.61 L 675.80 134.61 L 681.74 118.62 L 687.68 118.62 L 693.62 118.62 L 699.57 112.65 L 705.51 117.58 L 711.45 117.58 L 717.39 117.58 L 723.33 117.58 L 729.28 117.58 L 735.22 117.58 L 741.16 117.58 L 747.10 117.58 L 753.04 117.58 L 758.99 117.58 L 764.93 117.58 L 770.87 117.58 L 776.81 117.58 L 782.75 117.58 L 788.70 117.58 L 794.64 117.58 L 800.58 117.58 L 806.52 117.58 L 812.46 117.58 L 818.41 117.58 L 824.35 117.58 L 830.29 117.58 L 836.23 117.58 L 842.17 117.58 L 848.12 117.58 L 854.06 117.58 L 860.00 117.58" fill="none" stroke="#111827" stroke-width="2"/>
    <circle cx="860.00" cy="117.58" r="3" fill="#111827"/>
    <text x="40.00" y="235.00" font-size="9" fill="#111827" text-anchor="middle" transform="rotate(-45 40.00 235.00)">02.08.25</text><text x="117.25" y="235.00" font-size="9" fill="#111827" text-anchor="middle" transform="rotate(-45 117.25 235.00)">09.08.25</text><text x="194.49" y="235.00" font-size="9" fill="#111827" text-anchor="middle" transform="rotate(-45 194.49 235.00)">10.08.25</text><text x="271.74" y="235.00" font-size="9" fill="#111827" text-anchor="middle" transform="rotate(-45 271.74 235.00)">11.08.25</text><text x="348.99" y="235.00" font-size="9" fill="#111827" text-anchor="middle" transform="rotate(-45 348.99 235.00)">14.08.25</text><text x="426.23" y="235.00" font-size="9" fill="#111827" text-anchor="middle" transform="rotate(-45 426.23 235.00)">16.08.25</text><text x="503.48" y="235.00" font-size="9" fill="#111827" text-anchor="middle" transform="rotate(-45 503.48 235.00)">18.08.25</text><text x="580.72" y="235.00" font-size="9" fill="#111827" text-anchor="middle" transform="rotate(-45 580.72 235.00)">21.08.25</text><text x="657.97" y="235.00" font-size="9" fill="#111827" text-anchor="middle" transform="rotate(-45 657.97 235.00)">22.08.25</text><text x="735.22" y="235.00" font-size="9" fill="#111827" text-anchor="middle" transform="rotate(-45 735.22 235.00)">05.09.25</text><text x="812.46" y="235.00" font-size="9" fill="#111827" text-anchor="middle" transform="rotate(-45 812.46 235.00)">06.10.25</text>
  </g>
</svg>