<svg xmlns="http://www.w3.org/2000/svg" width="900" height="290" style="font-family: -apple-system, BlinkMacSystemFont, 'Segoe UI', Helvetica, Arial, sans-serif;">
  <rect width="100%" height="100%" fill="white"/>
  <g>
    <line x1="40" y1="220.00" x2="860" y2="220.00" stroke="#e5e7eb"/><text x="32" y="224.00" font-size="10" fill="#111827" text-anchor="end">0</text><line x1="40" y1="175.00" x2="860" y2="175.00" stroke="#e5e7eb"/><text x="32" y="179.00" font-size="10" fill="#111827" text-anchor="end">1.2k</text><line x1="40" y1="130.00" x2="860" y2="130.00" stroke="#e5e7eb"/><text x="32" y="134.00" font-size="10" fill="#111827" text-anchor="end">2.5k</text><line x1="40" y1="85.00" x2="860" y2="85.00" stroke="#e5e7eb"/><text x="32" y="89.00" font-size="10" fill="#111827" text-anchor="end">3.8k</text><line x1="40" y1="40.00" x2="860" y2="40.00" stroke="#e5e7eb"/><text x="32" y="44.00" font-size="10" fill="#111827" text-anchor="end">5k</text>
    <line x1="40.00" y1="40" x2="40.00" y2="220" stroke="#e5e7eb" opacity="0.5"/><line x1="117.85" y1="40" x2="117.85" y2="220" stroke="#e5e7eb" opacity="0.5"/><line x1="195.70" y1="40" x2="195.70" y2="220" stroke="#e5e7eb" opacity="0.5"/><line x1="273.54" y1="40" x2="273.54" y2="220" stroke="#e5e7eb" opacity="0.5"/><line x1="351.39" y1="40" x2="351.39" y2="220" stroke="#e5e7eb" opacity="0.5"/><line x1="429.24" y1="40" x2="429.24" y2="220" stroke="#e5e7eb" opacity="0.5"/><line x1="507.09" y1="40" x2="507.09" y2="220" stroke="#e5e7eb" opacity="0.5"/><line x1="584.94" y1="40" x2="584.94" y2="220" stroke="#e5e7eb" opacity="0.5"/><line x1="662.78" y1="40" x2="662.78" y2="220" stroke="#e5e7eb" opacity="0.5"/><line x1="740.63" y1="40" x2="740.63" y2="220" stroke="#e5e7eb" opacity="0.5"/><line x1="818.48" y1="40" x2="818.48" y2="220" stroke="#e5e7eb" opacity="0.5"/>
    <line x1="40" y1="220" x2="860" y2="220" stroke="#9ca3af"/>
    <line x1="40" y1="40"   x2="40"   y2="220" stroke="#9ca3af"/>
    <path d="M 40.00 203.22 L 45.19 202.72 L 50.38 202.72 L 55.57 202.61 L 60.76 201.39 L 65.95 200.78 L 71.14 200.78 L 76.33 200.78 L 81.52 200.56 L 86.71 195.74 L 91.90 195.74 L 97.09 195.74 L 102.28 194.44 L 107.47 194.08 L 112.66 191.99 L 117.85 191.99 L 123.04 191.92 L 128.23 189.72 L 133.42 189.69 L 138.61 189.65 L 143.80 189.65 L 148.99 189.65 L 154.18 189.65 L 159.37 189.65 L 164.56 189.47 L 169.75 189.47 L 174.94 189.47 L 180.13 189.47 L 185.32 189.00 L 190.51 189.00 L 195.70 189.08 L 200.89 189.08 L 206.08 187.28 L 211.27 179.86 L 216.46 179.75 L 221.65 179.72 L 226.84 179.72 L 232.03 179.72 L 237.22 179.72 L 242.41 179.72 L 247.59 179.72 L 252.78 179.72 L 257.97 178.35 L 263.16 175.76 L 268.35 168.12 L 273.54 166.07 L 278.73 165.50 L 283.92 165.46 L 289.11 164.88 L 294.30 164.88 L 299.49 164.88 L 304.68 164.88 L 309.87 164.78 L 315.06 164.78 L 320.25 163.84 L 325.44 163.55 L 330.63 161.86 L 335.82 161.86 L 341.01 161.61 L 346.20 161.18 L 351.39 158.37 L 356.58 158.40 L 361.77 158.40 L 366.96 158.40 L 372.15 158.40 L 377.34 158.40 L 382.53 158.26 L 387.72 157.54 L 392.91 157.54 L 398.10 157.54 L 403.29 151.42 L 408.48 151.10 L 413.67 151.06 L 418.86 151.06 L 424.05 150.74 L 429.24 150.74 L 434.43 150.74 L 439.62 150.70 L 444.81 150.66 L 450.00 150.66 L 455.19 153.04 L 460.38 153.18 L 465.57 153.18 L 470.76 153.08 L 475.95 153.11 L 481.14 155.06 L 486.33 155.06 L 491.52 155.88 L 496.71 155.88 L 501.90 155.88 L 507.09 155.88 L 512.28 155.67 L 517.47 155.42 L 522.66 155.42 L 527.85 155.27 L 533.04 155.24 L 538.23 153.44 L 543.42 149.98 L 548.61 147.42 L 553.80 147.42 L 558.99 147.42 L 564.18 147.57 L 569.37 146.85 L 574.56 143.90 L 579.75 137.02 L 584.94 134.61 L 590.13 134.61 L 595.32 134.61 L 600.51 118.62 L 605.70 118.62 L 610.89 118.62 L 616.08 112.65 L 621.27 117.58 L 626.46 117.58 L 631.65 117.58 L 636.84 117.58 L 642.03 117.58 L 647.22 117.58 L 652.41 117.58 L 657.59 117.58 L 662.78 117.58 L 667.97 117.58 L 673.16 117.58 L 678.35 117.58 L 683.54 117.58 L 688.73 117.58 L 693.92 117.58 L 699.11 117.58 L 704.30 117.58 L 709.49 117.58 L 714.68 117.58 L 719.87 117.58 L 725.06 117.58 L 730.25 117.58 L 735.44 117.58 L 740.63 117.58 L 745.82 117.58 L 751.01 117.58 L 756.20 117.58 L 761.39 117.58 L 766.58 117.58 L 771.77 117.58 L 776.96 117.58 L 782.15 117.58 L 787.34 117.58 L 792.53 117.58 L 797.72 117.58 L 802.91 117.58 L 808.10 117.58 L 813.29 117.58 L 818.48 117.58 L 823.67 117.58 L 828.86 117.58 L 834.05 117.58 L 839.24 117.58 L 844.43 117.58 L 849.62 117.58 L 854.81 117.58 L 860.00 117.58" fill="none" stroke="#111827" stroke-width="2"/>
    <circle cx="860.00" cy="117.58" r="3" fill="#111827"/>
    <text x="40.00" y="235.00" font-size="9" fill="#111827" text-anchor="middle" transform="rotate(-45 40.00 235.00)">02.08.25</text><text x="117.85" y="235.00" font-size="9" fill="#111827" text-anchor="middle" transform="rotate(-45 117.85 235.00)">09.08.25</text><text x="195.70" y="235.00" font-size="9" fill="#111827" text-anchor="middle" transform="rotate(-45 195.70 235.00)">11.08.25</text><text x="273.54" y="235.00" font-size="9" fill="#111827" text-anchor="middle" transform="rotate(-45 273.54 235.00)">13.08.25</text><text x="351.39" y="235.00" font-size="9" fill="#111827" text-anchor="middle" transform="rotate(-45 351.39 235.00)">15.08.25</text><text x="429.24" y="235.00" font-size="9" fill="#111827" text-anchor="middle" transform="rotate(-45 429.24 235.00)">18.08.25</text><text x="507.09" y="235.00" font-size="9" fill="#111827" text-anchor="middle" transform="rotate(-45 507.09 235.00)">20.08.25</text><text x="584.94" y="235.00" font-size="9" fill="#111827" text-anchor="middle" transform="rotate(-45 584.94 235.00)">23.08.25</text><text x="662.78" y="235.00" font-size="9" fill="#111827" text-anchor="middle" transform="rotate(-45 662.78 235.00)">05.09.25</text><text x="740.63" y="235.00" font-size="9" fill="#111827" text-anchor="middle" transform="rotate(-45 740.63 235.00)">20.10.25</text><text x="818.48" y="235.00" font-size="9" fill="#111827" text-anchor="middle" transform="rotate(-45 818.48 235.00)">19.01.26</text>
  </g>
</svg>