<svg xmlns="http://www.w3.org/2000/svg" width="900" height="290" style="font-family: -apple-system, BlinkMacSystemFont, 'Segoe UI', Helvetica, Arial, sans-serif;">
  <rect width="100%" height="100%" fill="#0d1117"/>
  <g>
    <line x1="40" y1="220.00" x2="860" y2="220.00" stroke="#30363d"/><text x="32" y="224.00" font-size="10" fill="#c9d1d9" text-anchor="end">0</text><line x1="40" y1="175.00" x2="860" y2="175.00" stroke="#30363d"/><text x="32" y="179.00" font-size="10" fill="#c9d1d9" text-anchor="end">1.2k</text><line x1="40" y1="130.00" x2="860" y2="130.00" stroke="#30363d"/><text x="32" y="134.00" font-size="10" fill="#c9d1d9" text-anchor="end">2.5k</text><line x1="40" y1="85.00" x2="860" y2="85.00" stroke="#30363d"/><text x="32" y="89.00" font-size="10" fill="#c9d1d9" text-anchor="end">3.8k</text><line x1="40" y1="40.00" x2="860" y2="40.00" stroke="#30363d"/><text x="32" y="44.00" font-size="10" fill="#c9d1d9" text-anchor="end">5k</text>
    <line x1="40.00" y1="40" x2="40.00" y2="220" stroke="#30363d" opacity="0.5"/><line x1="117.81" y1="40" x2="117.81" y2="220" stroke="#30363d" opacity="0.5"/><line x1="195.62" y1="40" x2="195.62" y2="220" stroke="#30363d" opacity="0.5"/><line x1="273.43" y1="40" x2="273.43" y2="220" stroke="#30363d" opacity="0.5"/><line x1="351.24" y1="40" x2="351.24" y2="220" stroke="#30363d" opacity="0.5"/><line x1="429.05" y1="40" x2="429.05" y2="220" stroke="#30363d" opacity="0.5"/><line x1="506.86" y1="40" x2="506.86" y2="220" stroke="#30363d" opacity="0.5"/><line x1="584.67" y1="40" x2="584.67" y2="220" stroke="#30363d" opacity="0.5"/><line x1="662.48" y1="40" x2="662.48" y2="220" stroke="#30363d" opacity="0.5"/><line x1="740.29" y1="40" x2="740.29" y2="220" stroke="#30363d" opacity="0.5"/><line x1="818.10" y1="40" x2="818.10" y2="220" stroke="#30363d" opacity="0.5"/>
    <line x1="40" y1="220" x2="860" y2="220" stroke="#30363d"/>
    <line x1="40" y1="40"   x2="40"   y2="220" stroke="#30363d"/>
    <path d="M 40.00 203.22 L 45.99 202.72 L 51.97 202.72 L 57.96 202.61 L 63.94 201.39 L 69.93 200.78 L 75.91 200.78 L 81.90 200.78 L 87.88 200.56 L 93.87 195.74 L 99.85 195.74 L 105.84 195.74 L 111.82 194.44 L 117.81 194.08 L 123.80 191.99 L 129.78 191.99 L 135.77 191.92 L 141.75 189.72 L 147.74 189.69 L 153.72 189.65 L 159.71 189.65 L 165.69 189.65 L 171.68 189.65 L 177.66 189.65 L 183.65 189.47 L 189.64 189.47 L 195.62 189.47 L 201.61 189.47 L 207.59 189.00 L 213.58 189.00 L 219.56 189.08 L 225.55 189.08 L 231.53 187.28 L 237.52 179.86 L 243.50 179.75 L 249.49 179.72 L 255.47 179.72 L 261.46 179.72 L 267.45 179.72 L 273.43 179.72 L 279.42 179.72 L 285.40 179.72 L 291.39 178.35 L 297.37 175.76 L 303.36 168.12 L 309.34 166.07 L 315.33 165.50 L 321.31 165.46 L 327.30 164.88 L 333.28 164.88 L 339.27 164.88 L 345.26 164.88 L 351.24 164.78 L 357.23 164.78 L 363.21 163.84 L 369.20 163.55 L 375.18 161.86 L 381.17 161.86 L 387.15 161.61 L 393.14 161.18 L 399.12 158.37 L 405.11 158.40 L 411.09 158.40 L 417.08 158.40 L 423.07 158.40 L 429.05 158.40 L 435.04 158.26 L 441.02 157.54 L 447.01 157.54 L 452.99 157.54 L 458.98 151.42 L 464.96 151.10 L 470.95 151.06 L 476.93 151.06 L 482.92 150.74 L 488.91 150.74 L 494.89 150.74 L 500.88 150.70 L 506.86 150.66 L 512.85 150.66 L 518.83 153.04 L 524.82 153.18 L 530.80 153.18 L 536.79 153.08 L 542.77 153.11 L 548.76 155.06 L 554.74 155.06 L 560.73 155.88 L 566.72 155.88 L 572.70 155.88 L 578.69 155.88 L 584.67 155.67 L 590.66 155.42 L 596.64 155.42 L 602.63 155.27 L 608.61 155.24 L 614.60 153.44 L 620.58 149.98 L 626.57 147.42 L 632.55 147.42 L 638.54 147.42 L 644.53 147.57 L 650.51 146.85 L 656.50 143.90 L 662.48 137.02 L 668.47 134.61 L 674.45 134.61 L 680.44 134.61 L 686.42 118.62 L 692.41 118.62 L 698.39 118.62 L 704.38 112.65 L 710.36 117.58 L 716.35 117.58 L 722.34 117.58 L 728.32 117.58 L 734.31 117.58 L 740.29 117.58 L 746.28 117.58 L 752.26 117.58 L 758.25 117.58 L 764.23 117.58 L 770.22 117.58 L 776.20 117.58 L 782.19 117.58 L 788.18 117.58 L 794.16 117.58 L 800.15 117.58 L 806.13 117.58 L 812.12 117.58 L 818.10 117.58 L 824.09 117.58 L 830.07 117.58 L 836.06 117.58 L 842.04 117.58 L 848.03 117.58 L 854.01 117.58 L 860.00 117.58" fill="none" stroke="#3fb950" stroke-width="2"/>
    <circle cx="860.00" cy="117.58" r="3" fill="#3fb950"/>
    <text x="40.00" y="235.00" font-size="9" fill="#c9d1d9" text-anchor="middle" transform="rotate(-45 40.00 235.00)">02.08.25</text><text x="117.81" y="235.00" font-size="9" fill="#c9d1d9" text-anchor="middle" transform="rotate(-45 117.81 235.00)">09.08.25</text><text x="195.62" y="235.00" font-size="9" fill="#c9d1d9" text-anchor="middle" transform="rotate(-45 195.62 235.00)">10.08.25</text><text x="273.43" y="235.00" font-size="9" fill="#c9d1d9" text-anchor="middle" transform="rotate(-45 273.43 235.00)">11.08.25</text><text x="351.24" y="235.00" font-size="9" fill="#c9d1d9" text-anchor="middle" transform="rotate(-45 351.24 235.00)">14.08.25</text><text x="429.05" y="235.00" font-size="9" fill="#c9d1d9" text-anchor="middle" transform="rotate(-45 429.05 235.00)">16.08.25</text><text x="506.86" y="235.00" font-size="9" fill="#c9d1d9" text-anchor="middle" transform="rotate(-45 506.86 235.00)">18.08.25</text><text x="584.67" y="235.00" font-size="9" fill="#c9d1d9" text-anchor="middle" transform="rotate(-45 584.67 235.00)">21.08.25</text><text x="662.48" y="235.00" font-size="9" fill="#c9d1d9" text-anchor="middle" transform="rotate(-45 662.48 235.00)">22.08.25</text><text x="740.29" y="235.00" font-size="9" fill="#c9d1d9" text-anchor="middle" transform="rotate(-45 740.29 235.00)">05.09.25</text><text x="818.10" y="235.00" font-size="9" fill="#c9d1d9" text-anchor="middle" transform="rotate(-45 818.10 235.00)">06.10.25</text>
  </g>
</svg>