<svg xmlns="http://www.w3.org/2000/svg" width="900" height="290" style="font-family: -apple-system, BlinkMacSystemFont, 'Segoe UI', Helvetica, Arial, sans-serif;">
  <rect width="100%" height="100%" fill="white"/>
  <g>
    <line x1="40" y1="220.00" x2="860" y2="220.00" stroke="#e5e7eb"/><text x="32" y="224.00" font-size="10" fill="#111827" text-anchor="end">0</text><line x1="40" y1="175.00" x2="860" y2="175.00" stroke="#e5e7eb"/><text x="32" y="179.00" font-size="10" fill="#111827" text-anchor="end">1.2k</text><line x1="40" y1="130.00" x2="860" y2="130.00" stroke="#e5e7eb"/><text x="32" y="134.00" font-size="10" fill="#111827" text-anchor="end">2.5k</text><line x1="40" y1="85.00" x2="860" y2="85.00" stroke="#e5e7eb"/><text x="32" y="89.00" font-size="10" fill="#111827" text-anchor="end">3.8k</text><line x1="40" y1="40.00" x2="860" y2="40.00" stroke="#e5e7eb"/><text x="32" y="44.00" font-size="10" fill="#111827" text-anchor="end">5k</text>
    <line x1="40.00" y1="40" x2="40.00" y2="220" stroke="#e5e7eb" opacity="0.5"/><line x1="120.66" y1="40" x2="120.66" y2="220" stroke="#e5e7eb" opacity="0.5"/><line x1="201.31" y1="40" x2="201.31" y2="220" stroke="#e5e7eb" opacity="0.5"/><line x1="281.97" y1="40" x2="281.97" y2="220" stroke="#e5e7eb" opacity="0.5"/><line x1="362.62" y1="40" x2="362.62" y2="220" stroke="#e5e7eb" opacity="0.5"/><line x1="443.28" y1="40" x2="443.28" y2="220" stroke="#e5e7eb" opacity="0.5"/><line x1="523.93" y1="40" x2="523.93" y2="220" stroke="#e5e7eb" opacity="0.5"/><line x1="604.59" y1="40" x2="604.59" y2="220" stroke="#e5e7eb" opacity="0.5"/><line x1="685.25" y1="40" x2="685.25" y2="220" stroke="#e5e7eb" opacity="0.5"/><line x1="765.90" y1="40" x2="765.90" y2="220" stroke="#e5e7eb" opacity="0.5"/><line x1="846.56" y1="40" x2="846.56" y2="220" stroke="#e5e7eb" opacity="0.5"/>
    <line x1="40" y1="220" x2="860" y2="220" stroke="#9ca3af"/>
    <line x1="40" y1="40"   x2="40"   y2="220" stroke="#9ca3af"/>
    <path d="M 40.00 203.22 L 46.72 202.72 L 53.44 202.72 L 60.16 202.61 L 66.89 201.39 L 73.61 200.78 L 80.33 200.78 L 87.05 200.78 L 93.77 200.56 L 100.49 195.74 L 107.21 195.74 L 113.93 195.74 L 120.66 194.44 L 127.38 194.08 L 134.10 191.99 L 140.82 191.99 L 147.54 191.92 L 154.26 189.72 L 160.98 189.69 L 167.70 189.65 L 174.43 189.65 L 181.15 189.65 L 187.87 189.65 L 194.59 189.65 L 201.31 189.47 L 208.03 189.47 L 214.75 189.47 L 221.48 189.47 L 228.20 189.00 L 234.92 189.00 L 241.64 189.08 L 248.36 189.08 L 255.08 187.28 L 261.80 179.86 L 268.52 179.75 L 275.25 179.72 L 281.97 179.72 L 288.69 179.72 L 295.41 179.72 L 302.13 179.72 L 308.85 179.72 L 315.57 179.72 L 322.30 178.35 L 329.02 175.76 L 335.74 168.12 L 342.46 166.07 L 349.18 165.50 L 355.90 165.46 L 362.62 164.88 L 369.34 164.88 L 376.07 164.88 L 382.79 164.88 L 389.51 164.78 L 396.23 164.78 L 402.95 163.84 L 409.67 163.55 L 416.39 161.86 L 423.11 161.86 L 429.84 161.61 L 436.56 161.18 L 443.28 158.37 L 450.00 158.40 L 456.72 158.40 L 463.44 158.40 L 470.16 158.40 L 476.89 158.40 L 483.61 158.26 L 490.33 157.54 L 497.05 157.54 L 503.77 157.54 L 510.49 151.42 L 517.21 151.10 L 523.93 151.06 L 530.66 151.06 L 537.38 150.74 L 544.10 150.74 L 550.82 150.74 L 557.54 150.70 L 564.26 150.66 L 570.98 150.66 L 577.70 153.04 L 584.43 153.18 L 591.15 153.18 L 597.87 153.08 L 604.59 153.11 L 611.31 155.06 L 618.03 155.06 L 624.75 155.88 L 631.48 155.88 L 638.20 155.88 L 644.92 155.88 L 651.64 155.67 L 658.36 155.42 L 665.08 155.42 L 671.80 155.27 L 678.52 155.24 L 685.25 153.44 L 691.97 149.98 L 698.69 147.42 L 705.41 147.42 L 712.13 147.42 L 718.85 147.57 L 725.57 146.85 L 732.30 143.90 L 739.02 137.02 L 745.74 134.61 L 752.46 134.61 L 759.18 134.61 L 765.90 118.62 L 772.62 118.62 L 779.34 118.62 L 786.07 112.65 L 792.79 117.58 L 799.51 117.58 L 806.23 117.58 L 812.95 117.58 L 819.67 117.58 L 826.39 117.58 L 833.11 117.58 L 839.84 117.58 L 846.56 117.58 L 853.28 117.58 L 860.00 117.58" fill="none" stroke="#111827" stroke-width="2"/>
    <circle cx="860.00" cy="117.58" r="3" fill="#111827"/>
    <text x="40.00" y="235.00" font-size="9" fill="#111827" text-anchor="middle" transform="rotate(-45 40.00 235.00)">02.08.25</text><text x="120.66" y="235.00" font-size="9" fill="#111827" text-anchor="middle" transform="rotate(-45 120.66 235.00)">09.08.25</text><text x="201.31" y="235.00" font-size="9" fill="#111827" text-anchor="middle" transform="rotate(-45 201.31 235.00)">10.08.25</text><text x="281.97" y="235.00" font-size="9" fill="#111827" text-anchor="middle" transform="rotate(-45 281.97 235.00)">11.08.25</text><text x="362.62" y="235.00" font-size="9" fill="#111827" text-anchor="middle" transform="rotate(-45 362.62 235.00)">13.08.25</text><text x="443.28" y="235.00" font-size="9" fill="#111827" text-anchor="middle" transform="rotate(-45 443.28 235.00)">15.08.25</text><text x="523.93" y="235.00" font-size="9" fill="#111827" text-anchor="middle" transform="rotate(-45 523.93 235.00)">18.08.25</text><text x="604.59" y="235.00" font-size="9" fill="#111827" text-anchor="middle" transform="rotate(-45 604.59 235.00)">19.08.25</text><text x="685.25" y="235.00" font-size="9" fill="#111827" text-anchor="middle" transform="rotate(-45 685.25 235.00)">22.08.25</text><text x="765.90" y="235.00" font-size="9" fill="#111827" text-anchor="middle" transform="rotate(-45 765.90 235.00)">23.08.25</text><text x="846.56" y="235.00" font-size="9" fill="#111827" text-anchor="middle" transform="rotate(-45 846.56 235.00)">05.09.25</text>
  </g>
</svg>