<svg xmlns="http://www.w3.org/2000/svg" width="900" height="290" style="font-family: -apple-system, BlinkMacSystemFont, 'Segoe UI', Helvetica, Arial, sans-serif;">
  <rect width="100%" height="100%" fill="white"/>
  <g>
    <line x1="40" y1="220.00" x2="860" y2="220.00" stroke="#e5e7eb"/><text x="32" y="224.00" font-size="10" fill="#111827" text-anchor="end">0</text><line x1="40" y1="175.00" x2="860" y2="175.00" stroke="#e5e7eb"/><text x="32" y="179.00" font-size="10" fill="#111827" text-anchor="end">750</text><line x1="40" y1="130.00" x2="860" y2="130.00" stroke="#e5e7eb"/><text x="32" y="134.00" font-size="10" fill="#111827" text-anchor="end">1.5k</text><line x1="40" y1="85.00" x2="860" y2="85.00" stroke="#e5e7eb"/><text x="32" y="89.00" font-size="10" fill="#111827" text-anchor="end">2.2k</text><line x1="40" y1="40.00" x2="860" y2="40.00" stroke="#e5e7eb"/><text x="32" y="44.00" font-size="10" fill="#111827" text-anchor="end">3k</text>
    <line x1="40.00" y1="40" x2="40.00" y2="220" stroke="#e5e7eb" opacity="0.5"/><line x1="116.53" y1="40" x2="116.53" y2="220" stroke="#e5e7eb" opacity="0.5"/><line x1="193.07" y1="40" x2="193.07" y2="220" stroke="#e5e7eb" opacity="0.5"/><line x1="269.60" y1="40" x2="269.60" y2="220" stroke="#e5e7eb" opacity="0.5"/><line x1="346.13" y1="40" x2="346.13" y2="220" stroke="#e5e7eb" opacity="0.5"/><line x1="422.67" y1="40" x2="422.67" y2="220" stroke="#e5e7eb" opacity="0.5"/><line x1="499.20" y1="40" x2="499.20" y2="220" stroke="#e5e7eb" opacity="0.5"/><line x1="575.73" y1="40" x2="575.73" y2="220" stroke="#e5e7eb" opacity="0.5"/><line x1="652.27" y1="40" x2="652.27" y2="220" stroke="#e5e7eb" opacity="0.5"/><line x1="728.80" y1="40" x2="728.80" y2="220" stroke="#e5e7eb" opacity="0.5"/><line x1="805.33" y1="40" x2="805.33" y2="220" stroke="#e5e7eb" opacity="0.5"/>
    <line x1="40" y1="220" x2="860" y2="220" stroke="#9ca3af"/>
    <line x1="40" y1="40"   x2="40"   y2="220" stroke="#9ca3af"/>
    <path d="M 40.00 192.04 L 50.93 191.20 L 61.87 191.20 L 72.80 191.02 L 83.73 188.98 L 94.67 187.96 L 105.60 187.96 L 116.53 187.96 L 127.47 187.60 L 138.40 179.56 L 149.33 179.56 L 160.27 179.56 L 171.20 177.40 L 182.13 176.80 L 193.07 173.32 L 204.00 173.32 L 214.93 173.20 L 225.87 169.54 L 236.80 169.48 L 247.73 169.42 L 258.67 169.42 L 269.60 169.42 L 280.53 169.42 L 291.47 169.42 L 302.40 169.12 L 313.33 169.12 L 324.27 169.12 L 335.20 169.12 L 346.13 168.34 L 357.07 168.34 L 368.00 168.46 L 378.93 168.46 L 389.87 165.46 L 400.80 153.10 L 411.73 152.92 L 422.67 152.86 L 433.60 152.86 L 444.53 152.86 L 455.47 152.86 L 466.40 152.86 L 477.33 152.86 L 488.27 152.86 L 499.20 150.58 L 510.13 146.26 L 521.07 133.54 L 532.00 130.12 L 542.93 129.16 L 553.87 129.10 L 564.80 128.14 L 575.73 128.14 L 586.67 128.14 L 597.60 128.14 L 608.53 127.96 L 619.47 127.96 L 630.40 126.40 L 641.33 125.92 L 652.27 123.10 L 663.20 123.10 L 674.13 122.68 L 685.07 121.96 L 696.00 117.28 L 706.93 117.34 L 717.87 117.34 L 728.80 117.34 L 739.73 117.34 L 750.67 117.34 L 761.60 117.10 L 772.53 115.90 L 783.47 115.90 L 794.40 115.90 L 805.33 105.70 L 816.27 105.16 L 827.20 105.10 L 838.13 105.10 L 849.07 104.56 L 860.00 104.56" fill="none" stroke="#111827" stroke-width="2"/>
    <circle cx="860.00" cy="104.56" r="3" fill="#111827"/>
    <text x="40.00" y="235.00" font-size="9" fill="#111827" text-anchor="middle" transform="rotate(-45 40.00 235.00)">02.08.25</text><text x="116.53" y="235.00" font-size="9" fill="#111827" text-anchor="middle" transform="rotate(-45 116.53 235.00)">02.08.25</text><text x="193.07" y="235.00" font-size="9" fill="#111827" text-anchor="middle" transform="rotate(-45 193.07 235.00)">09.08.25</text><text x="269.60" y="235.00" font-size="9" fill="#111827" text-anchor="middle" transform="rotate(-45 269.60 235.00)">10.08.25</text><text x="346.13" y="235.00" font-size="9" fill="#111827" text-anchor="middle" transform="rotate(-45 346.13 235.00)">11.08.25</text><text x="422.67" y="235.00" font-size="9" fill="#111827" text-anchor="middle" transform="rotate(-45 422.67 235.00)">11.08.25</text><text x="499.20" y="235.00" font-size="9" fill="#111827" text-anchor="middle" transform="rotate(-45 499.20 235.00)">13.08.25</text><text x="575.73" y="235.00" font-size="9" fill="#111827" text-anchor="middle" transform="rotate(-45 575.73 235.00)">13.08.25</text><text x="652.27" y="235.00" font-size="9" fill="#111827" text-anchor="middle" transform="rotate(-45 652.27 235.00)">15.08.25</text><text x="728.80" y="235.00" font-size="9" fill="#111827" text-anchor="middle" transform="rotate(-45 728.80 235.00)">16.08.25</text><text x="805.33" y="235.00" font-size="9" fill="#111827" text-anchor="middle" transform="rotate(-45 805.33 235.00)">18.08.25</text>
  </g>
</svg>