<svg xmlns="http://www.w3.org/2000/svg" width="900" height="290" style="font-family: -apple-system, BlinkMacSystemFont, 'Segoe UI', Helvetica, Arial, sans-serif;">
  <rect width="100%" height="100%" fill="white"/>
  <g>
    <line x1="40" y1="220.00" x2="860" y2="220.00" stroke="#e5e7eb"/><text x="32" y="224.00" font-size="10" fill="#111827" text-anchor="end">0</text><line x1="40" y1="184.00" x2="860" y2="184.00" stroke="#e5e7eb"/><text x="32" y="188.00" font-size="10" fill="#111827" text-anchor="end">400</text><line x1="40" y1="148.00" x2="860" y2="148.00" stroke="#e5e7eb"/><text x="32" y="152.00" font-size="10" fill="#111827" text-anchor="end">800</text><line x1="40" y1="112.00" x2="860" y2="112.00" stroke="#e5e7eb"/><text x="32" y="116.00" font-size="10" fill="#111827" text-anchor="end">1.2k</text><line x1="40" y1="76.00" x2="860" y2="76.00" stroke="#e5e7eb"/><text x="32" y="80.00" font-size="10" fill="#111827" text-anchor="end">1.6k</text><line x1="40" y1="40.00" x2="860" y2="40.00" stroke="#e5e7eb"/><text x="32" y="44.00" font-size="10" fill="#111827" text-anchor="end">2k</text>
    <line x1="40.00" y1="40" x2="40.00" y2="220" stroke="#e5e7eb" opacity="0.5"/><line x1="98.57" y1="40" x2="98.57" y2="220" stroke="#e5e7eb" opacity="0.5"/><line x1="157.14" y1="40" x2="157.14" y2="220" stroke="#e5e7eb" opacity="0.5"/><line x1="215.71" y1="40" x2="215.71" y2="220" stroke="#e5e7eb" opacity="0.5"/><line x1="274.29" y1="40" x2="274.29" y2="220" stroke="#e5e7eb" opacity="0.5"/><line x1="332.86" y1="40" x2="332.86" y2="220" stroke="#e5e7eb" opacity="0.5"/><line x1="391.43" y1="40" x2="391.43" y2="220" stroke="#e5e7eb" opacity="0.5"/><line x1="450.00" y1="40" x2="450.00" y2="220" stroke="#e5e7eb" opacity="0.5"/><line x1="508.57" y1="40" x2="508.57" y2="220" stroke="#e5e7eb" opacity="0.5"/><line x1="567.14" y1="40" x2="567.14" y2="220" stroke="#e5e7eb" opacity="0.5"/><line x1="625.71" y1="40" x2="625.71" y2="220" stroke="#e5e7eb" opacity="0.5"/><line x1="684.29" y1="40" x2="684.29" y2="220" stroke="#e5e7eb" opacity="0.5"/><line x1="742.86" y1="40" x2="742.86" y2="220" stroke="#e5e7eb" opacity="0.5"/><line x1="801.43" y1="40" x2="801.43" y2="220" stroke="#e5e7eb" opacity="0.5"/><line x1="860.00" y1="40" x2="860.00" y2="220" stroke="#e5e7eb" opacity="0.5"/>
    <line x1="40" y1="220" x2="860" y2="220" stroke="#9ca3af"/>
    <line x1="40" y1="40"   x2="40"   y2="220" stroke="#9ca3af"/>
    <path d="M 40.00 178.06 L 69.29 176.80 L 98.57 176.80 L 127.86 176.53 L 157.14 173.47 L 186.43 171.94 L 215.71 171.94 L 245.00 171.94 L 274.29 171.40 L 303.57 159.34 L 332.86 159.34 L 362.14 159.34 L 391.43 156.10 L 420.71 155.20 L 450.00 149.98 L 479.29 149.98 L 508.57 149.80 L 537.86 144.31 L 567.14 144.22 L 596.43 144.13 L 625.71 144.13 L 655.00 144.13 L 684.29 144.13 L 713.57 144.13 L 742.86 143.68 L 772.14 143.68 L 801.43 143.68 L 830.71 143.68 L 860.00 142.51" fill="none" stroke="#111827" stroke-width="2"/>
    <circle cx="860.00" cy="142.51" r="3" fill="#111827"/>
    <text x="40.00" y="235.00" font-size="9" fill="#111827" text-anchor="middle" transform="rotate(-45 40.00 235.00)">02.08.25</text><text x="98.57" y="235.00" font-size="9" fill="#111827" text-anchor="middle" transform="rotate(-45 98.57 235.00)">02.08.25</text><text x="157.14" y="235.00" font-size="9" fill="#111827" text-anchor="middle" transform="rotate(-45 157.14 235.00)">02.08.25</text><text x="215.71" y="235.00" font-size="9" fill="#111827" text-anchor="middle" transform="rotate(-45 215.71 235.00)">02.08.25</text><text x="274.29" y="235.00" font-size="9" fill="#111827" text-anchor="middle" transform="rotate(-45 274.29 235.00)">03.08.25</text><text x="332.86" y="235.00" font-size="9" fill="#111827" text-anchor="middle" transform="rotate(-45 332.86 235.00)">03.08.25</text><text x="391.43" y="235.00" font-size="9" fill="#111827" text-anchor="middle" transform="rotate(-45 391.43 235.00)">09.08.25</text><text x="450.00" y="235.00" font-size="9" fill="#111827" text-anchor="middle" transform="rotate(-45 450.00 235.00)">09.08.25</text><text x="508.57" y="235.00" font-size="9" fill="#111827" text-anchor="middle" transform="rotate(-45 508.57 235.00)">10.08.25</text><text x="567.14" y="235.00" font-size="9" fill="#111827" text-anchor="middle" transform="rotate(-45 567.14 235.00)">10.08.25</text><text x="625.71" y="235.00" font-size="9" fill="#111827" text-anchor="middle" transform="rotate(-45 625.71 235.00)">10.08.25</text><text x="684.29" y="235.00" font-size="9" fill="#111827" text-anchor="middle" transform="rotate(-45 684.29 235.00)">10.08.25</text><text x="742.86" y="235.00" font-size="9" fill="#111827" text-anchor="middle" transform="rotate(-45 742.86 235.00)">10.08.25</text><text x="801.43" y="235.00" font-size="9" fill="#111827" text-anchor="middle" transform="rotate(-45 801.43 235.00)">10.08.25</text><text x="860.00" y="235.00" font-size="9" fill="#111827" text-anchor="middle" transform="rotate(-45 860.00 235.00)">11.08.25</text>
  </g>
</svg>