<svg xmlns="http://www.w3.org/2000/svg" width="900" height="290" style="font-family: -apple-system, BlinkMacSystemFont, 'Segoe UI', Helvetica, Arial, sans-serif;">
  <rect width="100%" height="100%" fill="white"/>
  <g>
    <line x1="40" y1="220.00" x2="860" y2="220.00" stroke="#e5e7eb"/><text x="32" y="224.00" font-size="10" fill="#111827" text-anchor="end">0</text><line x1="40" y1="175.00" x2="860" y2="175.00" stroke="#e5e7eb"/><text x="32" y="179.00" font-size="10" fill="#111827" text-anchor="end">1.2k</text><line x1="40" y1="130.00" x2="860" y2="130.00" stroke="#e5e7eb"/><text x="32" y="134.00" font-size="10" fill="#111827" text-anchor="end">2.5k</text><line x1="40" y1="85.00" x2="860" y2="85.00" stroke="#e5e7eb"/><text x="32" y="89.00" font-size="10" fill="#111827" text-anchor="end">3.8k</text><line x1="40" y1="40.00" x2="860" y2="40.00" stroke="#e5e7eb"/><text x="32" y="44.00" font-size="10" fill="#111827" text-anchor="end">5k</text>
    <line x1="40.00" y1="40" x2="40.00" y2="220" stroke="#e5e7eb" opacity="0.5"/><line x1="117.57" y1="40" x2="117.57" y2="220" stroke="#e5e7eb" opacity="0.5"/><line x1="195.14" y1="40" x2="195.14" y2="220" stroke="#e5e7eb" opacity="0.5"/><line x1="272.70" y1="40" x2="272.70" y2="220" stroke="#e5e7eb" opacity="0.5"/><line x1="350.27" y1="40" x2="350.27" y2="220" stroke="#e5e7eb" opacity="0.5"/><line x1="427.84" y1="40" x2="427.84" y2="220" stroke="#e5e7eb" opacity="0.5"/><line x1="505.41" y1="40" x2="505.41" y2="220" stroke="#e5e7eb" opacity="0.5"/><line x1="582.97" y1="40" x2="582.97" y2="220" stroke="#e5e7eb" opacity="0.5"/><line x1="660.54" y1="40" x2="660.54" y2="220" stroke="#e5e7eb" opacity="0.5"/><line x1="738.11" y1="40" x2="738.11" y2="220" stroke="#e5e7eb" opacity="0.5"/><line x1="815.68" y1="40" x2="815.68" y2="220" stroke="#e5e7eb" opacity="0.5"/>
    <line x1="40" y1="220" x2="860" y2="220" stroke="#9ca3af"/>
    <line x1="40" y1="40"   x2="40"   y2="220" stroke="#9ca3af"/>
    <path d="M 40.00 203.22 L 45.54 202.72 L 51.08 202.72 L 56.62 202.61 L 62.16 201.39 L 67.70 200.78 L 73.24 200.78 L 78.78 200.78 L 84.32 200.56 L 89.86 195.74 L 95.41 195.74 L 100.95 195.74 L 106.49 194.44 L 112.03 194.08 L 117.57 191.99 L 123.11 191.99 L 128.65 191.92 L 134.19 189.72 L 139.73 189.69 L 145.27 189.65 L 150.81 189.65 L 156.35 189.65 L 161.89 189.65 L 167.43 189.65 L 172.97 189.47 L 178.51 189.47 L 184.05 189.47 L 189.59 189.47 L 195.14 189.00 L 200.68 189.00 L 206.22 189.08 L 211.76 189.08 L 217.30 187.28 L 222.84 179.86 L 228.38 179.75 L 233.92 179.72 L 239.46 179.72 L 245.00 179.72 L 250.54 179.72 L 256.08 179.72 L 261.62 179.72 L 267.16 179.72 L 272.70 178.35 L 278.24 175.76 L 283.78 168.12 L 289.32 166.07 L 294.86 165.50 L 300.41 165.46 L 305.95 164.88 L 311.49 164.88 L 317.03 164.88 L 322.57 164.88 L 328.11 164.78 L 333.65 164.78 L 339.19 163.84 L 344.73 163.55 L 350.27 161.86 L 355.81 161.86 L 361.35 161.61 L 366.89 161.18 L 372.43 158.37 L 377.97 158.40 L 383.51 158.40 L 389.05 158.40 L 394.59 158.40 L 400.14 158.40 L 405.68 158.26 L 411.22 157.54 L 416.76 157.54 L 422.30 157.54 L 427.84 151.42 L 433.38 151.10 L 438.92 151.06 L 444.46 151.06 L 450.00 150.74 L 455.54 150.74 L 461.08 150.74 L 466.62 150.70 L 472.16 150.66 L 477.70 150.66 L 483.24 153.04 L 488.78 153.18 L 494.32 153.18 L 499.86 153.08 L 505.41 153.11 L 510.95 155.06 L 516.49 155.06 L 522.03 155.88 L 527.57 155.88 L 533.11 155.88 L 538.65 155.88 L 544.19 155.67 L 549.73 155.42 L 555.27 155.42 L 560.81 155.27 L 566.35 155.24 L 571.89 153.44 L 577.43 149.98 L 582.97 147.42 L 588.51 147.42 L 594.05 147.42 L 599.59 147.57 L 605.14 146.85 L 610.68 143.90 L 616.22 137.02 L 621.76 134.61 L 627.30 134.61 L 632.84 134.61 L 638.38 118.62 L 643.92 118.62 L 649.46 118.62 L 655.00 112.65 L 660.54 117.58 L 666.08 117.58 L 671.62 117.58 L 677.16 117.58 L 682.70 117.58 L 688.24 117.58 L 693.78 117.58 L 699.32 117.58 L 704.86 117.58 L 710.41 117.58 L 715.95 117.58 L 721.49 117.58 L 727.03 117.58 L 732.57 117.58 L 738.11 117.58 L 743.65 117.58 L 749.19 117.58 L 754.73 117.58 L 760.27 117.58 L 765.81 117.58 L 771.35 117.58 L 776.89 117.58 L 782.43 117.58 L 787.97 117.58 L 793.51 117.58 L 799.05 117.58 L 804.59 117.58 L 810.14 117.58 L 815.68 117.58 L 821.22 117.58 L 826.76 117.58 L 832.30 117.58 L 837.84 117.58 L 843.38 117.58 L 848.92 117.58 L 854.46 117.58 L 860.00 117.58" fill="none" stroke="#111827" stroke-width="2"/>
    <circle cx="860.00" cy="117.58" r="3" fill="#111827"/>
    <text x="40.00" y="235.00" font-size="9" fill="#111827" text-anchor="middle" transform="rotate(-45 40.00 235.00)">02.08.25</text><text x="117.57" y="235.00" font-size="9" fill="#111827" text-anchor="middle" transform="rotate(-45 117.57 235.00)">09.08.25</text><text x="195.14" y="235.00" font-size="9" fill="#111827" text-anchor="middle" transform="rotate(-45 195.14 235.00)">11.08.25</text><text x="272.70" y="235.00" font-size="9" fill="#111827" text-anchor="middle" transform="rotate(-45 272.70 235.00)">13.08.25</text><text x="350.27" y="235.00" font-size="9" fill="#111827" text-anchor="middle" transform="rotate(-45 350.27 235.00)">15.08.25</text><text x="427.84" y="235.00" font-size="9" fill="#111827" text-anchor="middle" transform="rotate(-45 427.84 235.00)">18.08.25</text><text x="505.41" y="235.00" font-size="9" fill="#111827" text-anchor="middle" transform="rotate(-45 505.41 235.00)">19.08.25</text><text x="582.97" y="235.00" font-size="9" fill="#111827" text-anchor="middle" transform="rotate(-45 582.97 235.00)">22.08.25</text><text x="660.54" y="235.00" font-size="9" fill="#111827" text-anchor="middle" transform="rotate(-45 660.54 235.00)">24.08.25</text><text x="738.11" y="235.00" font-size="9" fill="#111827" text-anchor="middle" transform="rotate(-45 738.11 235.00)">14.09.25</text><text x="815.68" y="235.00" font-size="9" fill="#111827" text-anchor="middle" transform="rotate(-45 815.68 235.00)">10.11.25</text>
  </g>
</svg>