<svg xmlns="http://www.w3.org/2000/svg" width="900" height="290" style="font-family: -apple-system, BlinkMacSystemFont, 'Segoe UI', Helvetica, Arial, sans-serif;">
  <rect width="100%" height="100%" fill="#0d1117"/>
  <g>
    <line x1="40" y1="220.00" x2="860" y2="220.00" stroke="#30363d"/><text x="32" y="224.00" font-size="10" fill="#c9d1d9" text-anchor="end">0</text><line x1="40" y1="184.00" x2="860" y2="184.00" stroke="#30363d"/><text x="32" y="188.00" font-size="10" fill="#c9d1d9" text-anchor="end">6k</text><line x1="40" y1="148.00" x2="860" y2="148.00" stroke="#30363d"/><text x="32" y="152.00" font-size="10" fill="#c9d1d9" text-anchor="end">12k</text><line x1="40" y1="112.00" x2="860" y2="112.00" stroke="#30363d"/><text x="32" y="116.00" font-size="10" fill="#c9d1d9" text-anchor="end">18k</text><line x1="40" y1="76.00" x2="860" y2="76.00" stroke="#30363d"/><text x="32" y="80.00" font-size="10" fill="#c9d1d9" text-anchor="end">24k</text><line x1="40" y1="40.00" x2="860" y2="40.00" stroke="#30363d"/><text x="32" y="44.00" font-size="10" fill="#c9d1d9" text-anchor="end">30k</text>
    <line x1="40.00" y1="40" x2="40.00" y2="220" stroke="#30363d" opacity="0.5"/><line x1="118.10" y1="40" x2="118.10" y2="220" stroke="#30363d" opacity="0.5"/><line x1="196.19" y1="40" x2="196.19" y2="220" stroke="#30363d" opacity="0.5"/><line x1="274.29" y1="40" x2="274.29" y2="220" stroke="#30363d" opacity="0.5"/><line x1="352.38" y1="40" x2="352.38" y2="220" stroke="#30363d" opacity="0.5"/><line x1="430.48" y1="40" x2="430.48" y2="220" stroke="#30363d" opacity="0.5"/><line x1="508.57" y1="40" x2="508.57" y2="220" stroke="#30363d" opacity="0.5"/><line x1="586.67" y1="40" x2="586.67" y2="220" stroke="#30363d" opacity="0.5"/><line x1="664.76" y1="40" x2="664.76" y2="220" stroke="#30363d" opacity="0.5"/><line x1="742.86" y1="40" x2="742.86" y2="220" stroke="#30363d" opacity="0.5"/><line x1="820.95" y1="40" x2="820.95" y2="220" stroke="#30363d" opacity="0.5"/>
    <line x1="40" y1="220" x2="860" y2="220" stroke="#30363d"/>
    <line x1="40" y1="40"   x2="40"   y2="220" stroke="#30363d"/>
    <path d="M 40.00 128.65 L 79.05 128.57 L 118.10 128.57 L 157.14 128.09 L 196.19 127.89 L 235.24 127.79 L 274.29 127.79 L 313.33 127.79 L 352.38 120.35 L 391.43 119.54 L 430.48 119.54 L 469.52 119.54 L 508.57 117.59 L 547.62 117.53 L 586.67 117.23 L 625.71 117.23 L 664.76 117.22 L 703.81 116.85 L 742.86 116.85 L 781.90 116.84 L 820.95 116.84 L 860.00 116.84" fill="none" stroke="#3fb950" stroke-width="2"/>
    <circle cx="860.00" cy="116.84" r="3" fill="#3fb950"/>
    <text x="40.00" y="235.00" font-size="9" fill="#c9d1d9" text-anchor="middle" transform="rotate(-45 40.00 235.00)">02.08.2025</text><text x="118.10" y="235.00" font-size="9" fill="#c9d1d9" text-anchor="middle" transform="rotate(-45 118.10 235.00)">02.08.2025</text><text x="196.19" y="235.00" font-size="9" fill="#c9d1d9" text-anchor="middle" transform="rotate(-45 196.19 235.00)">02.08.2025</text><text x="274.29" y="235.00" font-size="9" fill="#c9d1d9" text-anchor="middle" transform="rotate(-45 274.29 235.00)">02.08.2025</text><text x="352.38" y="235.00" font-size="9" fill="#c9d1d9" text-anchor="middle" transform="rotate(-45 352.38 235.00)">03.08.2025</text><text x="430.48" y="235.00" font-size="9" fill="#c9d1d9" text-anchor="middle" transform="rotate(-45 430.48 235.00)">03.08.2025</text><text x="508.57" y="235.00" font-size="9" fill="#c9d1d9" text-anchor="middle" transform="rotate(-45 508.57 235.00)">09.08.2025</text><text x="586.67" y="235.00" font-size="9" fill="#c9d1d9" text-anchor="middle" transform="rotate(-45 586.67 235.00)">09.08.2025</text><text x="664.76" y="235.00" font-size="9" fill="#c9d1d9" text-anchor="middle" transform="rotate(-45 664.76 235.00)">10.08.2025</text><text x="742.86" y="235.00" font-size="9" fill="#c9d1d9" text-anchor="middle" transform="rotate(-45 742.86 235.00)">10.08.2025</text><text x="820.95" y="235.00" font-size="9" fill="#c9d1d9" text-anchor="middle" transform="rotate(-45 820.95 235.00)">10.08.2025</text>
  </g>
</svg>