<svg xmlns="http://www.w3.org/2000/svg" width="900" height="290" style="font-family: -apple-system, BlinkMacSystemFont, 'Segoe UI', Helvetica, Arial, sans-serif;">
  <rect width="100%" height="100%" fill="#0d1117"/>
  <g>
    <line x1="40" y1="220.00" x2="860" y2="220.00" stroke="#30363d"/><text x="32" y="224.00" font-size="10" fill="#c9d1d9" text-anchor="end">0</text><line x1="40" y1="175.00" x2="860" y2="175.00" stroke="#30363d"/><text x="32" y="179.00" font-size="10" fill="#c9d1d9" text-anchor="end">500</text><line x1="40" y1="130.00" x2="860" y2="130.00" stroke="#30363d"/><text x="32" y="134.00" font-size="10" fill="#c9d1d9" text-anchor="end">1k</text><line x1="40" y1="85.00" x2="860" y2="85.00" stroke="#30363d"/><text x="32" y="89.00" font-size="10" fill="#c9d1d9" text-anchor="end">1.5k</text><line x1="40" y1="40.00" x2="860" y2="40.00" stroke="#30363d"/><text x="32" y="44.00" font-size="10" fill="#c9d1d9" text-anchor="end">2k</text>
    <line x1="40.00" y1="40" x2="40.00" y2="220" stroke="#30363d" opacity="0.5"/><line x1="124.10" y1="40" x2="124.10" y2="220" stroke="#30363d" opacity="0.5"/><line x1="208.21" y1="40" x2="208.21" y2="220" stroke="#30363d" opacity="0.5"/><line x1="292.31" y1="40" x2="292.31" y2="220" stroke="#30363d" opacity="0.5"/><line x1="376.41" y1="40" x2="376.41" y2="220" stroke="#30363d" opacity="0.5"/><line x1="460.51" y1="40" x2="460.51" y2="220" stroke="#30363d" opacity="0.5"/><line x1="544.62" y1="40" x2="544.62" y2="220" stroke="#30363d" opacity="0.5"/><line x1="628.72" y1="40" x2="628.72" y2="220" stroke="#30363d" opacity="0.5"/><line x1="712.82" y1="40" x2="712.82" y2="220" stroke="#30363d" opacity="0.5"/><line x1="796.92" y1="40" x2="796.92" y2="220" stroke="#30363d" opacity="0.5"/>
    <line x1="40" y1="220" x2="860" y2="220" stroke="#30363d"/>
    <line x1="40" y1="40"   x2="40"   y2="220" stroke="#30363d"/>
    <path d="M 40.00 178.06 L 61.03 176.80 L 82.05 176.80 L 103.08 176.53 L 124.10 173.47 L 145.13 171.94 L 166.15 171.94 L 187.18 171.94 L 208.21 171.40 L 229.23 159.34 L 250.26 159.34 L 271.28 159.34 L 292.31 156.10 L 313.33 155.20 L 334.36 149.98 L 355.38 149.98 L 376.41 149.80 L 397.44 144.31 L 418.46 144.22 L 439.49 144.13 L 460.51 144.13 L 481.54 144.13 L 502.56 144.13 L 523.59 144.13 L 544.62 143.68 L 565.64 143.68 L 586.67 143.68 L 607.69 143.68 L 628.72 142.51 L 649.74 142.51 L 670.77 142.69 L 691.79 142.69 L 712.82 138.19 L 733.85 119.65 L 754.87 119.38 L 775.90 119.29 L 796.92 119.29 L 817.95 119.29 L 838.97 119.29 L 860.00 119.29" fill="none" stroke="#3fb950" stroke-width="2"/>
    <circle cx="860.00" cy="119.29" r="3" fill="#3fb950"/>
    <text x="40.00" y="235.00" font-size="9" fill="#c9d1d9" text-anchor="middle" transform="rotate(-45 40.00 235.00)">02.08.25</text><text x="124.10" y="235.00" font-size="9" fill="#c9d1d9" text-anchor="middle" transform="rotate(-45 124.10 235.00)">02.08.25</text><text x="208.21" y="235.00" font-size="9" fill="#c9d1d9" text-anchor="middle" transform="rotate(-45 208.21 235.00)">03.08.25</text><text x="292.31" y="235.00" font-size="9" fill="#c9d1d9" text-anchor="middle" transform="rotate(-45 292.31 235.00)">09.08.25</text><text x="376.41" y="235.00" font-size="9" fill="#c9d1d9" text-anchor="middle" transform="rotate(-45 376.41 235.00)">10.08.25</text><text x="460.51" y="235.00" font-size="9" fill="#c9d1d9" text-anchor="middle" transform="rotate(-45 460.51 235.00)">10.08.25</text><text x="544.62" y="235.00" font-size="9" fill="#c9d1d9" text-anchor="middle" transform="rotate(-45 544.62 235.00)">10.08.25</text><text x="628.72" y="235.00" font-size="9" fill="#c9d1d9" text-anchor="middle" transform="rotate(-45 628.72 235.00)">11.08.25</text><text x="712.82" y="235.00" font-size="9" fill="#c9d1d9" text-anchor="middle" transform="rotate(-45 712.82 235.00)">11.08.25</text><text x="796.92" y="235.00" font-size="9" fill="#c9d1d9" text-anchor="middle" transform="rotate(-45 796.92 235.00)">11.08.25</text>
  </g>
</svg>