<svg xmlns="http://www.w3.org/2000/svg" width="900" height="290" style="font-family: -apple-system, BlinkMacSystemFont, 'Segoe UI', Helvetica, Arial, sans-serif;">
  <rect width="100%" height="100%" fill="white"/>
  <g>
    <line x1="40" y1="220.00" x2="860" y2="220.00" stroke="#e5e7eb"/><text x="32" y="224.00" font-size="10" fill="#111827" text-anchor="end">0</text><line x1="40" y1="175.00" x2="860" y2="175.00" stroke="#e5e7eb"/><text x="32" y="179.00" font-size="10" fill="#111827" text-anchor="end">750</text><line x1="40" y1="130.00" x2="860" y2="130.00" stroke="#e5e7eb"/><text x="32" y="134.00" font-size="10" fill="#111827" text-anchor="end">1.5k</text><line x1="40" y1="85.00" x2="860" y2="85.00" stroke="#e5e7eb"/><text x="32" y="89.00" font-size="10" fill="#111827" text-anchor="end">2.2k</text><line x1="40" y1="40.00" x2="860" y2="40.00" stroke="#e5e7eb"/><text x="32" y="44.00" font-size="10" fill="#111827" text-anchor="end">3k</text>
    <line x1="40.00" y1="40" x2="40.00" y2="220" stroke="#e5e7eb" opacity="0.5"/><line x1="122.75" y1="40" x2="122.75" y2="220" stroke="#e5e7eb" opacity="0.5"/><line x1="205.50" y1="40" x2="205.50" y2="220" stroke="#e5e7eb" opacity="0.5"/><line x1="288.26" y1="40" x2="288.26" y2="220" stroke="#e5e7eb" opacity="0.5"/><line x1="371.01" y1="40" x2="371.01" y2="220" stroke="#e5e7eb" opacity="0.5"/><line x1="453.76" y1="40" x2="453.76" y2="220" stroke="#e5e7eb" opacity="0.5"/><line x1="536.51" y1="40" x2="536.51" y2="220" stroke="#e5e7eb" opacity="0.5"/><line x1="619.27" y1="40" x2="619.27" y2="220" stroke="#e5e7eb" opacity="0.5"/><line x1="702.02" y1="40" x2="702.02" y2="220" stroke="#e5e7eb" opacity="0.5"/><line x1="784.77" y1="40" x2="784.77" y2="220" stroke="#e5e7eb" opacity="0.5"/>
    <line x1="40" y1="220" x2="860" y2="220" stroke="#9ca3af"/>
    <line x1="40" y1="40"   x2="40"   y2="220" stroke="#9ca3af"/>
    <path d="M 40.00 192.04 L 47.52 191.20 L 55.05 191.20 L 62.57 191.02 L 70.09 188.98 L 77.61 187.96 L 85.14 187.96 L 92.66 187.96 L 100.18 187.60 L 107.71 179.56 L 115.23 179.56 L 122.75 179.56 L 130.28 177.40 L 137.80 176.80 L 145.32 173.32 L 152.84 173.32 L 160.37 173.20 L 167.89 169.54 L 175.41 169.48 L 182.94 169.42 L 190.46 169.42 L 197.98 169.42 L 205.50 169.42 L 213.03 169.42 L 220.55 169.12 L 228.07 169.12 L 235.60 169.12 L 243.12 169.12 L 250.64 168.34 L 258.17 168.34 L 265.69 168.46 L 273.21 168.46 L 280.73 165.46 L 288.26 153.10 L 295.78 152.92 L 303.30 152.86 L 310.83 152.86 L 318.35 152.86 L 325.87 152.86 L 333.39 152.86 L 340.92 152.86 L 348.44 152.86 L 355.96 150.58 L 363.49 146.26 L 371.01 133.54 L 378.53 130.12 L 386.06 129.16 L 393.58 129.10 L 401.10 128.14 L 408.62 128.14 L 416.15 128.14 L 423.67 128.14 L 431.19 127.96 L 438.72 127.96 L 446.24 126.40 L 453.76 125.92 L 461.28 123.10 L 468.81 123.10 L 476.33 122.68 L 483.85 121.96 L 491.38 117.28 L 498.90 117.34 L 506.42 117.34 L 513.94 117.34 L 521.47 117.34 L 528.99 117.34 L 536.51 117.10 L 544.04 115.90 L 551.56 115.90 L 559.08 115.90 L 566.61 105.70 L 574.13 105.16 L 581.65 105.10 L 589.17 105.10 L 596.70 104.56 L 604.22 104.56 L 611.74 104.56 L 619.27 104.50 L 626.79 104.44 L 634.31 104.44 L 641.83 108.40 L 649.36 108.64 L 656.88 108.64 L 664.40 108.46 L 671.93 108.52 L 679.45 111.76 L 686.97 111.76 L 694.50 113.14 L 702.02 113.14 L 709.54 113.14 L 717.06 113.14 L 724.59 112.78 L 732.11 112.36 L 739.63 112.36 L 747.16 112.12 L 754.68 112.06 L 762.20 109.06 L 769.72 103.30 L 777.25 99.04 L 784.77 99.04 L 792.29 99.04 L 799.82 99.28 L 807.34 98.08 L 814.86 93.16 L 822.39 81.70 L 829.91 77.68 L 837.43 77.68 L 844.95 77.68 L 852.48 51.04 L 860.00 51.04" fill="none" stroke="#111827" stroke-width="2"/>
    <circle cx="860.00" cy="51.04" r="3" fill="#111827"/>
    <text x="40.00" y="235.00" font-size="9" fill="#111827" text-anchor="middle" transform="rotate(-45 40.00 235.00)">02.08.25</text><text x="122.75" y="235.00" font-size="9" fill="#111827" text-anchor="middle" transform="rotate(-45 122.75 235.00)">03.08.25</text><text x="205.50" y="235.00" font-size="9" fill="#111827" text-anchor="middle" transform="rotate(-45 205.50 235.00)">10.08.25</text><text x="288.26" y="235.00" font-size="9" fill="#111827" text-anchor="middle" transform="rotate(-45 288.26 235.00)">11.08.25</text><text x="371.01" y="235.00" font-size="9" fill="#111827" text-anchor="middle" transform="rotate(-45 371.01 235.00)">13.08.25</text><text x="453.76" y="235.00" font-size="9" fill="#111827" text-anchor="middle" transform="rotate(-45 453.76 235.00)">15.08.25</text><text x="536.51" y="235.00" font-size="9" fill="#111827" text-anchor="middle" transform="rotate(-45 536.51 235.00)">16.08.25</text><text x="619.27" y="235.00" font-size="9" fill="#111827" text-anchor="middle" transform="rotate(-45 619.27 235.00)">18.08.25</text><text x="702.02" y="235.00" font-size="9" fill="#111827" text-anchor="middle" transform="rotate(-45 702.02 235.00)">20.08.25</text><text x="784.77" y="235.00" font-size="9" fill="#111827" text-anchor="middle" transform="rotate(-45 784.77 235.00)">22.08.25</text>
  </g>
</svg>