<svg xmlns="http://www.w3.org/2000/svg" width="900" height="290" style="font-family: -apple-system, BlinkMacSystemFont, 'Segoe UI', Helvetica, Arial, sans-serif;">
  <rect width="100%" height="100%" fill="#0d1117"/>
  <g>
    <line x1="40" y1="220.00" x2="860" y2="220.00" stroke="#30363d"/><text x="32" y="224.00" font-size="10" fill="#c9d1d9" text-anchor="end">0</text><line x1="40" y1="175.00" x2="860" y2="175.00" stroke="#30363d"/><text x="32" y="179.00" font-size="10" fill="#c9d1d9" text-anchor="end">1.2k</text><line x1="40" y1="130.00" x2="860" y2="130.00" stroke="#30363d"/><text x="32" y="134.00" font-size="10" fill="#c9d1d9" text-anchor="end">2.5k</text><line x1="40" y1="85.00" x2="860" y2="85.00" stroke="#30363d"/><text x="32" y="89.00" font-size="10" fill="#c9d1d9" text-anchor="end">3.8k</text><line x1="40" y1="40.00" x2="860" y2="40.00" stroke="#30363d"/><text x="32" y="44.00" font-size="10" fill="#c9d1d9" text-anchor="end">5k</text>
    <line x1="40.00" y1="40" x2="40.00" y2="220" stroke="#30363d" opacity="0.5"/><line x1="119.17" y1="40" x2="119.17" y2="220" stroke="#30363d" opacity="0.5"/><line x1="198.34" y1="40" x2="198.34" y2="220" stroke="#30363d" opacity="0.5"/><line x1="277.52" y1="40" x2="277.52" y2="220" stroke="#30363d" opacity="0.5"/><line x1="356.69" y1="40" x2="356.69" y2="220" stroke="#30363d" opacity="0.5"/><line x1="435.86" y1="40" x2="435.86" y2="220" stroke="#30363d" opacity="0.5"/><line x1="515.03" y1="40" x2="515.03" y2="220" stroke="#30363d" opacity="0.5"/><line x1="594.21" y1="40" x2="594.21" y2="220" stroke="#30363d" opacity="0.5"/><line x1="673.38" y1="40" x2="673.38" y2="220" stroke="#30363d" opacity="0.5"/><line x1="752.55" y1="40" x2="752.55" y2="220" stroke="#30363d" opacity="0.5"/><line x1="831.72" y1="40" x2="831.72" y2="220" stroke="#30363d" opacity="0.5"/>
    <line x1="40" y1="220" x2="860" y2="220" stroke="#30363d"/>
    <line x1="40" y1="40"   x2="40"   y2="220" stroke="#30363d"/>
    <path d="M 40.00 203.22 L 45.66 202.72 L 51.31 202.72 L 56.97 202.61 L 62.62 201.39 L 68.28 200.78 L 73.93 200.78 L 79.59 200.78 L 85.24 200.56 L 90.90 195.74 L 96.55 195.74 L 102.21 195.74 L 107.86 194.44 L 113.52 194.08 L 119.17 191.99 L 124.83 191.99 L 130.48 191.92 L 136.14 189.72 L 141.79 189.69 L 147.45 189.65 L 153.10 189.65 L 158.76 189.65 L 164.41 189.65 L 170.07 189.65 L 175.72 189.47 L 181.38 189.47 L 187.03 189.47 L 192.69 189.47 L 198.34 189.00 L 204.00 189.00 L 209.66 189.08 L 215.31 189.08 L 220.97 187.28 L 226.62 179.86 L 232.28 179.75 L 237.93 179.72 L 243.59 179.72 L 249.24 179.72 L 254.90 179.72 L 260.55 179.72 L 266.21 179.72 L 271.86 179.72 L 277.52 178.35 L 283.17 175.76 L 288.83 168.12 L 294.48 166.07 L 300.14 165.50 L 305.79 165.46 L 311.45 164.88 L 317.10 164.88 L 322.76 164.88 L 328.41 164.88 L 334.07 164.78 L 339.72 164.78 L 345.38 163.84 L 351.03 163.55 L 356.69 161.86 L 362.34 161.86 L 368.00 161.61 L 373.66 161.18 L 379.31 158.37 L 384.97 158.40 L 390.62 158.40 L 396.28 158.40 L 401.93 158.40 L 407.59 158.40 L 413.24 158.26 L 418.90 157.54 L 424.55 157.54 L 430.21 157.54 L 435.86 151.42 L 441.52 151.10 L 447.17 151.06 L 452.83 151.06 L 458.48 150.74 L 464.14 150.74 L 469.79 150.74 L 475.45 150.70 L 481.10 150.66 L 486.76 150.66 L 492.41 153.04 L 498.07 153.18 L 503.72 153.18 L 509.38 153.08 L 515.03 153.11 L 520.69 155.06 L 526.34 155.06 L 532.00 155.88 L 537.66 155.88 L 543.31 155.88 L 548.97 155.88 L 554.62 155.67 L 560.28 155.42 L 565.93 155.42 L 571.59 155.27 L 577.24 155.24 L 582.90 153.44 L 588.55 149.98 L 594.21 147.42 L 599.86 147.42 L 605.52 147.42 L 611.17 147.57 L 616.83 146.85 L 622.48 143.90 L 628.14 137.02 L 633.79 134.61 L 639.45 134.61 L 645.10 134.61 L 650.76 118.62 L 656.41 118.62 L 662.07 118.62 L 667.72 112.65 L 673.38 117.58 L 679.03 117.58 L 684.69 117.58 L 690.34 117.58 L 696.00 117.58 L 701.66 117.58 L 707.31 117.58 L 712.97 117.58 L 718.62 117.58 L 724.28 117.58 L 729.93 117.58 L 735.59 117.58 L 741.24 117.58 L 746.90 117.58 L 752.55 117.58 L 758.21 117.58 L 763.86 117.58 L 769.52 117.58 L 775.17 117.58 L 780.83 117.58 L 786.48 117.58 L 792.14 117.58 L 797.79 117.58 L 803.45 117.58 L 809.10 117.58 L 814.76 117.58 L 820.41 117.58 L 826.07 117.58 L 831.72 117.58 L 837.38 117.58 L 843.03 117.58 L 848.69 117.58 L 854.34 117.58 L 860.00 117.58" fill="none" stroke="#3fb950" stroke-width="2"/>
    <circle cx="860.00" cy="117.58" r="3" fill="#3fb950"/>
    <text x="40.00" y="235.00" font-size="9" fill="#c9d1d9" text-anchor="middle" transform="rotate(-45 40.00 235.00)">02.08.25</text><text x="119.17" y="235.00" font-size="9" fill="#c9d1d9" text-anchor="middle" transform="rotate(-45 119.17 235.00)">09.08.25</text><text x="198.34" y="235.00" font-size="9" fill="#c9d1d9" text-anchor="middle" transform="rotate(-45 198.34 235.00)">11.08.25</text><text x="277.52" y="235.00" font-size="9" fill="#c9d1d9" text-anchor="middle" transform="rotate(-45 277.52 235.00)">13.08.25</text><text x="356.69" y="235.00" font-size="9" fill="#c9d1d9" text-anchor="middle" transform="rotate(-45 356.69 235.00)">15.08.25</text><text x="435.86" y="235.00" font-size="9" fill="#c9d1d9" text-anchor="middle" transform="rotate(-45 435.86 235.00)">18.08.25</text><text x="515.03" y="235.00" font-size="9" fill="#c9d1d9" text-anchor="middle" transform="rotate(-45 515.03 235.00)">19.08.25</text><text x="594.21" y="235.00" font-size="9" fill="#c9d1d9" text-anchor="middle" transform="rotate(-45 594.21 235.00)">22.08.25</text><text x="673.38" y="235.00" font-size="9" fill="#c9d1d9" text-anchor="middle" transform="rotate(-45 673.38 235.00)">24.08.25</text><text x="752.55" y="235.00" font-size="9" fill="#c9d1d9" text-anchor="middle" transform="rotate(-45 752.55 235.00)">14.09.25</text><text x="831.72" y="235.00" font-size="9" fill="#c9d1d9" text-anchor="middle" transform="rotate(-45 831.72 235.00)">10.11.25</text>
  </g>
</svg>