<svg xmlns="http://www.w3.org/2000/svg" width="900" height="290" style="font-family: -apple-system, BlinkMacSystemFont, 'Segoe UI', Helvetica, Arial, sans-serif;">
  <rect width="100%" height="100%" fill="#0d1117"/>
  <g>
    <line x1="40" y1="220.00" x2="860" y2="220.00" stroke="#30363d"/><text x="32" y="224.00" font-size="10" fill="#c9d1d9" text-anchor="end">0</text><line x1="40" y1="175.00" x2="860" y2="175.00" stroke="#30363d"/><text x="32" y="179.00" font-size="10" fill="#c9d1d9" text-anchor="end">1.2k</text><line x1="40" y1="130.00" x2="860" y2="130.00" stroke="#30363d"/><text x="32" y="134.00" font-size="10" fill="#c9d1d9" text-anchor="end">2.5k</text><line x1="40" y1="85.00" x2="860" y2="85.00" stroke="#30363d"/><text x="32" y="89.00" font-size="10" fill="#c9d1d9" text-anchor="end">3.8k</text><line x1="40" y1="40.00" x2="860" y2="40.00" stroke="#30363d"/><text x="32" y="44.00" font-size="10" fill="#c9d1d9" text-anchor="end">5k</text>
    <line x1="40.00" y1="40" x2="40.00" y2="220" stroke="#30363d" opacity="0.5"/><line x1="116.88" y1="40" x2="116.88" y2="220" stroke="#30363d" opacity="0.5"/><line x1="193.75" y1="40" x2="193.75" y2="220" stroke="#30363d" opacity="0.5"/><line x1="270.62" y1="40" x2="270.62" y2="220" stroke="#30363d" opacity="0.5"/><line x1="347.50" y1="40" x2="347.50" y2="220" stroke="#30363d" opacity="0.5"/><line x1="424.38" y1="40" x2="424.38" y2="220" stroke="#30363d" opacity="0.5"/><line x1="501.25" y1="40" x2="501.25" y2="220" stroke="#30363d" opacity="0.5"/><line x1="578.12" y1="40" x2="578.12" y2="220" stroke="#30363d" opacity="0.5"/><line x1="655.00" y1="40" x2="655.00" y2="220" stroke="#30363d" opacity="0.5"/><line x1="731.88" y1="40" x2="731.88" y2="220" stroke="#30363d" opacity="0.5"/><line x1="808.75" y1="40" x2="808.75" y2="220" stroke="#30363d" opacity="0.5"/>
    <line x1="40" y1="220" x2="860" y2="220" stroke="#30363d"/>
    <line x1="40" y1="40"   x2="40"   y2="220" stroke="#30363d"/>
    <path d="M 40.00 203.22 L 46.41 202.72 L 52.81 202.72 L 59.22 202.61 L 65.62 201.39 L 72.03 200.78 L 78.44 200.78 L 84.84 200.78 L 91.25 200.56 L 97.66 195.74 L 104.06 195.74 L 110.47 195.74 L 116.88 194.44 L 123.28 194.08 L 129.69 191.99 L 136.09 191.99 L 142.50 191.92 L 148.91 189.72 L 155.31 189.69 L 161.72 189.65 L 168.12 189.65 L 174.53 189.65 L 180.94 189.65 L 187.34 189.65 L 193.75 189.47 L 200.16 189.47 L 206.56 189.47 L 212.97 189.47 L 219.38 189.00 L 225.78 189.00 L 232.19 189.08 L 238.59 189.08 L 245.00 187.28 L 251.41 179.86 L 257.81 179.75 L 264.22 179.72 L 270.62 179.72 L 277.03 179.72 L 283.44 179.72 L 289.84 179.72 L 296.25 179.72 L 302.66 179.72 L 309.06 178.35 L 315.47 175.76 L 321.88 168.12 L 328.28 166.07 L 334.69 165.50 L 341.09 165.46 L 347.50 164.88 L 353.91 164.88 L 360.31 164.88 L 366.72 164.88 L 373.12 164.78 L 379.53 164.78 L 385.94 163.84 L 392.34 163.55 L 398.75 161.86 L 405.16 161.86 L 411.56 161.61 L 417.97 161.18 L 424.38 158.37 L 430.78 158.40 L 437.19 158.40 L 443.59 158.40 L 450.00 158.40 L 456.41 158.40 L 462.81 158.26 L 469.22 157.54 L 475.62 157.54 L 482.03 157.54 L 488.44 151.42 L 494.84 151.10 L 501.25 151.06 L 507.66 151.06 L 514.06 150.74 L 520.47 150.74 L 526.88 150.74 L 533.28 150.70 L 539.69 150.66 L 546.09 150.66 L 552.50 153.04 L 558.91 153.18 L 565.31 153.18 L 571.72 153.08 L 578.12 153.11 L 584.53 155.06 L 590.94 155.06 L 597.34 155.88 L 603.75 155.88 L 610.16 155.88 L 616.56 155.88 L 622.97 155.67 L 629.38 155.42 L 635.78 155.42 L 642.19 155.27 L 648.59 155.24 L 655.00 153.44 L 661.41 149.98 L 667.81 147.42 L 674.22 147.42 L 680.62 147.42 L 687.03 147.57 L 693.44 146.85 L 699.84 143.90 L 706.25 137.02 L 712.66 134.61 L 719.06 134.61 L 725.47 134.61 L 731.88 118.62 L 738.28 118.62 L 744.69 118.62 L 751.09 112.65 L 757.50 117.58 L 763.91 117.58 L 770.31 117.58 L 776.72 117.58 L 783.12 117.58 L 789.53 117.58 L 795.94 117.58 L 802.34 117.58 L 808.75 117.58 L 815.16 117.58 L 821.56 117.58 L 827.97 117.58 L 834.38 117.58 L 840.78 117.58 L 847.19 117.58 L 853.59 117.58 L 860.00 117.58" fill="none" stroke="#3fb950" stroke-width="2"/>
    <circle cx="860.00" cy="117.58" r="3" fill="#3fb950"/>
    <text x="40.00" y="235.00" font-size="9" fill="#c9d1d9" text-anchor="middle" transform="rotate(-45 40.00 235.00)">02.08.25</text><text x="116.88" y="235.00" font-size="9" fill="#c9d1d9" text-anchor="middle" transform="rotate(-45 116.88 235.00)">09.08.25</text><text x="193.75" y="235.00" font-size="9" fill="#c9d1d9" text-anchor="middle" transform="rotate(-45 193.75 235.00)">10.08.25</text><text x="270.62" y="235.00" font-size="9" fill="#c9d1d9" text-anchor="middle" transform="rotate(-45 270.62 235.00)">11.08.25</text><text x="347.50" y="235.00" font-size="9" fill="#c9d1d9" text-anchor="middle" transform="rotate(-45 347.50 235.00)">13.08.25</text><text x="424.38" y="235.00" font-size="9" fill="#c9d1d9" text-anchor="middle" transform="rotate(-45 424.38 235.00)">15.08.25</text><text x="501.25" y="235.00" font-size="9" fill="#c9d1d9" text-anchor="middle" transform="rotate(-45 501.25 235.00)">18.08.25</text><text x="578.12" y="235.00" font-size="9" fill="#c9d1d9" text-anchor="middle" transform="rotate(-45 578.12 235.00)">19.08.25</text><text x="655.00" y="235.00" font-size="9" fill="#c9d1d9" text-anchor="middle" transform="rotate(-45 655.00 235.00)">22.08.25</text><text x="731.88" y="235.00" font-size="9" fill="#c9d1d9" text-anchor="middle" transform="rotate(-45 731.88 235.00)">23.08.25</text><text x="808.75" y="235.00" font-size="9" fill="#c9d1d9" text-anchor="middle" transform="rotate(-45 808.75 235.00)">05.09.25</text>
  </g>
</svg>