<svg xmlns="http://www.w3.org/2000/svg" width="900" height="290" style="font-family: -apple-system, BlinkMacSystemFont, 'Segoe UI', Helvetica, Arial, sans-serif;">
  <rect width="100%" height="100%" fill="white"/>
  <g>
    <line x1="40" y1="220.00" x2="860" y2="220.00" stroke="#e5e7eb"/><text x="32" y="224.00" font-size="10" fill="#111827" text-anchor="end">0</text><line x1="40" y1="175.00" x2="860" y2="175.00" stroke="#e5e7eb"/><text x="32" y="179.00" font-size="10" fill="#111827" text-anchor="end">1.2k</text><line x1="40" y1="130.00" x2="860" y2="130.00" stroke="#e5e7eb"/><text x="32" y="134.00" font-size="10" fill="#111827" text-anchor="end">2.5k</text><line x1="40" y1="85.00" x2="860" y2="85.00" stroke="#e5e7eb"/><text x="32" y="89.00" font-size="10" fill="#111827" text-anchor="end">3.8k</text><line x1="40" y1="40.00" x2="860" y2="40.00" stroke="#e5e7eb"/><text x="32" y="44.00" font-size="10" fill="#111827" text-anchor="end">5k</text>
    <line x1="40.00" y1="40" x2="40.00" y2="220" stroke="#e5e7eb" opacity="0.5"/><line x1="122.64" y1="40" x2="122.64" y2="220" stroke="#e5e7eb" opacity="0.5"/><line x1="205.27" y1="40" x2="205.27" y2="220" stroke="#e5e7eb" opacity="0.5"/><line x1="287.91" y1="40" x2="287.91" y2="220" stroke="#e5e7eb" opacity="0.5"/><line x1="370.54" y1="40" x2="370.54" y2="220" stroke="#e5e7eb" opacity="0.5"/><line x1="453.18" y1="40" x2="453.18" y2="220" stroke="#e5e7eb" opacity="0.5"/><line x1="535.81" y1="40" x2="535.81" y2="220" stroke="#e5e7eb" opacity="0.5"/><line x1="618.45" y1="40" x2="618.45" y2="220" stroke="#e5e7eb" opacity="0.5"/><line x1="701.09" y1="40" x2="701.09" y2="220" stroke="#e5e7eb" opacity="0.5"/><line x1="783.72" y1="40" x2="783.72" y2="220" stroke="#e5e7eb" opacity="0.5"/>
    <line x1="40" y1="220" x2="860" y2="220" stroke="#9ca3af"/>
    <line x1="40" y1="40"   x2="40"   y2="220" stroke="#9ca3af"/>
    <path d="M 40.00 203.22 L 46.36 202.72 L 52.71 202.72 L 59.07 202.61 L 65.43 201.39 L 71.78 200.78 L 78.14 200.78 L 84.50 200.78 L 90.85 200.56 L 97.21 195.74 L 103.57 195.74 L 109.92 195.74 L 116.28 194.44 L 122.64 194.08 L 128.99 191.99 L 135.35 191.99 L 141.71 191.92 L 148.06 189.72 L 154.42 189.69 L 160.78 189.65 L 167.13 189.65 L 173.49 189.65 L 179.84 189.65 L 186.20 189.65 L 192.56 189.47 L 198.91 189.47 L 205.27 189.47 L 211.63 189.47 L 217.98 189.00 L 224.34 189.00 L 230.70 189.08 L 237.05 189.08 L 243.41 187.28 L 249.77 179.86 L 256.12 179.75 L 262.48 179.72 L 268.84 179.72 L 275.19 179.72 L 281.55 179.72 L 287.91 179.72 L 294.26 179.72 L 300.62 179.72 L 306.98 178.35 L 313.33 175.76 L 319.69 168.12 L 326.05 166.07 L 332.40 165.50 L 338.76 165.46 L 345.12 164.88 L 351.47 164.88 L 357.83 164.88 L 364.19 164.88 L 370.54 164.78 L 376.90 164.78 L 383.26 163.84 L 389.61 163.55 L 395.97 161.86 L 402.33 161.86 L 408.68 161.61 L 415.04 161.18 L 421.40 158.37 L 427.75 158.40 L 434.11 158.40 L 440.47 158.40 L 446.82 158.40 L 453.18 158.40 L 459.53 158.26 L 465.89 157.54 L 472.25 157.54 L 478.60 157.54 L 484.96 151.42 L 491.32 151.10 L 497.67 151.06 L 504.03 151.06 L 510.39 150.74 L 516.74 150.74 L 523.10 150.74 L 529.46 150.70 L 535.81 150.66 L 542.17 150.66 L 548.53 153.04 L 554.88 153.18 L 561.24 153.18 L 567.60 153.08 L 573.95 153.11 L 580.31 155.06 L 586.67 155.06 L 593.02 155.88 L 599.38 155.88 L 605.74 155.88 L 612.09 155.88 L 618.45 155.67 L 624.81 155.42 L 631.16 155.42 L 637.52 155.27 L 643.88 155.24 L 650.23 153.44 L 656.59 149.98 L 662.95 147.42 L 669.30 147.42 L 675.66 147.42 L 682.02 147.57 L 688.37 146.85 L 694.73 143.90 L 701.09 137.02 L 707.44 134.61 L 713.80 134.61 L 720.16 134.61 L 726.51 118.62 L 732.87 118.62 L 739.22 118.62 L 745.58 112.65 L 751.94 117.58 L 758.29 117.58 L 764.65 117.58 L 771.01 117.58 L 777.36 117.58 L 783.72 117.58 L 790.08 117.58 L 796.43 117.58 L 802.79 117.58 L 809.15 117.58 L 815.50 117.58 L 821.86 117.58 L 828.22 117.58 L 834.57 117.58 L 840.93 117.58 L 847.29 117.58 L 853.64 117.58 L 860.00 117.58" fill="none" stroke="#111827" stroke-width="2"/>
    <circle cx="860.00" cy="117.58" r="3" fill="#111827"/>
    <text x="40.00" y="235.00" font-size="9" fill="#111827" text-anchor="middle" transform="rotate(-45 40.00 235.00)">02.08.25</text><text x="122.64" y="235.00" font-size="9" fill="#111827" text-anchor="middle" transform="rotate(-45 122.64 235.00)">09.08.25</text><text x="205.27" y="235.00" font-size="9" fill="#111827" text-anchor="middle" transform="rotate(-45 205.27 235.00)">10.08.25</text><text x="287.91" y="235.00" font-size="9" fill="#111827" text-anchor="middle" transform="rotate(-45 287.91 235.00)">11.08.25</text><text x="370.54" y="235.00" font-size="9" fill="#111827" text-anchor="middle" transform="rotate(-45 370.54 235.00)">14.08.25</text><text x="453.18" y="235.00" font-size="9" fill="#111827" text-anchor="middle" transform="rotate(-45 453.18 235.00)">16.08.25</text><text x="535.81" y="235.00" font-size="9" fill="#111827" text-anchor="middle" transform="rotate(-45 535.81 235.00)">18.08.25</text><text x="618.45" y="235.00" font-size="9" fill="#111827" text-anchor="middle" transform="rotate(-45 618.45 235.00)">21.08.25</text><text x="701.09" y="235.00" font-size="9" fill="#111827" text-anchor="middle" transform="rotate(-45 701.09 235.00)">22.08.25</text><text x="783.72" y="235.00" font-size="9" fill="#111827" text-anchor="middle" transform="rotate(-45 783.72 235.00)">05.09.25</text>
  </g>
</svg>