<svg xmlns="http://www.w3.org/2000/svg" width="900" height="290" style="font-family: -apple-system, BlinkMacSystemFont, 'Segoe UI', Helvetica, Arial, sans-serif;">
  <rect width="100%" height="100%" fill="#0d1117"/>
  <g>
    <line x1="40" y1="220.00" x2="860" y2="220.00" stroke="#30363d"/><text x="32" y="224.00" font-size="10" fill="#c9d1d9" text-anchor="end">0</text><line x1="40" y1="175.00" x2="860" y2="175.00" stroke="#30363d"/><text x="32" y="179.00" font-size="10" fill="#c9d1d9" text-anchor="end">1.2k</text><line x1="40" y1="130.00" x2="860" y2="130.00" stroke="#30363d"/><text x="32" y="134.00" font-size="10" fill="#c9d1d9" text-anchor="end">2.5k</text><line x1="40" y1="85.00" x2="860" y2="85.00" stroke="#30363d"/><text x="32" y="89.00" font-size="10" fill="#c9d1d9" text-anchor="end">3.8k</text><line x1="40" y1="40.00" x2="860" y2="40.00" stroke="#30363d"/><text x="32" y="44.00" font-size="10" fill="#c9d1d9" text-anchor="end">5k</text>
    <line x1="40.00" y1="40" x2="40.00" y2="220" stroke="#30363d" opacity="0.5"/><line x1="120.99" y1="40" x2="120.99" y2="220" stroke="#30363d" opacity="0.5"/><line x1="201.98" y1="40" x2="201.98" y2="220" stroke="#30363d" opacity="0.5"/><line x1="282.96" y1="40" x2="282.96" y2="220" stroke="#30363d" opacity="0.5"/><line x1="363.95" y1="40" x2="363.95" y2="220" stroke="#30363d" opacity="0.5"/><line x1="444.94" y1="40" x2="444.94" y2="220" stroke="#30363d" opacity="0.5"/><line x1="525.93" y1="40" x2="525.93" y2="220" stroke="#30363d" opacity="0.5"/><line x1="606.91" y1="40" x2="606.91" y2="220" stroke="#30363d" opacity="0.5"/><line x1="687.90" y1="40" x2="687.90" y2="220" stroke="#30363d" opacity="0.5"/><line x1="768.89" y1="40" x2="768.89" y2="220" stroke="#30363d" opacity="0.5"/><line x1="849.88" y1="40" x2="849.88" y2="220" stroke="#30363d" opacity="0.5"/>
    <line x1="40" y1="220" x2="860" y2="220" stroke="#30363d"/>
    <line x1="40" y1="40"   x2="40"   y2="220" stroke="#30363d"/>
    <path d="M 40.00 203.22 L 45.06 202.72 L 50.12 202.72 L 55.19 202.61 L 60.25 201.39 L 65.31 200.78 L 70.37 200.78 L 75.43 200.78 L 80.49 200.56 L 85.56 195.74 L 90.62 195.74 L 95.68 195.74 L 100.74 194.44 L 105.80 194.08 L 110.86 191.99 L 115.93 191.99 L 120.99 191.92 L 126.05 189.72 L 131.11 189.69 L 136.17 189.65 L 141.23 189.65 L 146.30 189.65 L 151.36 189.65 L 156.42 189.65 L 161.48 189.47 L 166.54 189.47 L 171.60 189.47 L 176.67 189.47 L 181.73 189.00 L 186.79 189.00 L 191.85 189.08 L 196.91 189.08 L 201.98 187.28 L 207.04 179.86 L 212.10 179.75 L 217.16 179.72 L 222.22 179.72 L 227.28 179.72 L 232.35 179.72 L 237.41 179.72 L 242.47 179.72 L 247.53 179.72 L 252.59 178.35 L 257.65 175.76 L 262.72 168.12 L 267.78 166.07 L 272.84 165.50 L 277.90 165.46 L 282.96 164.88 L 288.02 164.88 L 293.09 164.88 L 298.15 164.88 L 303.21 164.78 L 308.27 164.78 L 313.33 163.84 L 318.40 163.55 L 323.46 161.86 L 328.52 161.86 L 333.58 161.61 L 338.64 161.18 L 343.70 158.37 L 348.77 158.40 L 353.83 158.40 L 358.89 158.40 L 363.95 158.40 L 369.01 158.40 L 374.07 158.26 L 379.14 157.54 L 384.20 157.54 L 389.26 157.54 L 394.32 151.42 L 399.38 151.10 L 404.44 151.06 L 409.51 151.06 L 414.57 150.74 L 419.63 150.74 L 424.69 150.74 L 429.75 150.70 L 434.81 150.66 L 439.88 150.66 L 444.94 153.04 L 450.00 153.18 L 455.06 153.18 L 460.12 153.08 L 465.19 153.11 L 470.25 155.06 L 475.31 155.06 L 480.37 155.88 L 485.43 155.88 L 490.49 155.88 L 495.56 155.88 L 500.62 155.67 L 505.68 155.42 L 510.74 155.42 L 515.80 155.27 L 520.86 155.24 L 525.93 153.44 L 530.99 149.98 L 536.05 147.42 L 541.11 147.42 L 546.17 147.42 L 551.23 147.57 L 556.30 146.85 L 561.36 143.90 L 566.42 137.02 L 571.48 134.61 L 576.54 134.61 L 581.60 134.61 L 586.67 118.62 L 591.73 118.62 L 596.79 118.62 L 601.85 112.65 L 606.91 117.58 L 611.98 117.58 L 617.04 117.58 L 622.10 117.58 L 627.16 117.58 L 632.22 117.58 L 637.28 117.58 L 642.35 117.58 L 647.41 117.58 L 652.47 117.58 L 657.53 117.58 L 662.59 117.58 L 667.65 117.58 L 672.72 117.58 L 677.78 117.58 L 682.84 117.58 L 687.90 117.58 L 692.96 117.58 L 698.02 117.58 L 703.09 117.58 L 708.15 117.58 L 713.21 117.58 L 718.27 117.58 L 723.33 117.58 L 728.40 117.58 L 733.46 117.58 L 738.52 117.58 L 743.58 117.58 L 748.64 117.58 L 753.70 117.58 L 758.77 117.58 L 763.83 117.58 L 768.89 117.58 L 773.95 117.58 L 779.01 117.58 L 784.07 117.58 L 789.14 117.58 L 794.20 117.58 L 799.26 117.58 L 804.32 117.58 L 809.38 117.58 L 814.44 117.58 L 819.51 117.58 L 824.57 117.58 L 829.63 117.58 L 834.69 117.58 L 839.75 117.58 L 844.81 117.58 L 849.88 117.58 L 854.94 117.58 L 860.00 117.58" fill="none" stroke="#3fb950" stroke-width="2"/>
    <circle cx="860.00" cy="117.58" r="3" fill="#3fb950"/>
    <text x="40.00" y="235.00" font-size="9" fill="#c9d1d9" text-anchor="middle" transform="rotate(-45 40.00 235.00)">02.08.25</text><text x="120.99" y="235.00" font-size="9" fill="#c9d1d9" text-anchor="middle" transform="rotate(-45 120.99 235.00)">10.08.25</text><text x="201.98" y="235.00" font-size="9" fill="#c9d1d9" text-anchor="middle" transform="rotate(-45 201.98 235.00)">11.08.25</text><text x="282.96" y="235.00" font-size="9" fill="#c9d1d9" text-anchor="middle" transform="rotate(-45 282.96 235.00)">13.08.25</text><text x="363.95" y="235.00" font-size="9" fill="#c9d1d9" text-anchor="middle" transform="rotate(-45 363.95 235.00)">15.08.25</text><text x="444.94" y="235.00" font-size="9" fill="#c9d1d9" text-anchor="middle" transform="rotate(-45 444.94 235.00)">19.08.25</text><text x="525.93" y="235.00" font-size="9" fill="#c9d1d9" text-anchor="middle" transform="rotate(-45 525.93 235.00)">22.08.25</text><text x="606.91" y="235.00" font-size="9" fill="#c9d1d9" text-anchor="middle" transform="rotate(-45 606.91 235.00)">24.08.25</text><text x="687.90" y="235.00" font-size="9" fill="#c9d1d9" text-anchor="middle" transform="rotate(-45 687.90 235.00)">22.09.25</text><text x="768.89" y="235.00" font-size="9" fill="#c9d1d9" text-anchor="middle" transform="rotate(-45 768.89 235.00)">08.12.25</text><text x="849.88" y="235.00" font-size="9" fill="#c9d1d9" text-anchor="middle" transform="rotate(-45 849.88 235.00)">09.02.26</text>
  </g>
</svg>