<svg xmlns="http://www.w3.org/2000/svg" width="900" height="290" style="font-family: -apple-system, BlinkMacSystemFont, 'Segoe UI', Helvetica, Arial, sans-serif;">
  <rect width="100%" height="100%" fill="#0d1117"/>
  <g>
    <line x1="40" y1="220.00" x2="860" y2="220.00" stroke="#30363d"/><text x="32" y="224.00" font-size="10" fill="#c9d1d9" text-anchor="end">0</text><line x1="40" y1="175.00" x2="860" y2="175.00" stroke="#30363d"/><text x="32" y="179.00" font-size="10" fill="#c9d1d9" text-anchor="end">1.2k</text><line x1="40" y1="130.00" x2="860" y2="130.00" stroke="#30363d"/><text x="32" y="134.00" font-size="10" fill="#c9d1d9" text-anchor="end">2.5k</text><line x1="40" y1="85.00" x2="860" y2="85.00" stroke="#30363d"/><text x="32" y="89.00" font-size="10" fill="#c9d1d9" text-anchor="end">3.8k</text><line x1="40" y1="40.00" x2="860" y2="40.00" stroke="#30363d"/><text x="32" y="44.00" font-size="10" fill="#c9d1d9" text-anchor="end">5k</text>
    <line x1="40.00" y1="40" x2="40.00" y2="220" stroke="#30363d" opacity="0.5"/><line x1="122.00" y1="40" x2="122.00" y2="220" stroke="#30363d" opacity="0.5"/><line x1="204.00" y1="40" x2="204.00" y2="220" stroke="#30363d" opacity="0.5"/><line x1="286.00" y1="40" x2="286.00" y2="220" stroke="#30363d" opacity="0.5"/><line x1="368.00" y1="40" x2="368.00" y2="220" stroke="#30363d" opacity="0.5"/><line x1="450.00" y1="40" x2="450.00" y2="220" stroke="#30363d" opacity="0.5"/><line x1="532.00" y1="40" x2="532.00" y2="220" stroke="#30363d" opacity="0.5"/><line x1="614.00" y1="40" x2="614.00" y2="220" stroke="#30363d" opacity="0.5"/><line x1="696.00" y1="40" x2="696.00" y2="220" stroke="#30363d" opacity="0.5"/><line x1="778.00" y1="40" x2="778.00" y2="220" stroke="#30363d" opacity="0.5"/><line x1="860.00" y1="40" x2="860.00" y2="220" stroke="#30363d" opacity="0.5"/>
    <line x1="40" y1="220" x2="860" y2="220" stroke="#30363d"/>
    <line x1="40" y1="40"   x2="40"   y2="220" stroke="#30363d"/>
    <path d="M 40.00 203.22 L 45.86 202.72 L 51.71 202.72 L 57.57 202.61 L 63.43 201.39 L 69.29 200.78 L 75.14 200.78 L 81.00 200.78 L 86.86 200.56 L 92.71 195.74 L 98.57 195.74 L 104.43 195.74 L 110.29 194.44 L 116.14 194.08 L 122.00 191.99 L 127.86 191.99 L 133.71 191.92 L 139.57 189.72 L 145.43 189.69 L 151.29 189.65 L 157.14 189.65 L 163.00 189.65 L 168.86 189.65 L 174.71 189.65 L 180.57 189.47 L 186.43 189.47 L 192.29 189.47 L 198.14 189.47 L 204.00 189.00 L 209.86 189.00 L 215.71 189.08 L 221.57 189.08 L 227.43 187.28 L 233.29 179.86 L 239.14 179.75 L 245.00 179.72 L 250.86 179.72 L 256.71 179.72 L 262.57 179.72 L 268.43 179.72 L 274.29 179.72 L 280.14 179.72 L 286.00 178.35 L 291.86 175.76 L 297.71 168.12 L 303.57 166.07 L 309.43 165.50 L 315.29 165.46 L 321.14 164.88 L 327.00 164.88 L 332.86 164.88 L 338.71 164.88 L 344.57 164.78 L 350.43 164.78 L 356.29 163.84 L 362.14 163.55 L 368.00 161.86 L 373.86 161.86 L 379.71 161.61 L 385.57 161.18 L 391.43 158.37 L 397.29 158.40 L 403.14 158.40 L 409.00 158.40 L 414.86 158.40 L 420.71 158.40 L 426.57 158.26 L 432.43 157.54 L 438.29 157.54 L 444.14 157.54 L 450.00 151.42 L 455.86 151.10 L 461.71 151.06 L 467.57 151.06 L 473.43 150.74 L 479.29 150.74 L 485.14 150.74 L 491.00 150.70 L 496.86 150.66 L 502.71 150.66 L 508.57 153.04 L 514.43 153.18 L 520.29 153.18 L 526.14 153.08 L 532.00 153.11 L 537.86 155.06 L 543.71 155.06 L 549.57 155.88 L 555.43 155.88 L 561.29 155.88 L 567.14 155.88 L 573.00 155.67 L 578.86 155.42 L 584.71 155.42 L 590.57 155.27 L 596.43 155.24 L 602.29 153.44 L 608.14 149.98 L 614.00 147.42 L 619.86 147.42 L 625.71 147.42 L 631.57 147.57 L 637.43 146.85 L 643.29 143.90 L 649.14 137.02 L 655.00 134.61 L 660.86 134.61 L 666.71 134.61 L 672.57 118.62 L 678.43 118.62 L 684.29 118.62 L 690.14 112.65 L 696.00 117.58 L 701.86 117.58 L 707.71 117.58 L 713.57 117.58 L 719.43 117.58 L 725.29 117.58 L 731.14 117.58 L 737.00 117.58 L 742.86 117.58 L 748.71 117.58 L 754.57 117.58 L 760.43 117.58 L 766.29 117.58 L 772.14 117.58 L 778.00 117.58 L 783.86 117.58 L 789.71 117.58 L 795.57 117.58 L 801.43 117.58 L 807.29 117.58 L 813.14 117.58 L 819.00 117.58 L 824.86 117.58 L 830.71 117.58 L 836.57 117.58 L 842.43 117.58 L 848.29 117.58 L 854.14 117.58 L 860.00 117.58" fill="none" stroke="#3fb950" stroke-width="2"/>
    <circle cx="860.00" cy="117.58" r="3" fill="#3fb950"/>
    <text x="40.00" y="235.00" font-size="9" fill="#c9d1d9" text-anchor="middle" transform="rotate(-45 40.00 235.00)">02.08.25</text><text x="122.00" y="235.00" font-size="9" fill="#c9d1d9" text-anchor="middle" transform="rotate(-45 122.00 235.00)">09.08.25</text><text x="204.00" y="235.00" font-size="9" fill="#c9d1d9" text-anchor="middle" transform="rotate(-45 204.00 235.00)">11.08.25</text><text x="286.00" y="235.00" font-size="9" fill="#c9d1d9" text-anchor="middle" transform="rotate(-45 286.00 235.00)">13.08.25</text><text x="368.00" y="235.00" font-size="9" fill="#c9d1d9" text-anchor="middle" transform="rotate(-45 368.00 235.00)">15.08.25</text><text x="450.00" y="235.00" font-size="9" fill="#c9d1d9" text-anchor="middle" transform="rotate(-45 450.00 235.00)">18.08.25</text><text x="532.00" y="235.00" font-size="9" fill="#c9d1d9" text-anchor="middle" transform="rotate(-45 532.00 235.00)">19.08.25</text><text x="614.00" y="235.00" font-size="9" fill="#c9d1d9" text-anchor="middle" transform="rotate(-45 614.00 235.00)">22.08.25</text><text x="696.00" y="235.00" font-size="9" fill="#c9d1d9" text-anchor="middle" transform="rotate(-45 696.00 235.00)">24.08.25</text><text x="778.00" y="235.00" font-size="9" fill="#c9d1d9" text-anchor="middle" transform="rotate(-45 778.00 235.00)">14.09.25</text><text x="860.00" y="235.00" font-size="9" fill="#c9d1d9" text-anchor="middle" transform="rotate(-45 860.00 235.00)">10.11.25</text>
  </g>
</svg>